<?xml version="1.0" encoding="utf-8"?>
<!-- Generator: Adobe Illustrator 25.1.0, SVG Export Plug-In . SVG Version: 6.00 Build 0)  -->
<svg version="1.1" id="Ebene_1" xmlns="http://www.w3.org/2000/svg" xmlns:xlink="http://www.w3.org/1999/xlink" x="0px" y="0px"
	 viewBox="0 0 800 177" style="enable-background:new 0 0 800 177;" xml:space="preserve">
<style type="text/css">
	.st0{fill:#00FFA8;}
</style>
<g>
	<g>
		<polygon class="st0" points="89.6,42.5 96.4,7.5 131.5,0.7 124.7,35.7 		"/>
		<polygon class="st0" points="44.8,42.5 50.6,6.4 86.7,0.7 80.9,36.8 		"/>
		<polygon class="st0" points="44.8,87.4 53.7,54.4 86.7,45.5 77.8,78.5 		"/>
		<polygon class="st0" points="89.6,87.4 99.6,55.4 131.5,45.5 121.6,77.4 		"/>
		<polygon class="st0" points="134.5,87.4 145.5,56.5 176.3,45.5 165.3,76.4 		"/>
		<polygon class="st0" points="0,87.4 7.8,53.3 41.9,45.5 34,79.5 		"/>
		<polygon class="st0" points="0,132.2 11,101.3 41.9,90.3 30.9,121.2 		"/>
		<polygon class="st0" points="44.8,132.2 56.9,102.4 86.7,90.3 74.6,120.1 		"/>
		<polygon class="st0" points="89.6,132.2 102.7,103.4 131.5,90.3 118.4,119.1 		"/>
		<polygon class="st0" points="134.5,132.2 148.6,104.4 176.3,90.3 162.2,118.1 		"/>
		<polygon class="st0" points="44.8,177 60,150.3 86.7,135.1 71.5,161.8 		"/>
		<polygon class="st0" points="89.6,177 105.9,151.4 131.5,135.1 115.3,160.8 		"/>
	</g>
	<g>
		<path d="M263,0.7h6.4v34H263V0.7z"/>
		<path d="M276,10.6h6v3.2h0.9c0.8-1.7,2.7-3.5,7-3.5c5.6,0,9.4,4.1,9.4,10.1v14.4h-6.1V20.8c0-3.6-1.8-5.4-5.1-5.4
			c-3.7,0-5.9,2.6-5.9,7.1v12.2H276V10.6z"/>
		<path d="M305.9,10.6h6v3.2h0.9c0.8-1.7,2.7-3.5,7-3.5c5.6,0,9.4,4.1,9.4,10.1v14.4h-6.1V20.8c0-3.6-1.8-5.4-5.1-5.4
			c-3.7,0-5.9,2.6-5.9,7.1v12.2h-6.1V10.6z"/>
		<path d="M334.7,23v-0.8c0-7.8,5.4-12.3,12.6-12.3c7.2,0,12.6,4.6,12.6,12.3V23c0,7.8-5.4,12.3-12.6,12.3
			C340.1,35.3,334.7,30.8,334.7,23z M353.8,22.9v-0.5c0-4.5-2.7-7-6.5-7c-3.8,0-6.5,2.5-6.5,7v0.5c0,4.5,2.8,7,6.5,7
			S353.8,27.4,353.8,22.9z"/>
		<path d="M362.3,10.6h6.5l5.6,19.6h0.9l5.6-19.6h6.5l-7.7,24.1h-9.7L362.3,10.6z"/>
		<path d="M438.5,3.9c0-2.3,1.7-3.9,3.9-3.9c2.2,0,3.9,1.6,3.9,3.9s-1.7,3.9-3.9,3.9C440.2,7.8,438.5,6.2,438.5,3.9z M439.4,10.6
			h6.1v24.1h-6.1V10.6z"/>
		<path d="M451.1,23v-0.8c0-7.8,5.4-12.3,12.6-12.3c7.2,0,12.6,4.6,12.6,12.3V23c0,7.8-5.4,12.3-12.6,12.3
			C456.5,35.3,451.1,30.8,451.1,23z M470.2,22.9v-0.5c0-4.5-2.7-7-6.5-7c-3.8,0-6.5,2.5-6.5,7v0.5c0,4.5,2.8,7,6.5,7
			C467.5,29.9,470.2,27.4,470.2,22.9z"/>
		<path d="M482,10.6h6v3.2h0.9c0.8-1.7,2.7-3.5,7-3.5c5.6,0,9.4,4.1,9.4,10.1v14.4h-6.1V20.8c0-3.6-1.8-5.4-5.1-5.4
			c-3.7,0-5.9,2.6-5.9,7.1v12.2H482V10.6z"/>
		<path d="M533.7,10.6h6.5l5.6,19.6h0.9l5.6-19.6h6.5l-7.7,24.1h-9.7L533.7,10.6z"/>
		<path d="M590.3,10.6h6v2.7h0.9c0.7-1.9,2.4-2.8,4.7-2.8h2.9v5.4h-3c-3.1,0-5.3,1.7-5.3,5v13.7h-6.1V10.6z"/>
		<path d="M616.4,31.7h-0.9v2.9h-6v-34h6.1v12.7h0.9c1-1.7,3.1-3.4,7.5-3.4c5.8,0,10.9,4.5,10.9,12.3V23c0,7.9-5.1,12.3-10.9,12.3
			C619.6,35.3,617.5,33.6,616.4,31.7z M628.8,22.9v-0.5c0-4.7-2.8-7.1-6.6-7.1c-3.8,0-6.6,2.5-6.6,7.1v0.5c0,4.7,2.9,7.1,6.6,7.1
			S628.8,27.5,628.8,22.9z"/>
		<path d="M640.3,25V10.6h6.1v13.9c0,3.6,1.8,5.4,5.1,5.4c3.7,0,5.9-2.6,5.9-7.1V10.6h6.1v24.1h-6v-3.2h-0.9c-0.8,1.7-2.7,3.5-7,3.5
			C644.1,35,640.3,30.9,640.3,25z"/>
		<path d="M670.4,10.6h6v3.2h0.9c0.8-1.7,2.7-3.5,7-3.5c5.6,0,9.4,4.1,9.4,10.1v14.4h-6.1V20.8c0-3.6-1.8-5.4-5.1-5.4
			c-3.7,0-5.9,2.6-5.9,7.1v12.2h-6.1V10.6z"/>
		<path d="M699.2,23v-0.8c0-7.9,5-12.3,10.9-12.3c4.4,0,6.5,1.7,7.5,3.4h0.9V0.7h6.1v34h-6v-2.9h-0.9c-1.1,1.8-3.2,3.6-7.6,3.6
			C704.3,35.3,699.2,30.9,699.2,23z M718.5,22.9v-0.5c0-4.7-2.8-7.1-6.6-7.1c-3.8,0-6.6,2.5-6.6,7.1v0.5c0,4.7,2.9,7.1,6.6,7.1
			S718.5,27.5,718.5,22.9z"/>
		<path d="M262.2,74.4v-8.2c0-8.7,5.4-13.6,14-13.6c8.5,0,14,4.9,14,13.6v8.2c0,8.7-5.4,13.6-14,13.6
			C267.7,88,262.2,83.2,262.2,74.4z M266.9,46.9c0-2.4,1.7-3.9,3.9-3.9s3.9,1.5,3.9,3.9c0,2.4-1.7,3.9-3.9,3.9
			S266.9,49.2,266.9,46.9z M283.8,74.6v-8.5c0-4.7-2.8-7.7-7.6-7.7c-4.8,0-7.6,3-7.6,7.7v8.5c0,4.7,2.8,7.7,7.6,7.7
			C281,82.3,283.8,79.3,283.8,74.6z M277.7,46.9c0-2.4,1.7-3.9,3.9-3.9c2.2,0,3.9,1.5,3.9,3.9c0,2.4-1.7,3.9-3.9,3.9
			C279.4,50.7,277.7,49.2,277.7,46.9z"/>
		<path d="M360.3,63.3h6v3.2h0.9c0.8-1.7,2.7-3.5,7-3.5c5.6,0,9.4,4.1,9.4,10.1v14.4h-6.1V73.5c0-3.6-1.8-5.4-5.1-5.4
			c-3.7,0-5.9,2.6-5.9,7.1v12.2h-6.1V63.3z"/>
		<path d="M411.6,53.4h6.1v34h-6.1V53.4z"/>
		<path d="M423.7,56.6c0-2.3,1.7-3.9,3.9-3.9c2.2,0,3.9,1.6,3.9,3.9c0,2.3-1.7,3.9-3.9,3.9C425.4,60.5,423.7,58.9,423.7,56.6z
			 M424.5,63.3h6.1v24.1h-6.1V63.3z"/>
		<path d="M465.9,53.4h6.1v12.9h0.9c0.8-1.6,2.7-3.3,6.9-3.3c5.6,0,9.4,4.1,9.4,10.1v14.4h-6.1V73.5c0-3.6-1.8-5.4-5.1-5.4
			c-3.7,0-5.9,2.6-5.9,7.1v12.2h-6.1V53.4z"/>
		<path d="M621.6,77.6V63.3h6.1v13.9c0,3.6,1.8,5.4,5.1,5.4c3.7,0,5.9-2.6,5.9-7.1V63.3h6.1v24.1h-6v-3.2H638
			c-0.8,1.7-2.7,3.5-7,3.5C625.3,87.7,621.6,83.6,621.6,77.6z"/>
		<path d="M651.7,63.3h6v3.2h0.9c0.8-1.7,2.7-3.5,7-3.5c5.6,0,9.4,4.1,9.4,10.1v14.4h-6.1V73.5c0-3.6-1.8-5.4-5.1-5.4
			c-3.7,0-5.9,2.6-5.9,7.1v12.2h-6.1V63.3z"/>
		<path d="M680.4,75.7v-0.8c0-7.9,5-12.3,10.9-12.3c4.4,0,6.5,1.7,7.5,3.4h0.9V53.4h6.1v34h-6v-2.9h-0.9c-1.1,1.8-3.2,3.6-7.6,3.6
			C685.5,88,680.4,83.6,680.4,75.7z M699.7,75.6v-0.5c0-4.7-2.8-7.1-6.6-7.1c-3.8,0-6.6,2.5-6.6,7.1v0.5c0,4.7,2.9,7.1,6.6,7.1
			S699.7,80.2,699.7,75.6z"/>
		<path d="M712.6,53.4h6.1v12.9h0.9c0.8-1.6,2.7-3.3,6.9-3.3c5.6,0,9.4,4.1,9.4,10.1v14.4h-6.1V73.5c0-3.6-1.8-5.4-5.1-5.4
			c-3.7,0-5.9,2.6-5.9,7.1v12.2h-6.1V53.4z"/>
		<path d="M769.6,56.6c0-2.3,1.7-3.9,3.9-3.9c2.2,0,3.9,1.6,3.9,3.9c0,2.3-1.7,3.9-3.9,3.9C771.3,60.5,769.6,58.9,769.6,56.6z
			 M770.5,63.3h6.1v24.1h-6.1V63.3z"/>
		<path d="M406.1,68.3v-5h-6.6v-9.9l-6.1,3.9v6h-5.7h-0.3v0.2v4.8h6v13.6c0,3.3,2.1,5.4,5.3,5.4h6.8v-5h-4.7c-0.9,0-1.4-0.5-1.4-1.5
			V68.3H406.1z"/>
		<path d="M800,68.3v-5h-6.6v-9.9l-6.1,3.9v6h-5.7h-0.3v0.2v4.8h6v13.6c0,3.3,2.1,5.4,5.3,5.4h6.8v-5h-4.7c-0.9,0-1.4-0.5-1.4-1.5
			V68.3H800z"/>
		<path d="M433.9,15.5v-5h-6.6V0.6l-6.1,3.9v6h-5.7h-0.3v0.2v4.8h6v13.6c0,3.3,2.1,5.4,5.3,5.4h6.8v-5h-4.7c-0.9,0-1.4-0.5-1.4-1.5
			V15.5H433.9z"/>
		<path d="M547.6,70v5.4h8.1v0.5c0,3.8-2,6.5-6.7,6.5c-4.7,0-7.4-3.1-7.4-7.9v-8.3c0-4.8,2.7-7.8,7.3-7.8c4.6,0,6.8,2.8,6.8,6.4v0.4
			l5.9-3.7c-0.3-1.3-0.8-2.4-1.4-3.4c-2.1-3.4-6-5.4-11.3-5.4c-8.4,0-13.7,4.9-13.7,13.6v8.2c0,8.7,5.5,13.6,12.5,13.6
			c5.2,0,6.8-2.3,7.5-3.9h0.9v3.3h5.9V70H547.6z"/>
		<path d="M608.6,72.9c-0.6-0.1-1.2-0.3-1.8-0.4l-1.4-0.2c-0.2,0-0.4-0.1-0.6-0.1c-1.9-0.4-3-1-3-2.4c0-1.4,1.3-2.3,3.6-2.3
			c0.8,0,1.5,0.1,2.1,0.4c1.2,0.5,2,1.4,2.4,3l5.1-3.2c-0.9-1.9-2.6-3.3-4.7-4.2c-1.4-0.6-3-0.9-4.9-0.9c-1.9,0-3.5,0.3-4.9,0.8
			c-1,0.4-1.9,1-2.6,1.7c-1.2,1.2-1.9,2.9-1.9,4.9c0,3.7,2.5,5.6,6,6.8c1,0.3,2.1,0.6,3.3,0.8l0.5,0.1l0.9,0.2
			c2.9,0.5,4.1,1.2,4.1,2.7c0,1.5-1.4,2.6-4.2,2.6c-1.4,0-2.7-0.3-3.7-0.9c-1-0.7-1.8-1.8-2.1-3.5l-5.2,3.3c0.8,2.1,2.3,3.7,4.4,4.7
			c1.8,0.9,4,1.3,6.5,1.3c0.3,0,0.5,0,0.7,0c4.8-0.2,8.1-2.2,9.1-5.7c0.2-0.7,0.3-1.4,0.3-2.1C616.4,75.7,613.1,73.9,608.6,72.9z"/>
		<path d="M524.1,20.2c-0.6-0.1-1.2-0.3-1.8-0.4l-1.4-0.2c-0.2,0-0.4-0.1-0.6-0.1c-1.9-0.4-3-1-3-2.4c0-1.4,1.3-2.3,3.6-2.3
			c0.8,0,1.5,0.1,2.1,0.4c1.2,0.5,2,1.4,2.4,3l5.1-3.2c-0.9-1.9-2.6-3.3-4.7-4.2c-1.4-0.6-3-0.9-4.9-0.9c-1.9,0-3.5,0.3-4.9,0.8
			c-1,0.4-1.9,1-2.6,1.7c-1.2,1.2-1.9,2.9-1.9,4.9c0,3.7,2.5,5.6,6,6.8c1,0.3,2.1,0.6,3.3,0.8l0.5,0.1l0.9,0.2
			c2.9,0.5,4.1,1.2,4.1,2.7c0,1.5-1.4,2.6-4.2,2.6c-1.4,0-2.7-0.3-3.7-0.9c-1-0.7-1.8-1.8-2.1-3.5l-5.2,3.3c0.8,2.1,2.3,3.7,4.4,4.7
			c1.8,0.9,4,1.3,6.5,1.3c0.3,0,0.5,0,0.7,0c4.8-0.2,8.1-2.2,9.1-5.7c0.2-0.7,0.3-1.4,0.3-2.1C532,23,528.7,21.2,524.1,20.2z"/>
		<path d="M454.9,77.4c-0.5,3.1-2.3,5.2-6,5.2c-3.7,0-6.5-2.5-6.5-7v-0.5c0-4.6,2.8-7,6.5-7c3.7,0,5.5,2.2,5.9,5.1l5.3-3.4
			c-0.4-1-0.9-1.9-1.5-2.7c-2-2.7-5.3-4.5-9.9-4.5c-7,0-12.5,4.5-12.5,12.4v0.7c0,7.9,5.5,12.4,12.5,12.4c4.6,0,7.9-1.8,10-4.6
			c0.6-0.8,1.1-1.7,1.5-2.7L454.9,77.4z"/>
		<path d="M354.8,75c0-7.4-4.6-12.4-11.7-12.4c-7.2,0-12,4.9-12,12.4v0.6c0,7.6,4.9,12.4,12.1,12.4c4.6,0,7.4-1.8,9.1-3.8
			c0.6-0.7,1.1-1.5,1.5-2.1l-4.8-3c-0.8,1.8-2.2,3.6-5.6,3.6c-3.4,0-6-2.3-6.1-5.6h17.5V75z M337.3,72.5c0.4-2.8,2.4-4.6,5.7-4.6
			c3.2,0,5.2,1.8,5.5,4.6H337.3z"/>
		<path d="M518.4,75c0-7.4-4.6-12.4-11.7-12.4c-7.2,0-12,4.9-12,12.4v0.6c0,7.6,4.9,12.4,12.1,12.4c4.6,0,7.4-1.8,9.1-3.8
			c0.6-0.7,1.1-1.5,1.5-2.1l-4.8-3c-0.8,1.8-2.2,3.6-5.6,3.6c-3.4,0-6-2.3-6.1-5.6h17.5V75z M500.9,72.5c0.4-2.8,2.4-4.6,5.7-4.6
			c3.2,0,5.2,1.8,5.5,4.6H500.9z"/>
		<path d="M590.9,75c0-7.4-4.6-12.4-11.7-12.4c-7.2,0-12,4.9-12,12.4v0.6c0,7.6,4.9,12.4,12.1,12.4c4.6,0,7.4-1.8,9.1-3.8
			c0.6-0.7,1.1-1.5,1.5-2.1l-4.8-3c-0.8,1.8-2.2,3.6-5.6,3.6c-3.4,0-6-2.3-6.1-5.6h17.5V75z M573.4,72.5c0.4-2.8,2.4-4.6,5.7-4.6
			c3.2,0,5.2,1.8,5.5,4.6H573.4z"/>
		<path d="M765,75c0-7.4-4.6-12.4-11.7-12.4c-7.2,0-12,4.9-12,12.4v0.6c0,7.6,4.9,12.4,12.1,12.4c4.6,0,7.4-1.8,9.1-3.8
			c0.6-0.7,1.1-1.5,1.5-2.1l-4.8-3c-0.8,1.8-2.2,3.6-5.6,3.6c-3.4,0-6-2.3-6.1-5.6H765V75z M747.6,72.5c0.4-2.8,2.4-4.6,5.7-4.6
			c3.2,0,5.2,1.8,5.5,4.6H747.6z"/>
		<path d="M584.9,22.3c0-7.4-4.6-12.4-11.7-12.4c-7.2,0-12,4.9-12,12.4v0.6c0,7.6,4.9,12.4,12.1,12.4c4.6,0,7.4-1.8,9.1-3.8
			c0.6-0.7,1.1-1.5,1.5-2.1l-4.8-3c-0.8,1.8-2.2,3.6-5.6,3.6s-6-2.3-6.1-5.6h17.5V22.3z M567.4,19.9c0.4-2.8,2.4-4.6,5.7-4.6
			c3.2,0,5.2,1.8,5.5,4.6H567.4z"/>
		<path d="M412.5,29.6c-0.9,0-1.4-0.5-1.4-1.5v-9c0-6-4-9.3-10.3-9.3c-4,0-6.7,1.3-8.5,3.1c-0.7,0.7-1.2,1.5-1.6,2.3l5.1,3.2
			c0.4-2.2,1.8-3.7,4.9-3.7c3.1,0,4.5,1.7,4.5,3.9v1.4h-6.6c-5.4,0-9.3,2.6-9.3,7.5c0,5,3.9,7.7,9,7.7c5,0,6.6-2.7,7-3.9h0.9v0
			c0,1.9,1.7,3.2,4.1,3.2h4.1v-5H412.5z M405.3,25.1c0,3.2-2.4,5.2-5.8,5.2c-2.6,0-4-1.2-4-3c0-1.7,1.4-2.8,3.6-2.8h6.2V25.1z"/>
		<path d="M321.9,63.3v-3.4c0-1,0.5-1.5,1.4-1.5h4.2v-5h-6.3c-3.2,0-5.3,2.1-5.3,5.4v4.5h-9.7v-3.4c0-1,0.5-1.5,1.4-1.5h4.2v-5h-6.3
			c-3.2,0-5.3,2.1-5.3,5.4v4.5h-4.3l-3.2,5h7.5v19h6.1v-19h9.7v19h6.1v-19h4.1l3.2-5H321.9z"/>
	</g>
</g>
</svg>
