<svg width="130" height="90" viewBox="0 0 130 90" fill="none" xmlns="http://www.w3.org/2000/svg">
<path d="M17.6291 8.61333V12.5257L15.115 17.6288L11.1342 11.8453V7.42261L17.6291 8.61333Z" fill="#A0616A"/>
<path d="M27.9008 40.8247L28.3813 44.3747C28.3813 44.3747 29.5022 48.2474 27.9008 48.2474C26.2995 48.2474 26.2995 44.052 26.2995 44.052L25.9792 41.6315L27.9008 40.8247Z" fill="#A0616A"/>
<path d="M4.41819 39.8969L5.05874 43.8906C5.05874 43.8906 6.55335 48.2474 4.41819 48.2474C2.28302 48.2474 2.28302 43.5275 2.28302 43.5275L1.85598 40.8045L4.41819 39.8969Z" fill="#A0616A"/>
<path d="M22.6399 36.2163L23.5962 36.4476C23.5962 36.4476 26.0944 50.6279 26.2976 58.1006C26.5008 65.5733 26.9072 84.4329 26.9072 84.4329H20.4046L16.1373 52.4071L14.1053 84.4329H7.19625C7.19625 84.4329 4.35137 42.4435 6.18022 39.063C8.00907 35.6825 22.6399 36.2163 22.6399 36.2163Z" fill="#2F2E41"/>
<path d="M26.4903 83.5051L28.2549 86.1768C28.2549 86.1768 33.1564 90.1842 28.8431 89.9934C24.5297 89.8025 22.7652 87.8942 22.7652 87.8942V88.4667L20.4125 87.7034L20.8046 83.5051H26.4903Z" fill="#2F2E41"/>
<path d="M7.83998 83.5051L6.07544 86.1768C6.07544 86.1768 1.17393 90.1842 5.48726 89.9934C9.80058 89.8025 11.5651 87.8942 11.5651 87.8942V88.4667L13.9178 87.7034L13.5257 83.5051H7.83998Z" fill="#2F2E41"/>
<path d="M14.8455 9.27827C12.2834 9.27827 10.2063 7.61664 10.2063 5.56693C10.2063 3.51721 12.2834 1.85559 14.8455 1.85559C17.4077 1.85559 19.4847 3.51721 19.4847 5.56693C19.4847 7.61664 17.4077 9.27827 14.8455 9.27827Z" fill="#A0616A"/>
<path d="M15.2889 15.2882L17.2858 11.3644L18.1935 13.3719L18.5565 30.6184L10.206 12.6751L11.6583 11.1339L15.2889 15.2882Z" fill="#575A89"/>
<path d="M2.78361 16.2644L10.0988 12.0618C10.0988 12.0618 10.6075 16.0881 15.2216 15.7354C19.8357 15.3826 17.6791 12.3242 17.6791 12.3242L25.0516 15.9117L22.2431 29.6679L23.4467 37.6041C23.4467 37.6041 12.6136 36.5459 10.2063 38.1332C8.80039 39.0749 7.14218 39.6823 5.39158 39.8968L5.79281 26.317L2.78361 16.2644Z" fill="#D1D1D1"/>
<path d="M5.21714 16.9547L3.95443 15.7732L3.02684 16.4232C3.02684 16.4232 2.11422 17.4863 1.38412 20.6759C0.654019 23.8654 1.01907 38.0412 1.01907 38.0412L5.03461 37.5096L4.85209 31.6621L6.49481 23.8654L5.21714 16.9547Z" fill="#D1D1D1"/>
<path d="M23.9871 15.9095L24.7088 15.7732L25.3243 16.0833C25.3243 16.0833 27.0435 18.1692 27.0435 20.0812C27.0435 21.9932 28.7627 38.3325 28.7627 38.3325L24.9422 39.8969L22.2679 27.5555L23.9871 15.9095Z" fill="#D1D1D1"/>
<path d="M0.279513 38.2651C0.279513 38.2651 4.51762 36.2174 6.00095 37.5825C7.48429 38.9476 5.15333 40.3127 5.15333 40.3127C5.15333 40.3127 -1.41573 42.3603 0.279513 38.2651Z" fill="#575A89"/>
<path d="M24.4034 39.481C24.4034 39.481 28.6415 36.9215 30.1248 38.6278C31.6081 40.3342 29.2772 42.0405 29.2772 42.0405C29.2772 42.0405 22.7081 44.6001 24.4034 39.481Z" fill="#575A89"/>
<path d="M11.528 2.76425C11.528 2.76425 10.3987 0.714548 12.8833 0.528211C12.8833 0.528211 15.1419 -0.776147 16.949 0.714548C16.949 0.714548 18.5302 0.341874 18.982 1.4599C18.982 1.4599 19.2079 0.900885 18.5305 0.528211C18.5305 0.528211 20.1117 0.155537 20.1117 2.01891C20.1117 2.01891 20.7894 3.88228 20.1117 5.55931C19.434 7.23634 19.2089 7.42268 19.2089 7.42268C19.2089 7.42268 20.3225 3.90668 17.6118 3.72035C14.9011 3.53401 11.8678 1.92574 11.6419 3.97544C11.416 6.02515 10.9641 6.58416 10.9641 6.58416C10.9641 6.58416 8.93039 3.60277 11.528 2.76425Z" fill="#2F2E41"/>
<path d="M89.1055 80.091H89.1264C89.9038 80.091 90.6907 80.0702 91.4651 80.029L91.4535 79.853C90.6828 79.8941 89.8998 79.9147 89.1262 79.9147H89.1054L89.1055 80.091ZM86.7452 80.0267L86.757 79.8507C85.978 79.8087 85.1909 79.7448 84.4175 79.6608L84.3939 79.8358C85.1713 79.9204 85.9624 79.9845 86.7445 80.0268L86.7452 80.0267ZM93.8167 79.8403C94.5952 79.7566 95.3808 79.6504 96.1515 79.5246L96.1165 79.351C95.3497 79.4761 94.5681 79.5818 93.7934 79.6657L93.8167 79.8403ZM82.0596 79.5177L82.0949 79.344C81.3277 79.2181 80.5549 79.0691 79.798 78.9015L79.7512 79.0727C80.5114 79.2411 81.2886 79.3908 82.0598 79.5175L82.0596 79.5177ZM98.4607 79.0814C99.2219 78.9137 99.9875 78.7225 100.736 78.5135L100.678 78.345C99.9326 78.5532 99.1713 78.7432 98.4138 78.9103L98.4607 79.0814ZM77.4766 78.5021L77.535 78.3337C76.7915 78.1251 76.045 77.8929 75.3152 77.6434L75.2456 77.8084C75.9787 78.0593 76.7295 78.2929 77.4766 78.5025V78.5021ZM102.973 77.8206C103.706 77.5707 104.441 77.2968 105.158 77.0066L105.077 76.8456C104.364 77.1345 103.633 77.4067 102.903 77.6555L102.973 77.8206ZM73.0679 76.9952L73.1485 76.8343C72.4387 76.5469 71.7293 76.2347 71.0399 75.9084L70.9487 76.0643C71.6416 76.3929 72.3545 76.7061 73.0679 76.9956V76.9952ZM107.283 76.0745C107.978 75.7461 108.671 75.3942 109.341 75.0287L109.24 74.8782C108.573 75.2417 107.884 75.5919 107.192 75.9189L107.283 76.0745ZM68.8948 75.0202L68.9962 74.8697C68.3296 74.5063 67.6666 74.1197 67.0259 73.721L66.9144 73.866C67.5589 74.2664 68.2258 74.6549 68.8948 75.0202ZM111.324 73.8736C111.97 73.4721 112.61 73.0478 113.227 72.6128L113.105 72.4739C112.491 72.907 111.854 73.329 111.212 73.7285L111.324 73.8736ZM65.0147 72.6057L65.1363 72.4668C64.5212 72.0324 63.9143 71.5774 63.3326 71.1122L63.2025 71.2441C63.7872 71.7107 64.3971 72.1685 65.0153 72.6051L65.0147 72.6057ZM115.041 71.2511C115.628 70.7831 116.207 70.2933 116.761 69.7947L116.622 69.67C116.071 70.1659 115.495 70.6535 114.911 71.1192L115.041 71.2511ZM61.4831 69.787L61.6216 69.6623C61.0693 69.1654 60.5269 68.6475 60.0099 68.1229L59.8633 68.24C60.3827 68.7672 60.9276 69.2877 61.4826 69.787H61.4831ZM118.38 68.2479C118.901 67.7199 119.41 67.1712 119.893 66.6172L119.739 66.5077C119.258 67.0589 118.751 67.6048 118.234 68.1303L118.38 68.2479ZM58.3508 66.6094L58.5052 66.4999C58.0224 65.9462 57.5532 65.3731 57.1103 64.7971L56.9492 64.8974C57.394 65.477 57.8657 66.0529 58.3508 66.6094ZM121.295 64.9094C121.741 64.3292 122.173 63.7299 122.579 63.1282L122.412 63.0365C122.008 63.6355 121.578 64.2318 121.134 64.8091L121.295 64.9094ZM55.664 63.1134L55.8312 63.0221C55.4265 62.421 55.0371 61.8012 54.6739 61.1797L54.5005 61.2618C54.8659 61.886 55.2566 62.509 55.664 63.1134ZM123.741 61.2807C124.106 60.6571 124.454 60.0155 124.776 59.3739L124.598 59.3013C124.277 59.9397 123.931 60.578 123.567 61.1983L123.741 61.2807ZM53.4642 59.3493L53.643 59.2769C53.3213 58.6338 53.0181 57.9762 52.742 57.3203L52.5587 57.3829C52.8364 58.0416 53.1411 58.7032 53.4644 59.3489L53.4642 59.3493ZM125.681 57.4151C125.96 56.7556 126.22 56.08 126.453 55.4071L126.266 55.3544C126.034 56.0239 125.775 56.6962 125.498 57.3521L125.681 57.4151ZM51.787 55.3708L51.9742 55.3184C51.7425 54.648 51.5307 53.9629 51.3449 53.2816L51.1547 53.3236C51.3416 54.0083 51.5543 54.6971 51.787 55.3707V55.3708ZM127.088 53.3604C127.276 52.6762 127.442 51.9775 127.584 51.2829L127.391 51.2512C127.25 51.9422 127.084 52.6375 126.898 53.318L127.088 53.3604ZM50.6615 51.2456L50.8544 51.2138C50.7151 50.5238 50.5972 49.8206 50.5047 49.1236L50.3103 49.1447C50.403 49.845 50.5215 50.5524 50.6615 51.2454V51.2456ZM127.938 49.1824C128.032 48.483 128.104 47.7712 128.151 47.0665L127.956 47.0558C127.908 47.7568 127.837 48.4652 127.743 49.1611L127.938 49.1824ZM50.0986 47.0284L50.2941 47.018C50.2485 46.3183 50.2245 45.6075 50.2245 44.9048V44.8303H50.0285V44.9048C50.0285 45.6109 50.0521 46.3253 50.0986 47.0284ZM128.028 44.9423H128.224V44.905C128.224 44.2111 128.202 43.5093 128.157 42.8189L127.961 42.8293C128.006 43.5163 128.029 44.2147 128.029 44.9051L128.028 44.9423ZM50.2993 42.7171C50.3474 42.0153 50.4197 41.3069 50.514 40.6119L50.3195 40.5906C50.2247 41.2891 50.1523 42.0009 50.1036 42.7063L50.2993 42.7171ZM127.754 40.7235L127.948 40.7027C127.856 40.0021 127.738 39.2951 127.599 38.6014L127.406 38.6327C127.545 39.323 127.662 40.0264 127.754 40.7235V40.7235ZM50.8696 38.5223C51.0115 37.8303 51.1781 37.1349 51.3653 36.4561L51.1751 36.4137C50.987 37.0965 50.8194 37.7957 50.6768 38.4907L50.8696 38.5223ZM126.918 36.5644L127.108 36.5225C126.922 35.8383 126.71 35.1487 126.478 34.4747L126.291 34.5268C126.522 35.1973 126.733 35.883 126.917 36.5644H126.918ZM51.9993 34.4201C52.2324 33.7505 52.4918 33.0785 52.7698 32.4224L52.5874 32.3596C52.3078 33.0184 52.047 33.6938 51.812 34.3669L51.9993 34.4201ZM125.526 32.5238L125.709 32.4614C125.432 31.8013 125.128 31.1396 124.806 30.4944L124.627 30.5668C124.947 31.2087 125.25 31.8671 125.526 32.5238ZM53.6722 30.4746C53.9933 29.8364 54.3412 29.1985 54.7047 28.5785L54.5314 28.4964C54.1656 29.1194 53.8168 29.7606 53.4939 30.4021L53.6722 30.4746ZM123.598 28.6634L123.772 28.5813C123.408 27.9572 123.017 27.3338 122.611 26.7285L122.443 26.8197C122.847 27.4222 123.236 28.0424 123.598 28.6634ZM55.8633 26.7416C56.2677 26.1434 56.6983 25.5474 57.143 24.9703L56.9818 24.8698C56.5348 25.4498 56.1023 26.0487 55.6959 26.6501L55.8633 26.7416ZM121.167 25.0429L121.328 24.9426C120.883 24.3625 120.412 23.7863 119.928 23.2299L119.774 23.3385C120.254 23.8924 120.724 24.4657 121.167 25.0429ZM58.5392 23.2709C59.0221 22.7192 59.5293 22.1738 60.0467 21.6497L59.9001 21.5326C59.3802 22.059 58.8705 22.6071 58.3853 23.1619L58.5392 23.2709ZM118.269 21.7135L118.416 21.5965C117.897 21.0684 117.352 20.5473 116.799 20.0481L116.66 20.1727C117.211 20.6695 117.753 21.1878 118.269 21.7135ZM61.6591 20.1126C62.2128 19.6162 62.7891 19.1291 63.3722 18.6651L63.2425 18.533C62.6565 18.9993 62.0771 19.4888 61.5209 19.9878L61.6591 20.1126ZM114.951 18.7216L115.082 18.5897C114.497 18.122 113.887 17.6636 113.27 17.2271L113.149 17.3657C113.762 17.8 114.369 18.2562 114.951 18.7216ZM65.1789 17.3122C65.793 16.8798 66.4303 16.4584 67.0735 16.0596L66.962 15.9144C66.3159 16.3151 65.6753 16.7388 65.0583 17.1732L65.1789 17.3122ZM111.26 16.1098L111.372 15.9647C110.728 15.5631 110.062 15.174 109.393 14.8084L109.291 14.9589C109.957 15.3227 110.62 15.7099 111.26 16.1096V16.1098ZM69.0487 14.9118C69.7176 14.5484 70.407 14.1991 71.0976 13.8733L71.0063 13.717C70.3121 14.0445 69.6193 14.3956 68.9469 14.7608L69.0487 14.9118ZM107.25 13.9179L107.341 13.7619C106.648 13.4335 105.936 13.1188 105.223 12.8291L105.142 12.9898C105.851 13.2785 106.56 13.5907 107.249 13.9179H107.25ZM73.2128 12.9486C73.926 12.6612 74.6572 12.3888 75.3877 12.1413L75.3184 11.9763C74.5846 12.2256 73.8494 12.4987 73.1325 12.7882L73.2128 12.9486ZM102.976 12.179L103.046 12.0149C102.313 11.7635 101.562 11.5294 100.815 11.3189L100.757 11.4872C101.501 11.6959 102.248 11.9289 102.977 12.179H102.976ZM77.6142 11.4538C78.3592 11.2464 79.1213 11.057 79.8786 10.8908L79.8321 10.7195C79.0718 10.8864 78.3054 11.0769 77.5563 11.2854L77.6142 11.4538ZM98.4946 10.9175L98.5417 10.7463C97.7806 10.5769 97.004 10.4265 96.2336 10.2993L96.1981 10.4728C96.9646 10.5993 97.7373 10.749 98.494 10.9176L98.4946 10.9175ZM82.1765 10.4523C82.9425 10.3279 83.7242 10.2228 84.4999 10.1401L84.4769 9.965C83.6973 10.0481 82.9117 10.1536 82.1417 10.2786L82.1765 10.4523ZM93.876 10.1536L93.8997 9.97841C93.1229 9.8933 92.332 9.8279 91.5487 9.78521L91.5368 9.96117C92.3162 10.004 93.1029 10.0686 93.876 10.1527V10.1536ZM86.8403 9.95487C87.5971 9.91547 88.3662 9.89549 89.1264 9.89549H89.1887V9.71912H89.1264C88.3625 9.71912 87.5894 9.73923 86.829 9.77891L86.8403 9.95487Z" fill="#3F3B56"/>
<path d="M49.6784 67.2223H72.9124V82.9044H49.6784V67.2223Z" fill="#46FF9F"/>
<path d="M52.5824 71.4042H70.0079V72.4497H52.5824V71.4042Z" fill="white"/>
<path d="M52.5824 74.5406H70.0079V75.5862H52.5824V74.5406Z" fill="white"/>
<path d="M52.5824 77.6771H70.0079V78.7226H52.5824V77.6771Z" fill="white"/>
<path d="M112.452 8.35059H128.681V19.3044H112.452V8.35059Z" fill="#E6E6E6"/>
<path d="M114.48 11.2716H126.652V12.0019H114.48V11.2716Z" fill="white"/>
<path d="M114.48 13.4623H126.652V14.1925H114.48V13.4623Z" fill="white"/>
<path d="M114.48 15.6531H126.652V16.3833H114.48V15.6531Z" fill="white"/>
<path d="M105.555 14.0099H121.784V24.9637H105.555V14.0099Z" fill="#46FF9F"/>
<path d="M107.583 16.931H119.755V17.6613H107.583V16.931Z" fill="white"/>
<path d="M107.583 19.1218H119.755V19.8521H107.583V19.1218Z" fill="white"/>
<path d="M107.583 21.3124H119.755V22.0426H107.583V21.3124Z" fill="white"/>
<path d="M66.9515 59.7986H111.196V29.9696H66.9515V59.7986ZM110.74 30.3801V59.3881H67.4077V30.3801H110.74Z" fill="#E6E6E6"/>
<path d="M89.0878 52.5216C84.4351 52.5216 80.6633 49.1272 80.6633 44.94C80.6633 40.7528 84.4351 37.3584 89.0878 37.3584C93.7405 37.3584 97.5123 40.7528 97.5123 44.94C97.5123 49.1272 93.7405 52.5216 89.0878 52.5216Z" fill="#46FF9F"/>
<path d="M85.5893 44.3035H88.4536V41.7257C88.4536 41.5648 88.5247 41.4106 88.6511 41.2968C88.7775 41.183 88.9489 41.1191 89.1277 41.1191V41.1191C89.3064 41.1191 89.4778 41.183 89.6042 41.2968C89.7306 41.4106 89.8017 41.5648 89.8017 41.7257V44.3035H92.666C92.8447 44.3035 93.0162 44.3674 93.1426 44.4811C93.269 44.5949 93.34 44.7491 93.34 44.91V44.91C93.34 45.0709 93.269 45.2252 93.1426 45.3389C93.0162 45.4527 92.8447 45.5166 92.666 45.5166H89.8017V48.0943C89.8017 48.2552 89.7306 48.4095 89.6042 48.5232C89.4778 48.637 89.3064 48.7009 89.1277 48.7009V48.7009C88.9489 48.7009 88.7775 48.637 88.6511 48.5232C88.5247 48.4095 88.4536 48.2552 88.4536 48.0943V45.5166H85.5893C85.4106 45.5166 85.2391 45.4527 85.1127 45.3389C84.9863 45.2252 84.9153 45.0709 84.9153 44.91V44.91C84.9153 44.7491 84.9863 44.5949 85.1127 44.4811C85.2391 44.3674 85.4106 44.3035 85.5893 44.3035V44.3035Z" fill="black"/>
<path d="M113.668 64.5876H129.897V75.5414H113.668V64.5876Z" fill="#E6E6E6"/>
<path d="M115.697 67.5088H127.869V68.2391H115.697V67.5088Z" fill="white"/>
<path d="M115.697 69.6993H127.869V70.4296H115.697V69.6993Z" fill="white"/>
<path d="M115.697 71.8903H127.869V72.6205H115.697V71.8903Z" fill="white"/>
</svg>
