<svg width="1828" height="1192" viewBox="0 0 1828 1192" fill="none" xmlns="http://www.w3.org/2000/svg">
 <path d="M1718.94 1064.59V1090.45L1416.38 1093.23L1413.15 1093.29L1298.16 1094.35L1295.41 1094.39L1260.45 1094.68H1259.42L1046.36 1096.65L696.607 1099.9H696.308L607.382 1100.73L606.426 1100.75L211.289 1104.37V1074.53L304.198 1018.83L490.614 1017.28L494.597 1017.26L495.912 1017.24L499.895 1017.18L589.398 1016.45L593.401 1016.43L594.676 1016.41L598.659 1016.39L627.358 1016.15L628.115 1016.13L698.917 1015.53H699.495L1251.97 1010.88L1265.49 1010.78H1266.85L1277.16 1010.68L1352.15 1010.06L1356.13 1010L1359.82 1009.96H1361.73L1385.05 1009.78L1389.67 1009.72L1395.86 1009.68L1415.28 1009.5L1446.09 1009.24L1450.08 1009.2L1457.01 1009.17H1458.3L1607.1 1007.89L1718.94 1064.59Z" fill="#CCCCCC"/>
<path d="M855.42 921.215V1002.77C855.422 1006.63 854.043 1010.41 851.442 1013.68C848.841 1016.94 845.125 1019.56 840.726 1021.21C837.45 1022.47 833.869 1023.16 830.23 1023.21L683.705 1025.68C679.792 1025.75 675.91 1025.1 672.369 1023.78C667.892 1022.15 664.1 1019.54 661.443 1016.25C658.785 1012.96 657.375 1009.14 657.381 1005.23V921.215H855.42Z" fill="#CCCCCC"/>
<path d="M1207.49 356.899V910.664C1207.44 914.044 1205.72 917.279 1202.69 919.7C1199.65 922.121 1195.54 923.542 1191.19 923.668L380.003 940.459H379.792C375.374 940.416 371.154 939.033 368.03 936.603C364.906 934.173 363.127 930.89 363.073 927.454V356.899C363.127 353.463 364.906 350.18 368.03 347.751C371.154 345.321 375.374 343.937 379.792 343.894H1190.77C1195.19 343.937 1199.41 345.321 1202.53 347.751C1205.66 350.18 1207.44 353.463 1207.49 356.899V356.899Z" fill="#CCCCCC"/>
<path d="M415.625 379.73H1169.09V869.922L415.625 883.148V379.73Z" fill="white"/>
<path opacity="0.1" d="M1718.94 1064.59V1090.45L1416.38 1093.23L1413.15 1093.29L1298.16 1094.35L1295.41 1094.39L1260.45 1094.69H1259.42L1046.36 1096.66L696.607 1099.9H696.308L607.382 1100.73L606.426 1100.75L211.289 1104.37V1074.53L614.612 1071.89H615.568L697.205 1071.33H697.583L1261.37 1067.61H1261.95L1262.29 1067.59H1263.22L1272.76 1067.53H1275.67L1424.03 1066.54L1432.79 1066.5L1434.74 1066.48L1718.94 1064.59Z" fill="#737373"/>
<path d="M871.913 1028L640.913 1031.41V1001.82L871.913 998.408V1028Z" fill="#CCCCCC"/>
<mask id="path-8-inside-1" fill="white">
<path d="M785.188 834.245C783.209 834.23 781.208 834.216 779.242 834.155L779.303 832.174C781.248 832.234 783.238 832.261 785.188 832.263C787.148 832.263 789.144 832.231 791.125 832.167L791.189 834.148C789.186 834.212 787.168 834.245 785.188 834.245ZM767.322 833.408C763.374 833.035 759.388 832.528 755.473 831.904L755.786 829.947C759.659 830.565 763.603 831.066 767.509 831.436L767.322 833.408ZM803.107 833.387L802.919 831.415C806.823 831.041 810.767 830.535 814.64 829.912L814.956 831.868C811.04 832.498 807.054 833.009 803.107 833.387ZM743.744 829.642C739.879 828.767 735.99 827.752 732.185 826.629L732.747 824.728C736.511 825.84 740.358 826.843 744.182 827.709L743.744 829.642ZM826.681 829.593L826.241 827.661C830.074 826.787 833.92 825.78 837.672 824.666L838.237 826.567C834.444 827.692 830.556 828.711 826.681 829.593ZM720.844 822.878C717.114 821.508 713.382 820 709.752 818.395L710.555 816.583C714.146 818.17 717.837 819.663 721.527 821.018L720.844 822.878ZM849.573 822.8L848.887 820.94C852.555 819.59 856.234 818.099 859.821 816.508L860.626 818.319C856.998 819.928 853.28 821.436 849.573 822.8ZM698.977 813.207C695.467 811.376 691.962 809.402 688.56 807.341L689.588 805.645C692.954 807.686 696.422 809.638 699.894 811.45L698.977 813.207ZM871.371 813.135L870.453 811.378C873.918 809.568 877.377 807.616 880.734 805.576L881.765 807.27C878.371 809.331 874.875 811.304 871.371 813.135ZM678.543 800.82C675.292 798.552 672.07 796.147 668.966 793.674L670.202 792.123C673.274 794.572 676.462 796.951 679.678 799.194L678.543 800.82ZM891.765 800.749L890.628 799.125C893.844 796.879 897.027 794.5 900.091 792.054L901.328 793.603C898.232 796.075 895.014 798.479 891.765 800.749ZM659.866 785.93C656.927 783.264 654.038 780.47 651.28 777.628L652.703 776.248C655.432 779.06 658.291 781.824 661.199 784.463L659.866 785.93ZM910.419 785.862L909.085 784.394C911.986 781.761 914.842 778.995 917.576 776.176L918.999 777.554C916.238 780.404 913.35 783.199 910.419 785.862ZM643.241 768.798C640.668 765.782 638.159 762.645 635.784 759.475L637.371 758.286C639.722 761.424 642.204 764.528 644.75 767.51L643.241 768.798ZM927.036 768.715L925.527 767.43C928.073 764.444 930.555 761.337 932.905 758.195L934.493 759.382C932.118 762.557 929.609 765.698 927.036 768.715ZM628.938 749.696C626.768 746.376 624.681 742.947 622.732 739.504L624.459 738.529C626.386 741.935 628.451 745.328 630.598 748.612L628.938 749.696ZM941.342 749.589L939.68 748.507C941.828 745.215 943.893 741.816 945.821 738.403L947.548 739.377C945.6 742.828 943.512 746.263 941.342 749.589ZM617.195 728.938C615.47 725.371 613.839 721.705 612.35 718.041L614.187 717.296C615.661 720.919 617.273 724.546 618.98 728.075L617.195 728.938ZM953.088 728.783L951.302 727.922C953.008 724.388 954.621 720.751 956.097 717.11L957.935 717.853C956.444 721.534 954.813 725.211 953.088 728.783ZM608.211 706.841C606.957 703.076 605.811 699.225 604.805 695.394L606.723 694.891C607.718 698.68 608.852 702.49 610.092 706.213L608.211 706.841ZM962.066 706.63L960.184 706.007C961.418 702.288 962.548 698.477 963.54 694.68L965.459 695.182C964.455 699.02 963.314 702.872 962.066 706.63ZM602.144 683.756C601.387 679.867 600.746 675.902 600.239 671.97L602.205 671.717C602.707 675.607 603.341 679.53 604.091 683.376L602.144 683.756ZM968.105 683.538L966.159 683.163C966.903 679.317 967.533 675.392 968.03 671.499L969.997 671.75C969.495 675.685 968.858 679.651 968.105 683.538ZM599.092 660.088C598.838 656.137 598.707 652.122 598.703 648.153L600.686 648.151C600.69 652.078 600.82 656.051 601.071 659.96L599.092 660.088ZM971.13 659.866L969.151 659.74C969.398 655.835 969.523 651.862 969.523 647.934L969.522 647.5H971.505L971.506 647.927C971.506 651.904 971.379 655.918 971.13 659.866ZM601.044 636.344L599.065 636.222C599.311 632.264 599.687 628.265 600.183 624.335L602.151 624.583C601.659 628.472 601.287 632.428 601.044 636.344ZM969.124 635.693C968.866 631.776 968.48 627.82 967.976 623.938L969.941 623.682C970.452 627.607 970.843 631.604 971.103 635.564L969.124 635.693ZM604.008 612.919L602.061 612.545C602.809 608.655 603.695 604.737 604.693 600.899L606.612 601.398C605.624 605.194 604.748 609.07 604.008 612.919ZM966.075 612.28C965.32 608.429 964.429 604.556 963.43 600.768L965.347 600.263C966.358 604.092 967.257 608.006 968.021 611.899L966.075 612.28ZM609.955 590.068L608.072 589.447C609.317 585.68 610.702 581.903 612.191 578.218L614.03 578.96C612.557 582.605 611.186 586.342 609.955 590.068ZM960.049 589.45C958.803 585.73 957.422 582.003 955.941 578.374L957.777 577.626C959.274 581.294 960.671 585.061 961.929 588.821L960.049 589.45ZM618.813 568.14L617.026 567.281C618.746 563.707 620.606 560.14 622.553 556.682L624.282 557.654C622.354 561.076 620.515 564.604 618.813 568.14ZM951.136 567.6C949.428 564.08 947.581 560.565 945.645 557.152L947.37 556.175C949.327 559.624 951.194 563.177 952.919 566.735L951.136 567.6ZM630.411 547.542L628.748 546.461C630.911 543.139 633.211 539.841 635.584 536.66L637.174 537.845C634.826 540.992 632.55 544.255 630.411 547.542ZM939.493 547.076C937.348 543.8 935.065 540.548 932.709 537.409L934.295 536.22C936.677 539.392 938.984 542.68 941.153 545.99L939.493 547.076ZM644.542 528.602L643.031 527.319C645.599 524.299 648.299 521.322 651.056 518.471L652.482 519.848C649.755 522.669 647.083 525.615 644.542 528.602ZM925.319 528.194C922.77 525.214 920.089 522.278 917.355 519.465L918.776 518.084C921.541 520.926 924.249 523.894 926.826 526.906L925.319 528.194ZM660.963 511.619L659.628 510.154C662.562 507.482 665.618 504.873 668.709 502.401L669.949 503.948C666.89 506.395 663.866 508.976 660.963 511.619ZM908.849 511.259C905.941 508.628 902.91 506.055 899.836 503.611L901.072 502.06C904.177 504.53 907.241 507.131 910.179 509.79L908.849 511.259ZM679.403 496.866L678.266 495.243C681.51 492.97 684.872 490.773 688.258 488.712L689.289 490.404C685.94 492.444 682.614 494.618 679.403 496.866ZM890.353 496.551C887.125 494.305 883.788 492.138 880.435 490.11L881.462 488.415C884.851 490.464 888.224 492.654 891.486 494.924L890.353 496.551ZM699.564 484.59L698.644 482.834C702.149 480.996 705.763 479.248 709.383 477.637L710.189 479.448C706.608 481.041 703.033 482.771 699.564 484.59ZM870.122 484.318C866.64 482.506 863.052 480.784 859.456 479.199L860.257 477.385C863.89 478.987 867.518 480.728 871.038 482.559L870.122 484.318ZM721.118 475.002L720.43 473.142C724.148 471.768 727.961 470.496 731.762 469.363L732.328 471.263C728.568 472.383 724.796 473.641 721.118 475.002ZM848.478 474.777C844.793 473.429 841.016 472.184 837.255 471.078L837.814 469.176C841.617 470.295 845.434 471.553 849.16 472.915L848.478 474.777ZM743.756 468.256L743.314 466.324C747.172 465.44 751.116 464.67 755.037 464.034L755.355 465.991C751.475 466.62 747.573 467.382 743.756 468.256ZM825.816 468.111C821.992 467.25 818.087 466.502 814.209 465.887L814.52 463.93C818.439 464.551 822.386 465.307 826.251 466.178L825.816 468.111ZM767.075 464.474L766.883 462.502C770.82 462.12 774.83 461.859 778.801 461.727L778.867 463.708C774.937 463.839 770.97 464.096 767.075 464.474ZM802.484 464.412C798.583 464.048 794.614 463.804 790.689 463.688L790.748 461.707C794.715 461.825 798.726 462.071 802.668 462.439L802.484 464.412Z"/>
</mask>
<path d="M785.188 834.245C783.209 834.23 781.208 834.216 779.242 834.155L779.303 832.174C781.248 832.234 783.238 832.261 785.188 832.263C787.148 832.263 789.144 832.231 791.125 832.167L791.189 834.148C789.186 834.212 787.168 834.245 785.188 834.245ZM767.322 833.408C763.374 833.035 759.388 832.528 755.473 831.904L755.786 829.947C759.659 830.565 763.603 831.066 767.509 831.436L767.322 833.408ZM803.107 833.387L802.919 831.415C806.823 831.041 810.767 830.535 814.64 829.912L814.956 831.868C811.04 832.498 807.054 833.009 803.107 833.387ZM743.744 829.642C739.879 828.767 735.99 827.752 732.185 826.629L732.747 824.728C736.511 825.84 740.358 826.843 744.182 827.709L743.744 829.642ZM826.681 829.593L826.241 827.661C830.074 826.787 833.92 825.78 837.672 824.666L838.237 826.567C834.444 827.692 830.556 828.711 826.681 829.593ZM720.844 822.878C717.114 821.508 713.382 820 709.752 818.395L710.555 816.583C714.146 818.17 717.837 819.663 721.527 821.018L720.844 822.878ZM849.573 822.8L848.887 820.94C852.555 819.59 856.234 818.099 859.821 816.508L860.626 818.319C856.998 819.928 853.28 821.436 849.573 822.8ZM698.977 813.207C695.467 811.376 691.962 809.402 688.56 807.341L689.588 805.645C692.954 807.686 696.422 809.638 699.894 811.45L698.977 813.207ZM871.371 813.135L870.453 811.378C873.918 809.568 877.377 807.616 880.734 805.576L881.765 807.27C878.371 809.331 874.875 811.304 871.371 813.135ZM678.543 800.82C675.292 798.552 672.07 796.147 668.966 793.674L670.202 792.123C673.274 794.572 676.462 796.951 679.678 799.194L678.543 800.82ZM891.765 800.749L890.628 799.125C893.844 796.879 897.027 794.5 900.091 792.054L901.328 793.603C898.232 796.075 895.014 798.479 891.765 800.749ZM659.866 785.93C656.927 783.264 654.038 780.47 651.28 777.628L652.703 776.248C655.432 779.06 658.291 781.824 661.199 784.463L659.866 785.93ZM910.419 785.862L909.085 784.394C911.986 781.761 914.842 778.995 917.576 776.176L918.999 777.554C916.238 780.404 913.35 783.199 910.419 785.862ZM643.241 768.798C640.668 765.782 638.159 762.645 635.784 759.475L637.371 758.286C639.722 761.424 642.204 764.528 644.75 767.51L643.241 768.798ZM927.036 768.715L925.527 767.43C928.073 764.444 930.555 761.337 932.905 758.195L934.493 759.382C932.118 762.557 929.609 765.698 927.036 768.715ZM628.938 749.696C626.768 746.376 624.681 742.947 622.732 739.504L624.459 738.529C626.386 741.935 628.451 745.328 630.598 748.612L628.938 749.696ZM941.342 749.589L939.68 748.507C941.828 745.215 943.893 741.816 945.821 738.403L947.548 739.377C945.6 742.828 943.512 746.263 941.342 749.589ZM617.195 728.938C615.47 725.371 613.839 721.705 612.35 718.041L614.187 717.296C615.661 720.919 617.273 724.546 618.98 728.075L617.195 728.938ZM953.088 728.783L951.302 727.922C953.008 724.388 954.621 720.751 956.097 717.11L957.935 717.853C956.444 721.534 954.813 725.211 953.088 728.783ZM608.211 706.841C606.957 703.076 605.811 699.225 604.805 695.394L606.723 694.891C607.718 698.68 608.852 702.49 610.092 706.213L608.211 706.841ZM962.066 706.63L960.184 706.007C961.418 702.288 962.548 698.477 963.54 694.68L965.459 695.182C964.455 699.02 963.314 702.872 962.066 706.63ZM602.144 683.756C601.387 679.867 600.746 675.902 600.239 671.97L602.205 671.717C602.707 675.607 603.341 679.53 604.091 683.376L602.144 683.756ZM968.105 683.538L966.159 683.163C966.903 679.317 967.533 675.392 968.03 671.499L969.997 671.75C969.495 675.685 968.858 679.651 968.105 683.538ZM599.092 660.088C598.838 656.137 598.707 652.122 598.703 648.153L600.686 648.151C600.69 652.078 600.82 656.051 601.071 659.96L599.092 660.088ZM971.13 659.866L969.151 659.74C969.398 655.835 969.523 651.862 969.523 647.934L969.522 647.5H971.505L971.506 647.927C971.506 651.904 971.379 655.918 971.13 659.866ZM601.044 636.344L599.065 636.222C599.311 632.264 599.687 628.265 600.183 624.335L602.151 624.583C601.659 628.472 601.287 632.428 601.044 636.344ZM969.124 635.693C968.866 631.776 968.48 627.82 967.976 623.938L969.941 623.682C970.452 627.607 970.843 631.604 971.103 635.564L969.124 635.693ZM604.008 612.919L602.061 612.545C602.809 608.655 603.695 604.737 604.693 600.899L606.612 601.398C605.624 605.194 604.748 609.07 604.008 612.919ZM966.075 612.28C965.32 608.429 964.429 604.556 963.43 600.768L965.347 600.263C966.358 604.092 967.257 608.006 968.021 611.899L966.075 612.28ZM609.955 590.068L608.072 589.447C609.317 585.68 610.702 581.903 612.191 578.218L614.03 578.96C612.557 582.605 611.186 586.342 609.955 590.068ZM960.049 589.45C958.803 585.73 957.422 582.003 955.941 578.374L957.777 577.626C959.274 581.294 960.671 585.061 961.929 588.821L960.049 589.45ZM618.813 568.14L617.026 567.281C618.746 563.707 620.606 560.14 622.553 556.682L624.282 557.654C622.354 561.076 620.515 564.604 618.813 568.14ZM951.136 567.6C949.428 564.08 947.581 560.565 945.645 557.152L947.37 556.175C949.327 559.624 951.194 563.177 952.919 566.735L951.136 567.6ZM630.411 547.542L628.748 546.461C630.911 543.139 633.211 539.841 635.584 536.66L637.174 537.845C634.826 540.992 632.55 544.255 630.411 547.542ZM939.493 547.076C937.348 543.8 935.065 540.548 932.709 537.409L934.295 536.22C936.677 539.392 938.984 542.68 941.153 545.99L939.493 547.076ZM644.542 528.602L643.031 527.319C645.599 524.299 648.299 521.322 651.056 518.471L652.482 519.848C649.755 522.669 647.083 525.615 644.542 528.602ZM925.319 528.194C922.77 525.214 920.089 522.278 917.355 519.465L918.776 518.084C921.541 520.926 924.249 523.894 926.826 526.906L925.319 528.194ZM660.963 511.619L659.628 510.154C662.562 507.482 665.618 504.873 668.709 502.401L669.949 503.948C666.89 506.395 663.866 508.976 660.963 511.619ZM908.849 511.259C905.941 508.628 902.91 506.055 899.836 503.611L901.072 502.06C904.177 504.53 907.241 507.131 910.179 509.79L908.849 511.259ZM679.403 496.866L678.266 495.243C681.51 492.97 684.872 490.773 688.258 488.712L689.289 490.404C685.94 492.444 682.614 494.618 679.403 496.866ZM890.353 496.551C887.125 494.305 883.788 492.138 880.435 490.11L881.462 488.415C884.851 490.464 888.224 492.654 891.486 494.924L890.353 496.551ZM699.564 484.59L698.644 482.834C702.149 480.996 705.763 479.248 709.383 477.637L710.189 479.448C706.608 481.041 703.033 482.771 699.564 484.59ZM870.122 484.318C866.64 482.506 863.052 480.784 859.456 479.199L860.257 477.385C863.89 478.987 867.518 480.728 871.038 482.559L870.122 484.318ZM721.118 475.002L720.43 473.142C724.148 471.768 727.961 470.496 731.762 469.363L732.328 471.263C728.568 472.383 724.796 473.641 721.118 475.002ZM848.478 474.777C844.793 473.429 841.016 472.184 837.255 471.078L837.814 469.176C841.617 470.295 845.434 471.553 849.16 472.915L848.478 474.777ZM743.756 468.256L743.314 466.324C747.172 465.44 751.116 464.67 755.037 464.034L755.355 465.991C751.475 466.62 747.573 467.382 743.756 468.256ZM825.816 468.111C821.992 467.25 818.087 466.502 814.209 465.887L814.52 463.93C818.439 464.551 822.386 465.307 826.251 466.178L825.816 468.111ZM767.075 464.474L766.883 462.502C770.82 462.12 774.83 461.859 778.801 461.727L778.867 463.708C774.937 463.839 770.97 464.096 767.075 464.474ZM802.484 464.412C798.583 464.048 794.614 463.804 790.689 463.688L790.748 461.707C794.715 461.825 798.726 462.071 802.668 462.439L802.484 464.412Z" fill="#D0CDE1" stroke="#CCCCCC" stroke-width="2" mask="url(#path-8-inside-1)"/>
<path d="M778.163 513.156C803.9 513.156 824.764 492.302 824.764 466.578C824.764 440.854 803.9 420 778.163 420C752.427 420 731.563 440.854 731.563 466.578C731.563 492.302 752.427 513.156 778.163 513.156Z" fill="#337BA2"/>
<path d="M958.617 640.006C984.354 640.006 1005.22 619.152 1005.22 593.428C1005.22 567.704 984.354 546.85 958.617 546.85C932.88 546.85 912.017 567.704 912.017 593.428C912.017 619.152 932.88 640.006 958.617 640.006Z" fill="#337BA2"/>
<path d="M946.742 578.584H944.641C943.527 578.584 942.458 579.026 941.67 579.815C940.882 580.603 940.439 581.672 940.439 582.787V590.143C940.439 593.209 941.657 596.149 943.824 598.317C945.99 600.485 948.929 601.702 951.994 601.702C955.059 601.702 957.998 600.485 960.165 598.317C962.331 596.149 963.549 593.209 963.549 590.143V582.787C963.549 581.672 963.106 580.603 962.318 579.815C961.53 579.026 960.461 578.584 959.347 578.584H957.246" stroke="white" stroke-width="5" stroke-linecap="round" stroke-linejoin="round"/>
<path d="M950.943 601.703C950.943 603.359 951.269 604.998 951.902 606.528C952.536 608.058 953.464 609.448 954.635 610.619C955.805 611.79 957.195 612.719 958.724 613.353C960.254 613.987 961.893 614.313 963.548 614.313C965.203 614.313 966.843 613.987 968.372 613.353C969.901 612.719 971.291 611.79 972.461 610.619C973.632 609.448 974.56 608.058 975.194 606.528C975.827 604.998 976.153 603.359 976.153 601.703V595.397" stroke="white" stroke-width="5" stroke-linecap="round" stroke-linejoin="round"/>
<path d="M957.246 576.482V580.685" stroke="white" stroke-width="5" stroke-linecap="round" stroke-linejoin="round"/>
<path d="M946.741 576.482V580.685" stroke="white" stroke-width="5" stroke-linecap="round" stroke-linejoin="round"/>
<path d="M976.154 595.397C978.474 595.397 980.355 593.515 980.355 591.194C980.355 588.872 978.474 586.99 976.154 586.99C973.833 586.99 971.952 588.872 971.952 591.194C971.952 593.515 973.833 595.397 976.154 595.397Z" stroke="white" stroke-width="5" stroke-linecap="round" stroke-linejoin="round"/>
<path d="M902.101 834.245C927.838 834.245 948.701 813.392 948.701 787.667C948.701 761.943 927.838 741.09 902.101 741.09C876.364 741.09 855.5 761.943 855.5 787.667C855.5 813.392 876.364 834.245 902.101 834.245Z" fill="#337BA2"/>
<path d="M678.022 842.173C703.759 842.173 724.622 821.32 724.622 795.595C724.622 769.871 703.759 749.018 678.022 749.018C652.285 749.018 631.421 769.871 631.421 795.595C631.421 821.32 652.285 842.173 678.022 842.173Z" fill="#337BA2"/>
<path d="M610.6 640.006C636.337 640.006 657.201 619.152 657.201 593.428C657.201 567.704 636.337 546.85 610.6 546.85C584.864 546.85 564 567.704 564 593.428C564 619.152 584.864 640.006 610.6 640.006Z" fill="#337BA2"/>
<path d="M798.134 462.864H781.879C780.401 462.864 778.984 462.277 777.939 461.233C776.894 460.188 776.307 458.771 776.307 457.294V441.047C776.307 440.986 776.294 440.926 776.271 440.87C776.248 440.813 776.214 440.762 776.17 440.719C776.127 440.676 776.076 440.642 776.02 440.619C775.963 440.595 775.903 440.583 775.842 440.583H765.161C763.19 440.583 761.3 441.366 759.906 442.759C758.513 444.151 757.73 446.04 757.73 448.01V485.145C757.73 487.115 758.513 489.004 759.906 490.397C761.3 491.79 763.19 492.572 765.161 492.572H791.168C793.138 492.572 795.028 491.79 796.422 490.397C797.816 489.004 798.598 487.115 798.598 485.145V463.328C798.598 463.267 798.586 463.207 798.563 463.151C798.54 463.094 798.505 463.043 798.462 463C798.419 462.957 798.368 462.923 798.312 462.9C798.255 462.876 798.195 462.864 798.134 462.864V462.864ZM787.452 481.432H768.876C768.383 481.432 767.911 481.236 767.562 480.888C767.214 480.54 767.018 480.067 767.018 479.575C767.018 479.083 767.214 478.61 767.562 478.262C767.911 477.914 768.383 477.718 768.876 477.718H787.452C787.945 477.718 788.418 477.914 788.766 478.262C789.114 478.61 789.31 479.083 789.31 479.575C789.31 480.067 789.114 480.54 788.766 480.888C788.418 481.236 787.945 481.432 787.452 481.432ZM787.452 472.148H768.876C768.383 472.148 767.911 471.952 767.562 471.604C767.214 471.256 767.018 470.784 767.018 470.291C767.018 469.799 767.214 469.327 767.562 468.978C767.911 468.63 768.383 468.434 768.876 468.434H787.452C787.945 468.434 788.418 468.63 788.766 468.978C789.114 469.327 789.31 469.799 789.31 470.291C789.31 470.784 789.114 471.256 788.766 471.604C788.418 471.952 787.945 472.148 787.452 472.148Z" fill="white"/>
<path d="M797.114 458.755L780.417 442.066C780.384 442.034 780.343 442.012 780.298 442.003C780.253 441.994 780.207 441.999 780.164 442.016C780.122 442.034 780.086 442.063 780.06 442.101C780.035 442.139 780.021 442.184 780.021 442.23V457.294C780.021 457.786 780.217 458.259 780.565 458.607C780.913 458.955 781.386 459.151 781.879 459.151H796.95C796.996 459.15 797.04 459.137 797.078 459.111C797.117 459.086 797.146 459.05 797.164 459.007C797.181 458.965 797.186 458.918 797.177 458.874C797.168 458.829 797.146 458.787 797.114 458.755L797.114 458.755Z" fill="white"/>
<path d="M661.985 820.906H658.608C657.937 820.906 657.293 820.639 656.818 820.165C656.343 819.69 656.076 819.046 656.076 818.375V803.189C656.076 802.518 656.343 801.874 656.818 801.399C657.293 800.924 657.937 800.658 658.608 800.658H661.985C662.656 800.658 663.301 800.924 663.775 801.399C664.25 801.874 664.517 802.518 664.517 803.189V818.375C664.517 819.046 664.25 819.69 663.775 820.165C663.301 820.639 662.656 820.906 661.985 820.906V820.906Z" fill="white"/>
<path d="M685.619 820.906H682.243C681.571 820.906 680.927 820.639 680.452 820.165C679.977 819.69 679.71 819.046 679.71 818.375V793.064C679.71 792.393 679.977 791.749 680.452 791.275C680.927 790.8 681.571 790.533 682.243 790.533H685.619C686.291 790.533 686.935 790.8 687.41 791.275C687.885 791.749 688.151 792.393 688.151 793.064V818.375C688.151 819.046 687.885 819.69 687.41 820.165C686.935 820.639 686.291 820.906 685.619 820.906V820.906Z" fill="white"/>
<path d="M697.436 820.906H694.06C693.388 820.906 692.744 820.64 692.27 820.165C691.795 819.69 691.528 819.047 691.528 818.375V781.253C691.528 780.582 691.795 779.938 692.27 779.463C692.744 778.989 693.388 778.722 694.06 778.722H697.436C698.108 778.722 698.752 778.989 699.227 779.463C699.702 779.938 699.969 780.582 699.969 781.253V818.375C699.969 819.047 699.702 819.69 699.227 820.165C698.752 820.64 698.108 820.906 697.436 820.906V820.906Z" fill="white"/>
<path d="M673.802 820.906H670.426C669.754 820.906 669.11 820.639 668.635 820.165C668.16 819.69 667.894 819.046 667.894 818.375V772.816C667.894 772.145 668.16 771.501 668.635 771.026C669.11 770.552 669.754 770.285 670.426 770.285H673.802C674.474 770.285 675.118 770.552 675.593 771.026C676.068 771.501 676.334 772.145 676.334 772.816V818.375C676.334 818.707 676.269 819.036 676.142 819.344C676.014 819.651 675.828 819.93 675.593 820.165C675.358 820.4 675.078 820.586 674.771 820.713C674.464 820.841 674.135 820.906 673.802 820.906V820.906Z" fill="white"/>
<path d="M617.999 590.655C617.633 590.655 617.276 590.546 616.971 590.343C616.667 590.14 616.43 589.851 616.29 589.513C616.15 589.175 616.114 588.804 616.185 588.445C616.256 588.087 616.432 587.757 616.691 587.499L620.932 583.259L616.691 579.02C616.344 578.673 616.149 578.203 616.149 577.713C616.149 577.222 616.344 576.752 616.691 576.406C617.038 576.059 617.509 575.864 617.999 575.864C618.49 575.864 618.96 576.059 619.307 576.406L624.856 581.952C625.028 582.124 625.164 582.327 625.257 582.552C625.35 582.776 625.398 583.016 625.398 583.259C625.398 583.502 625.35 583.742 625.257 583.967C625.164 584.191 625.028 584.395 624.856 584.567L619.307 590.113C619.135 590.285 618.932 590.421 618.707 590.514C618.483 590.607 618.242 590.655 617.999 590.655Z" fill="white"/>
<path d="M588.403 596.201C588.161 596.201 587.92 596.153 587.696 596.06C587.471 595.967 587.267 595.831 587.095 595.66C586.924 595.488 586.787 595.284 586.695 595.06C586.602 594.835 586.554 594.595 586.554 594.352V592.503C586.568 589.567 587.741 586.754 589.818 584.677C591.895 582.6 594.709 581.426 597.647 581.41H621.699C622.189 581.41 622.66 581.605 623.007 581.952C623.353 582.299 623.548 582.769 623.548 583.259C623.548 583.75 623.353 584.22 623.007 584.567C622.66 584.913 622.189 585.108 621.699 585.108H597.652C595.692 585.12 593.816 585.903 592.431 587.289C591.046 588.674 590.263 590.55 590.253 592.509V594.352C590.253 594.595 590.205 594.835 590.112 595.06C590.019 595.284 589.883 595.488 589.711 595.66C589.54 595.831 589.336 595.967 589.111 596.06C588.887 596.153 588.646 596.201 588.403 596.201V596.201Z" fill="white"/>
<path d="M603.202 610.992C602.959 610.992 602.718 610.945 602.494 610.852C602.269 610.759 602.065 610.622 601.894 610.45L596.345 604.904C596.173 604.732 596.037 604.529 595.944 604.304C595.851 604.08 595.803 603.84 595.803 603.597C595.803 603.354 595.851 603.114 595.944 602.889C596.037 602.665 596.173 602.461 596.345 602.289L601.894 596.743C602.241 596.397 602.711 596.202 603.201 596.203C603.692 596.203 604.162 596.398 604.508 596.744C604.855 597.091 605.05 597.561 605.05 598.051C605.05 598.541 604.856 599.011 604.51 599.358L600.268 603.597L604.51 607.836C604.768 608.094 604.944 608.424 605.016 608.783C605.087 609.141 605.051 609.513 604.911 609.851C604.771 610.189 604.534 610.477 604.229 610.68C603.925 610.884 603.568 610.992 603.202 610.992Z" fill="white"/>
<path d="M599.502 605.445C599.011 605.445 598.541 605.25 598.194 604.904C597.847 604.557 597.652 604.087 597.652 603.596C597.652 603.106 597.847 602.636 598.194 602.289C598.541 601.942 599.011 601.748 599.502 601.748H623.549C625.508 601.736 627.384 600.952 628.769 599.567C630.155 598.181 630.937 596.305 630.947 594.347V592.503C630.947 592.013 631.142 591.543 631.489 591.196C631.836 590.849 632.307 590.655 632.797 590.655C633.288 590.655 633.758 590.849 634.105 591.196C634.452 591.543 634.647 592.013 634.647 592.503V594.352C634.632 597.289 633.459 600.101 631.382 602.178C629.305 604.255 626.492 605.429 623.554 605.445L599.502 605.445Z" fill="white"/>
<path d="M895.748 773.279H891.546C890.432 773.279 889.363 773.721 888.575 774.51C887.787 775.298 887.344 776.367 887.344 777.482V802.702C887.344 803.817 887.787 804.886 888.575 805.675C889.363 806.463 890.432 806.906 891.546 806.906H912.555C913.669 806.906 914.738 806.463 915.526 805.675C916.314 804.886 916.757 803.817 916.757 802.702V777.482C916.757 776.367 916.314 775.298 915.526 774.51C914.738 773.721 913.669 773.279 912.555 773.279H908.353" stroke="white" stroke-width="5" stroke-linecap="round" stroke-linejoin="round"/>
<path d="M904.151 769.075H899.95C897.629 769.075 895.748 770.957 895.748 773.279C895.748 775.6 897.629 777.482 899.95 777.482H904.151C906.472 777.482 908.353 775.6 908.353 773.279C908.353 770.957 906.472 769.075 904.151 769.075Z" stroke="white" stroke-width="5" stroke-linecap="round" stroke-linejoin="round"/>
<path d="M897.848 792.194H906.251" stroke="white" stroke-width="5" stroke-linecap="round" stroke-linejoin="round"/>
<path d="M902.051 787.99V796.397" stroke="white" stroke-width="5" stroke-linecap="round" stroke-linejoin="round"/>
<ellipse cx="1324" cy="1053.5" rx="95" ry="2.5" fill="black" fill-opacity="0.2"/>
<path d="M1250.74 754.993C1249.78 756.563 1248.24 757.688 1246.45 758.121C1244.66 758.554 1242.78 758.26 1241.21 757.302L1160.3 707.952C1159.52 707.478 1158.85 706.856 1158.31 706.12C1157.77 705.384 1157.39 704.55 1157.17 703.665C1156.96 702.78 1156.92 701.862 1157.06 700.962C1157.2 700.062 1157.52 699.199 1157.99 698.422C1158.47 697.644 1159.09 696.968 1159.83 696.431C1160.56 695.894 1161.4 695.508 1162.28 695.293C1163.17 695.079 1164.08 695.041 1164.98 695.181C1165.88 695.322 1166.75 695.638 1167.52 696.113L1248.43 745.462C1250 746.42 1251.13 747.962 1251.56 749.749C1251.99 751.537 1251.7 753.423 1250.74 754.993V754.993Z" fill="#3F3D56"/>
<path d="M1169.83 705.643C1164.12 715.01 1155.76 722.473 1145.8 727.087C1135.85 731.701 1124.75 733.259 1113.91 731.565C1103.07 729.871 1092.97 725.001 1084.9 717.57C1076.83 710.139 1071.14 700.481 1068.56 689.818C1065.98 679.154 1066.61 667.964 1070.39 657.663C1074.17 647.361 1080.91 638.411 1089.77 631.944C1098.64 625.476 1109.22 621.782 1120.18 621.329C1131.14 620.875 1142 623.683 1151.36 629.396C1163.91 637.069 1172.9 649.406 1176.36 663.7C1179.83 677.994 1177.48 693.079 1169.83 705.643ZM1086.95 655.09C1082.67 662.115 1080.56 670.253 1080.9 678.475C1081.24 686.697 1084.01 694.633 1088.87 701.281C1093.72 707.928 1100.43 712.988 1108.15 715.82C1115.88 718.652 1124.27 719.13 1132.27 717.192C1140.27 715.255 1147.51 710.989 1153.08 704.935C1158.66 698.881 1162.31 691.31 1163.58 683.18C1164.85 675.049 1163.68 666.725 1160.22 659.259C1156.76 651.793 1151.17 645.521 1144.14 641.236C1134.72 635.503 1123.4 633.741 1112.68 636.339C1101.96 638.936 1092.71 645.68 1086.95 655.09V655.09Z" fill="#3F3D56"/>
<path d="M1325.21 673.352C1340.89 673.352 1353.6 660.644 1353.6 644.967C1353.6 629.29 1340.89 616.581 1325.21 616.581C1309.54 616.581 1296.83 629.29 1296.83 644.967C1296.83 660.644 1309.54 673.352 1325.21 673.352Z" fill="#DDA277"/>
<path d="M1323.38 804.099C1322.83 802.394 1322.65 800.592 1322.85 798.811C1323.05 797.031 1323.62 795.312 1324.53 793.768C1325.43 792.224 1326.66 790.889 1328.12 789.851C1329.58 788.813 1331.24 788.095 1333 787.744C1333.55 787.636 1334.12 787.566 1334.68 787.537L1364.58 739.547L1337.27 713.582C1336.23 712.59 1335.39 711.401 1334.81 710.084C1334.23 708.767 1333.91 707.347 1333.88 705.908C1333.85 704.468 1334.11 703.037 1334.64 701.697C1335.16 700.356 1335.95 699.134 1336.95 698.099C1337.95 697.065 1339.15 696.239 1340.47 695.669C1341.79 695.1 1343.22 694.798 1344.65 694.781C1346.09 694.764 1347.52 695.033 1348.86 695.572C1350.19 696.11 1351.41 696.908 1352.44 697.919L1390.15 735.103L1390.22 735.195C1391.39 736.97 1391.95 739.074 1391.83 741.194C1391.7 743.315 1390.9 745.339 1389.53 746.966L1347.64 796.515C1347.76 796.912 1347.87 797.316 1347.95 797.724C1348.3 799.481 1348.28 801.292 1347.88 803.038C1347.48 804.785 1346.72 806.428 1345.64 807.859C1344.56 809.29 1343.19 810.477 1341.63 811.343C1340.06 812.209 1338.32 812.733 1336.54 812.882C1336.18 812.914 1335.82 812.93 1335.46 812.93C1332.77 812.919 1330.16 812.059 1327.99 810.473C1325.82 808.887 1324.21 806.657 1323.38 804.099V804.099Z" fill="#DDA277"/>
<path d="M1278.46 1040.02L1264.29 1040.02L1257.55 985.372L1278.46 985.373L1278.46 1040.02Z" fill="#DDA277"/>
<path d="M1282.08 1053.76L1236.39 1053.76V1053.18C1236.39 1050.84 1236.85 1048.53 1237.74 1046.37C1238.64 1044.22 1239.95 1042.26 1241.6 1040.61C1243.25 1038.95 1245.21 1037.64 1247.37 1036.75C1249.52 1035.86 1251.84 1035.4 1254.17 1035.4H1254.17L1282.08 1035.4L1282.08 1053.76Z" fill="#855430"/>
<path d="M1419.29 1020.43L1407.12 1027.68L1373.37 984.174L1391.33 973.476L1419.29 1020.43Z" fill="#DDA277"/>
<path d="M1429.42 1030.39L1390.17 1053.76L1389.87 1053.26C1388.68 1051.26 1387.89 1049.03 1387.55 1046.72C1387.22 1044.41 1387.34 1042.06 1387.91 1039.79C1388.49 1037.53 1389.5 1035.4 1390.9 1033.53C1392.3 1031.66 1394.05 1030.08 1396.05 1028.89L1396.05 1028.89L1420.03 1014.61L1429.42 1030.39Z" fill="#855430"/>
<path d="M1255.76 1015.96C1246.27 904.191 1240.63 800.362 1275.32 758.007L1275.59 757.679L1333.99 781.037L1334.08 781.246C1334.28 781.675 1353.7 824.392 1349.17 853.125L1363.57 919.38L1410.54 998.016C1410.91 998.649 1411.15 999.356 1411.24 1000.09C1411.32 1000.82 1411.25 1001.56 1411.03 1002.26C1410.8 1002.97 1410.43 1003.61 1409.94 1004.16C1409.44 1004.71 1408.84 1005.15 1408.17 1005.44L1387.76 1014.42C1386.61 1014.93 1385.31 1015 1384.11 1014.62C1382.91 1014.25 1381.89 1013.45 1381.23 1012.38L1330.14 929.08L1301.29 865.184C1301.13 864.837 1300.86 864.552 1300.53 864.372C1300.19 864.191 1299.81 864.126 1299.43 864.187C1299.06 864.247 1298.71 864.429 1298.45 864.705C1298.19 864.982 1298.02 865.336 1297.98 865.715L1281.99 1016.07C1281.85 1017.35 1281.25 1018.53 1280.29 1019.39C1279.34 1020.25 1278.1 1020.72 1276.81 1020.72H1260.95C1259.65 1020.71 1258.39 1020.22 1257.44 1019.34C1256.48 1018.46 1255.88 1017.25 1255.76 1015.96V1015.96Z" fill="#337BA2"/>
<path d="M1275.52 758.893L1275.24 758.76L1275.2 758.454C1273.02 743.187 1275.6 726.224 1282.87 708.036C1286.46 699.134 1293.12 691.817 1301.65 687.416C1310.18 683.016 1320 681.826 1329.34 684.063V684.063C1334.71 685.387 1339.75 687.814 1344.14 691.189C1348.53 694.563 1352.17 698.813 1354.83 703.668C1357.46 708.473 1359.06 713.772 1359.53 719.228C1360 724.684 1359.34 730.178 1357.57 735.363C1348.4 762.176 1336.51 787.263 1336.39 787.514L1336.14 788.038L1275.52 758.893Z" fill="#46FF9F"/>
<path d="M1211.81 720.866C1213.22 719.756 1214.84 718.955 1216.58 718.517C1218.32 718.079 1220.13 718.012 1221.89 718.322C1223.65 718.632 1225.33 719.311 1226.82 720.315C1228.3 721.319 1229.56 722.625 1230.5 724.148C1230.8 724.631 1231.06 725.135 1231.28 725.655L1286.71 736.856L1301.46 702.181C1302.03 700.856 1302.85 699.656 1303.88 698.65C1304.91 697.644 1306.13 696.852 1307.46 696.32C1308.8 695.788 1310.23 695.526 1311.67 695.549C1313.11 695.573 1314.53 695.882 1315.85 696.458C1317.17 697.033 1318.36 697.865 1319.36 698.904C1320.36 699.944 1321.14 701.17 1321.66 702.513C1322.18 703.856 1322.43 705.288 1322.39 706.727C1322.35 708.167 1322.03 709.585 1321.44 710.899L1299.82 759.243L1299.76 759.347C1298.51 761.061 1296.73 762.325 1294.7 762.952C1292.67 763.578 1290.5 763.534 1288.49 762.825L1227.41 740.935C1227.08 741.191 1226.74 741.43 1226.39 741.65C1224.87 742.594 1223.16 743.205 1221.38 743.443C1219.61 743.682 1217.8 743.542 1216.09 743.034C1214.37 742.526 1212.78 741.661 1211.42 740.495C1210.06 739.329 1208.96 737.889 1208.19 736.269C1208.04 735.942 1207.9 735.611 1207.77 735.276C1206.84 732.755 1206.73 730.004 1207.46 727.416C1208.18 724.829 1209.71 722.536 1211.81 720.866V720.866Z" fill="#DDA277"/>
<path d="M1427.76 675.365C1425.02 670.521 1421.04 666.083 1415.77 664.293C1408.97 661.98 1401.61 664.442 1394.62 666.087C1389.23 667.353 1383.6 668.128 1378.17 667.06C1372.74 665.991 1367.5 662.831 1365.03 657.878C1361.4 650.593 1364.46 641.906 1364.24 633.767C1364.12 629.337 1363.01 624.99 1360.97 621.055C1358.93 617.119 1356.03 613.698 1352.47 611.048C1348.92 608.398 1344.81 606.59 1340.46 605.758C1336.11 604.927 1331.62 605.095 1327.34 606.249C1320.65 604.317 1314.59 604.138 1310.44 609.285C1305.23 609.285 1300.24 611.355 1296.55 615.04C1292.87 618.724 1290.8 623.722 1290.8 628.932H1309.58C1308.69 633.723 1309.71 638.671 1312.42 642.721C1315.74 647.594 1321.5 651.118 1322.61 656.907C1323.69 662.516 1319.88 667.838 1315.88 671.916C1311.88 675.993 1307.24 680.033 1305.99 685.606C1305.22 689.837 1306.09 694.201 1308.42 697.816C1310.74 701.388 1313.62 704.562 1316.96 707.219C1331.96 720.076 1349.8 729.201 1369.01 733.847C1382.53 737.104 1397.33 737.948 1409.89 731.957C1414.91 729.56 1419.39 726.157 1423.04 721.957C1426.69 717.757 1429.44 712.851 1431.12 707.544C1432.79 702.236 1433.36 696.641 1432.78 691.106C1432.2 685.57 1430.49 680.212 1427.76 675.365V675.365Z" fill="#855430"/>
</svg>
