<svg width="112" height="90" viewBox="0 0 112 90" fill="none" xmlns="http://www.w3.org/2000/svg">
<g clip-path="url(#clip0)">
<path d="M110.989 90.0001H74.4088V89.7012H111.043L110.989 90.0001Z" fill="#3F3D56"/>
<path d="M0.966304 1.93475C1.50037 1.93475 1.93331 1.5018 1.93331 0.967739C1.93331 0.433676 1.50037 0.000732422 0.966304 0.000732422C0.432241 0.000732422 -0.000701904 0.433676 -0.000701904 0.967739C-0.000701904 1.5018 0.432241 1.93475 0.966304 1.93475Z" fill="#E6E6E6"/>
<path d="M5.86193 1.93414C6.396 1.93414 6.82894 1.50119 6.82894 0.967129C6.82894 0.433066 6.396 0.00012207 5.86193 0.00012207C5.32787 0.00012207 4.89493 0.433066 4.89493 0.967129C4.89493 1.50119 5.32787 1.93414 5.86193 1.93414Z" fill="#E6E6E6"/>
<path d="M10.7569 1.93414C11.291 1.93414 11.7239 1.50119 11.7239 0.967129C11.7239 0.433066 11.291 0.00012207 10.7569 0.00012207C10.2229 0.00012207 9.78992 0.433066 9.78992 0.967129C9.78992 1.50119 10.2229 1.93414 10.7569 1.93414Z" fill="#E6E6E6"/>
<path d="M15.6519 1.93414C16.186 1.93414 16.6189 1.50119 16.6189 0.967129C16.6189 0.433066 16.186 0.00012207 15.6519 0.00012207C15.1179 0.00012207 14.6849 0.433066 14.6849 0.967129C14.6849 1.50119 15.1179 1.93414 15.6519 1.93414Z" fill="#E6E6E6"/>
<path d="M20.5467 1.93414C21.0808 1.93414 21.5137 1.50119 21.5137 0.967129C21.5137 0.433066 21.0808 0.00012207 20.5467 0.00012207C20.0127 0.00012207 19.5797 0.433066 19.5797 0.967129C19.5797 1.50119 20.0127 1.93414 20.5467 1.93414Z" fill="#E6E6E6"/>
<path d="M25.4417 1.93414C25.9758 1.93414 26.4087 1.50119 26.4087 0.967129C26.4087 0.433066 25.9758 0.00012207 25.4417 0.00012207C24.9076 0.00012207 24.4747 0.433066 24.4747 0.967129C24.4747 1.50119 24.9076 1.93414 25.4417 1.93414Z" fill="#E6E6E6"/>
<path d="M30.3367 1.93414C30.8708 1.93414 31.3037 1.50119 31.3037 0.967129C31.3037 0.433066 30.8708 0.00012207 30.3367 0.00012207C29.8027 0.00012207 29.3697 0.433066 29.3697 0.967129C29.3697 1.50119 29.8027 1.93414 30.3367 1.93414Z" fill="#E6E6E6"/>
<path d="M35.2317 1.93414C35.7658 1.93414 36.1987 1.50119 36.1987 0.967129C36.1987 0.433066 35.7658 0.00012207 35.2317 0.00012207C34.6977 0.00012207 34.2647 0.433066 34.2647 0.967129C34.2647 1.50119 34.6977 1.93414 35.2317 1.93414Z" fill="#E6E6E6"/>
<path d="M40.1267 1.93414C40.6608 1.93414 41.0937 1.50119 41.0937 0.967129C41.0937 0.433066 40.6608 0.00012207 40.1267 0.00012207C39.5926 0.00012207 39.1597 0.433066 39.1597 0.967129C39.1597 1.50119 39.5926 1.93414 40.1267 1.93414Z" fill="#E6E6E6"/>
<path d="M45.0217 1.93414C45.5558 1.93414 45.9887 1.50119 45.9887 0.967129C45.9887 0.433066 45.5558 0.00012207 45.0217 0.00012207C44.4876 0.00012207 44.0547 0.433066 44.0547 0.967129C44.0547 1.50119 44.4876 1.93414 45.0217 1.93414Z" fill="#E6E6E6"/>
<path d="M0.966945 6.89056C1.50101 6.89056 1.93395 6.45761 1.93395 5.92355C1.93395 5.38949 1.50101 4.95654 0.966945 4.95654C0.432882 4.95654 -6.10352e-05 5.38949 -6.10352e-05 5.92355C-6.10352e-05 6.45761 0.432882 6.89056 0.966945 6.89056Z" fill="#E6E6E6"/>
<path d="M5.86193 6.89056C6.396 6.89056 6.82894 6.45761 6.82894 5.92355C6.82894 5.38949 6.396 4.95654 5.86193 4.95654C5.32787 4.95654 4.89493 5.38949 4.89493 5.92355C4.89493 6.45761 5.32787 6.89056 5.86193 6.89056Z" fill="#E6E6E6"/>
<path d="M10.7569 6.89056C11.291 6.89056 11.7239 6.45761 11.7239 5.92355C11.7239 5.38949 11.291 4.95654 10.7569 4.95654C10.2229 4.95654 9.78992 5.38949 9.78992 5.92355C9.78992 6.45761 10.2229 6.89056 10.7569 6.89056Z" fill="#E6E6E6"/>
<path d="M15.6519 6.89056C16.186 6.89056 16.6189 6.45761 16.6189 5.92355C16.6189 5.38949 16.186 4.95654 15.6519 4.95654C15.1179 4.95654 14.6849 5.38949 14.6849 5.92355C14.6849 6.45761 15.1179 6.89056 15.6519 6.89056Z" fill="#46FF9F"/>
<path d="M20.5467 6.89056C21.0808 6.89056 21.5137 6.45761 21.5137 5.92355C21.5137 5.38949 21.0808 4.95654 20.5467 4.95654C20.0127 4.95654 19.5797 5.38949 19.5797 5.92355C19.5797 6.45761 20.0127 6.89056 20.5467 6.89056Z" fill="#E6E6E6"/>
<path d="M25.4417 6.89056C25.9758 6.89056 26.4087 6.45761 26.4087 5.92355C26.4087 5.38949 25.9758 4.95654 25.4417 4.95654C24.9076 4.95654 24.4747 5.38949 24.4747 5.92355C24.4747 6.45761 24.9076 6.89056 25.4417 6.89056Z" fill="#E6E6E6"/>
<path d="M30.3367 6.89056C30.8708 6.89056 31.3037 6.45761 31.3037 5.92355C31.3037 5.38949 30.8708 4.95654 30.3367 4.95654C29.8027 4.95654 29.3697 5.38949 29.3697 5.92355C29.3697 6.45761 29.8027 6.89056 30.3367 6.89056Z" fill="#E6E6E6"/>
<path d="M35.2317 6.89056C35.7658 6.89056 36.1987 6.45761 36.1987 5.92355C36.1987 5.38949 35.7658 4.95654 35.2317 4.95654C34.6977 4.95654 34.2647 5.38949 34.2647 5.92355C34.2647 6.45761 34.6977 6.89056 35.2317 6.89056Z" fill="#E6E6E6"/>
<path d="M40.1267 6.89056C40.6608 6.89056 41.0937 6.45761 41.0937 5.92355C41.0937 5.38949 40.6608 4.95654 40.1267 4.95654C39.5926 4.95654 39.1597 5.38949 39.1597 5.92355C39.1597 6.45761 39.5926 6.89056 40.1267 6.89056Z" fill="#E6E6E6"/>
<path d="M45.0217 6.89056C45.5558 6.89056 45.9887 6.45761 45.9887 5.92355C45.9887 5.38949 45.5558 4.95654 45.0217 4.95654C44.4876 4.95654 44.0547 5.38949 44.0547 5.92355C44.0547 6.45761 44.4876 6.89056 45.0217 6.89056Z" fill="#E6E6E6"/>
<path d="M0.966945 11.847C1.50101 11.847 1.93395 11.414 1.93395 10.88C1.93395 10.3459 1.50101 9.91296 0.966945 9.91296C0.432882 9.91296 -6.10352e-05 10.3459 -6.10352e-05 10.88C-6.10352e-05 11.414 0.432882 11.847 0.966945 11.847Z" fill="#E6E6E6"/>
<path d="M5.86193 11.847C6.396 11.847 6.82894 11.414 6.82894 10.88C6.82894 10.3459 6.396 9.91296 5.86193 9.91296C5.32787 9.91296 4.89493 10.3459 4.89493 10.88C4.89493 11.414 5.32787 11.847 5.86193 11.847Z" fill="#E6E6E6"/>
<path d="M10.7569 11.847C11.291 11.847 11.7239 11.414 11.7239 10.88C11.7239 10.3459 11.291 9.91296 10.7569 9.91296C10.2229 9.91296 9.78992 10.3459 9.78992 10.88C9.78992 11.414 10.2229 11.847 10.7569 11.847Z" fill="#E6E6E6"/>
<path d="M15.6519 11.847C16.186 11.847 16.6189 11.414 16.6189 10.88C16.6189 10.3459 16.186 9.91296 15.6519 9.91296C15.1179 9.91296 14.6849 10.3459 14.6849 10.88C14.6849 11.414 15.1179 11.847 15.6519 11.847Z" fill="#E6E6E6"/>
<path d="M20.5467 11.847C21.0808 11.847 21.5137 11.414 21.5137 10.88C21.5137 10.3459 21.0808 9.91296 20.5467 9.91296C20.0127 9.91296 19.5797 10.3459 19.5797 10.88C19.5797 11.414 20.0127 11.847 20.5467 11.847Z" fill="#E6E6E6"/>
<path d="M25.4417 11.847C25.9758 11.847 26.4087 11.414 26.4087 10.88C26.4087 10.3459 25.9758 9.91296 25.4417 9.91296C24.9076 9.91296 24.4747 10.3459 24.4747 10.88C24.4747 11.414 24.9076 11.847 25.4417 11.847Z" fill="#E6E6E6"/>
<path d="M30.3367 11.847C30.8708 11.847 31.3037 11.414 31.3037 10.88C31.3037 10.3459 30.8708 9.91296 30.3367 9.91296C29.8027 9.91296 29.3697 10.3459 29.3697 10.88C29.3697 11.414 29.8027 11.847 30.3367 11.847Z" fill="#E6E6E6"/>
<path d="M35.2317 11.847C35.7658 11.847 36.1987 11.414 36.1987 10.88C36.1987 10.3459 35.7658 9.91296 35.2317 9.91296C34.6977 9.91296 34.2647 10.3459 34.2647 10.88C34.2647 11.414 34.6977 11.847 35.2317 11.847Z" fill="#E6E6E6"/>
<path d="M40.1267 11.847C40.6608 11.847 41.0937 11.414 41.0937 10.88C41.0937 10.3459 40.6608 9.91296 40.1267 9.91296C39.5926 9.91296 39.1597 10.3459 39.1597 10.88C39.1597 11.414 39.5926 11.847 40.1267 11.847Z" fill="#E6E6E6"/>
<path d="M45.0217 11.847C45.5558 11.847 45.9887 11.414 45.9887 10.88C45.9887 10.3459 45.5558 9.91296 45.0217 9.91296C44.4876 9.91296 44.0547 10.3459 44.0547 10.88C44.0547 11.414 44.4876 11.847 45.0217 11.847Z" fill="#E6E6E6"/>
<path d="M0.966945 16.8033C1.50101 16.8033 1.93395 16.3703 1.93395 15.8363C1.93395 15.3022 1.50101 14.8693 0.966945 14.8693C0.432882 14.8693 -6.10352e-05 15.3022 -6.10352e-05 15.8363C-6.10352e-05 16.3703 0.432882 16.8033 0.966945 16.8033Z" fill="#E6E6E6"/>
<path d="M5.86193 16.8033C6.396 16.8033 6.82894 16.3703 6.82894 15.8363C6.82894 15.3022 6.396 14.8693 5.86193 14.8693C5.32787 14.8693 4.89493 15.3022 4.89493 15.8363C4.89493 16.3703 5.32787 16.8033 5.86193 16.8033Z" fill="#E6E6E6"/>
<path d="M10.7569 16.8033C11.291 16.8033 11.7239 16.3703 11.7239 15.8363C11.7239 15.3022 11.291 14.8693 10.7569 14.8693C10.2229 14.8693 9.78992 15.3022 9.78992 15.8363C9.78992 16.3703 10.2229 16.8033 10.7569 16.8033Z" fill="#E6E6E6"/>
<path d="M15.6519 16.8033C16.186 16.8033 16.6189 16.3703 16.6189 15.8363C16.6189 15.3022 16.186 14.8693 15.6519 14.8693C15.1179 14.8693 14.6849 15.3022 14.6849 15.8363C14.6849 16.3703 15.1179 16.8033 15.6519 16.8033Z" fill="#E6E6E6"/>
<path d="M20.5467 16.8033C21.0808 16.8033 21.5137 16.3703 21.5137 15.8363C21.5137 15.3022 21.0808 14.8693 20.5467 14.8693C20.0127 14.8693 19.5797 15.3022 19.5797 15.8363C19.5797 16.3703 20.0127 16.8033 20.5467 16.8033Z" fill="#E6E6E6"/>
<path d="M25.4417 16.8033C25.9758 16.8033 26.4087 16.3703 26.4087 15.8363C26.4087 15.3022 25.9758 14.8693 25.4417 14.8693C24.9076 14.8693 24.4747 15.3022 24.4747 15.8363C24.4747 16.3703 24.9076 16.8033 25.4417 16.8033Z" fill="#E6E6E6"/>
<path d="M30.3367 16.8033C30.8708 16.8033 31.3037 16.3703 31.3037 15.8363C31.3037 15.3022 30.8708 14.8693 30.3367 14.8693C29.8027 14.8693 29.3697 15.3022 29.3697 15.8363C29.3697 16.3703 29.8027 16.8033 30.3367 16.8033Z" fill="#E6E6E6"/>
<path d="M35.2317 16.8033C35.7658 16.8033 36.1987 16.3703 36.1987 15.8363C36.1987 15.3022 35.7658 14.8693 35.2317 14.8693C34.6977 14.8693 34.2647 15.3022 34.2647 15.8363C34.2647 16.3703 34.6977 16.8033 35.2317 16.8033Z" fill="#E6E6E6"/>
<path d="M40.1267 16.8033C40.6608 16.8033 41.0937 16.3703 41.0937 15.8363C41.0937 15.3022 40.6608 14.8693 40.1267 14.8693C39.5926 14.8693 39.1597 15.3022 39.1597 15.8363C39.1597 16.3703 39.5926 16.8033 40.1267 16.8033Z" fill="#E6E6E6"/>
<path d="M45.0217 16.8033C45.5558 16.8033 45.9887 16.3703 45.9887 15.8363C45.9887 15.3022 45.5558 14.8693 45.0217 14.8693C44.4876 14.8693 44.0547 15.3022 44.0547 15.8363C44.0547 16.3703 44.4876 16.8033 45.0217 16.8033Z" fill="#E6E6E6"/>
<path d="M0.966945 21.7598C1.50101 21.7598 1.93395 21.3269 1.93395 20.7928C1.93395 20.2587 1.50101 19.8258 0.966945 19.8258C0.432882 19.8258 -6.10352e-05 20.2587 -6.10352e-05 20.7928C-6.10352e-05 21.3269 0.432882 21.7598 0.966945 21.7598Z" fill="#E6E6E6"/>
<path d="M5.86193 21.7598C6.396 21.7598 6.82894 21.3269 6.82894 20.7928C6.82894 20.2587 6.396 19.8258 5.86193 19.8258C5.32787 19.8258 4.89493 20.2587 4.89493 20.7928C4.89493 21.3269 5.32787 21.7598 5.86193 21.7598Z" fill="#46FF9F"/>
<path d="M10.7569 21.7598C11.291 21.7598 11.7239 21.3269 11.7239 20.7928C11.7239 20.2587 11.291 19.8258 10.7569 19.8258C10.2229 19.8258 9.78992 20.2587 9.78992 20.7928C9.78992 21.3269 10.2229 21.7598 10.7569 21.7598Z" fill="#E6E6E6"/>
<path d="M15.6519 21.7598C16.186 21.7598 16.6189 21.3269 16.6189 20.7928C16.6189 20.2587 16.186 19.8258 15.6519 19.8258C15.1179 19.8258 14.6849 20.2587 14.6849 20.7928C14.6849 21.3269 15.1179 21.7598 15.6519 21.7598Z" fill="#E6E6E6"/>
<path d="M20.5467 21.7598C21.0808 21.7598 21.5137 21.3269 21.5137 20.7928C21.5137 20.2587 21.0808 19.8258 20.5467 19.8258C20.0127 19.8258 19.5797 20.2587 19.5797 20.7928C19.5797 21.3269 20.0127 21.7598 20.5467 21.7598Z" fill="#E6E6E6"/>
<path d="M25.4417 21.7598C25.9758 21.7598 26.4087 21.3269 26.4087 20.7928C26.4087 20.2587 25.9758 19.8258 25.4417 19.8258C24.9076 19.8258 24.4747 20.2587 24.4747 20.7928C24.4747 21.3269 24.9076 21.7598 25.4417 21.7598Z" fill="#E6E6E6"/>
<path d="M30.3367 21.7598C30.8708 21.7598 31.3037 21.3269 31.3037 20.7928C31.3037 20.2587 30.8708 19.8258 30.3367 19.8258C29.8027 19.8258 29.3697 20.2587 29.3697 20.7928C29.3697 21.3269 29.8027 21.7598 30.3367 21.7598Z" fill="#E6E6E6"/>
<path d="M35.2317 21.7598C35.7658 21.7598 36.1987 21.3269 36.1987 20.7928C36.1987 20.2587 35.7658 19.8258 35.2317 19.8258C34.6977 19.8258 34.2647 20.2587 34.2647 20.7928C34.2647 21.3269 34.6977 21.7598 35.2317 21.7598Z" fill="#E6E6E6"/>
<path d="M40.1267 21.7598C40.6608 21.7598 41.0937 21.3269 41.0937 20.7928C41.0937 20.2587 40.6608 19.8258 40.1267 19.8258C39.5926 19.8258 39.1597 20.2587 39.1597 20.7928C39.1597 21.3269 39.5926 21.7598 40.1267 21.7598Z" fill="#E6E6E6"/>
<path d="M45.0217 21.7598C45.5558 21.7598 45.9887 21.3269 45.9887 20.7928C45.9887 20.2587 45.5558 19.8258 45.0217 19.8258C44.4876 19.8258 44.0547 20.2587 44.0547 20.7928C44.0547 21.3269 44.4876 21.7598 45.0217 21.7598Z" fill="#E6E6E6"/>
<path d="M0.966945 26.7161C1.50101 26.7161 1.93395 26.2832 1.93395 25.7491C1.93395 25.2151 1.50101 24.7821 0.966945 24.7821C0.432882 24.7821 -6.10352e-05 25.2151 -6.10352e-05 25.7491C-6.10352e-05 26.2832 0.432882 26.7161 0.966945 26.7161Z" fill="#E6E6E6"/>
<path d="M5.86193 26.7161C6.396 26.7161 6.82894 26.2832 6.82894 25.7491C6.82894 25.2151 6.396 24.7821 5.86193 24.7821C5.32787 24.7821 4.89493 25.2151 4.89493 25.7491C4.89493 26.2832 5.32787 26.7161 5.86193 26.7161Z" fill="#E6E6E6"/>
<path d="M10.7569 26.7161C11.291 26.7161 11.7239 26.2832 11.7239 25.7491C11.7239 25.2151 11.291 24.7821 10.7569 24.7821C10.2229 24.7821 9.78992 25.2151 9.78992 25.7491C9.78992 26.2832 10.2229 26.7161 10.7569 26.7161Z" fill="#E6E6E6"/>
<path d="M15.6519 26.7161C16.186 26.7161 16.6189 26.2832 16.6189 25.7491C16.6189 25.2151 16.186 24.7821 15.6519 24.7821C15.1179 24.7821 14.6849 25.2151 14.6849 25.7491C14.6849 26.2832 15.1179 26.7161 15.6519 26.7161Z" fill="#E6E6E6"/>
<path d="M20.5467 26.7161C21.0808 26.7161 21.5137 26.2832 21.5137 25.7491C21.5137 25.2151 21.0808 24.7821 20.5467 24.7821C20.0127 24.7821 19.5797 25.2151 19.5797 25.7491C19.5797 26.2832 20.0127 26.7161 20.5467 26.7161Z" fill="#E6E6E6"/>
<path d="M25.4417 26.7161C25.9758 26.7161 26.4087 26.2832 26.4087 25.7491C26.4087 25.2151 25.9758 24.7821 25.4417 24.7821C24.9076 24.7821 24.4747 25.2151 24.4747 25.7491C24.4747 26.2832 24.9076 26.7161 25.4417 26.7161Z" fill="#E6E6E6"/>
<path d="M30.3367 26.7161C30.8708 26.7161 31.3037 26.2832 31.3037 25.7491C31.3037 25.2151 30.8708 24.7821 30.3367 24.7821C29.8027 24.7821 29.3697 25.2151 29.3697 25.7491C29.3697 26.2832 29.8027 26.7161 30.3367 26.7161Z" fill="#E6E6E6"/>
<path d="M35.2317 26.7161C35.7658 26.7161 36.1987 26.2832 36.1987 25.7491C36.1987 25.2151 35.7658 24.7821 35.2317 24.7821C34.6977 24.7821 34.2647 25.2151 34.2647 25.7491C34.2647 26.2832 34.6977 26.7161 35.2317 26.7161Z" fill="#E6E6E6"/>
<path d="M40.1267 26.7161C40.6608 26.7161 41.0937 26.2832 41.0937 25.7491C41.0937 25.2151 40.6608 24.7821 40.1267 24.7821C39.5926 24.7821 39.1597 25.2151 39.1597 25.7491C39.1597 26.2832 39.5926 26.7161 40.1267 26.7161Z" fill="#E6E6E6"/>
<path d="M45.0217 26.7161C45.5558 26.7161 45.9887 26.2832 45.9887 25.7491C45.9887 25.2151 45.5558 24.7821 45.0217 24.7821C44.4876 24.7821 44.0547 25.2151 44.0547 25.7491C44.0547 26.2832 44.4876 26.7161 45.0217 26.7161Z" fill="#E6E6E6"/>
<path d="M0.966945 31.6727C1.50101 31.6727 1.93395 31.2397 1.93395 30.7057C1.93395 30.1716 1.50101 29.7386 0.966945 29.7386C0.432882 29.7386 -6.10352e-05 30.1716 -6.10352e-05 30.7057C-6.10352e-05 31.2397 0.432882 31.6727 0.966945 31.6727Z" fill="#E6E6E6"/>
<path d="M5.86193 31.6727C6.396 31.6727 6.82894 31.2397 6.82894 30.7057C6.82894 30.1716 6.396 29.7386 5.86193 29.7386C5.32787 29.7386 4.89493 30.1716 4.89493 30.7057C4.89493 31.2397 5.32787 31.6727 5.86193 31.6727Z" fill="#E6E6E6"/>
<path d="M10.7569 31.6727C11.291 31.6727 11.7239 31.2397 11.7239 30.7057C11.7239 30.1716 11.291 29.7386 10.7569 29.7386C10.2229 29.7386 9.78992 30.1716 9.78992 30.7057C9.78992 31.2397 10.2229 31.6727 10.7569 31.6727Z" fill="#46FF9F"/>
<path d="M15.6519 31.6727C16.186 31.6727 16.6189 31.2397 16.6189 30.7057C16.6189 30.1716 16.186 29.7386 15.6519 29.7386C15.1179 29.7386 14.6849 30.1716 14.6849 30.7057C14.6849 31.2397 15.1179 31.6727 15.6519 31.6727Z" fill="#E6E6E6"/>
<path d="M20.5467 31.6727C21.0808 31.6727 21.5137 31.2397 21.5137 30.7057C21.5137 30.1716 21.0808 29.7386 20.5467 29.7386C20.0127 29.7386 19.5797 30.1716 19.5797 30.7057C19.5797 31.2397 20.0127 31.6727 20.5467 31.6727Z" fill="#E6E6E6"/>
<path d="M25.4417 31.6727C25.9758 31.6727 26.4087 31.2397 26.4087 30.7057C26.4087 30.1716 25.9758 29.7386 25.4417 29.7386C24.9076 29.7386 24.4747 30.1716 24.4747 30.7057C24.4747 31.2397 24.9076 31.6727 25.4417 31.6727Z" fill="#E6E6E6"/>
<path d="M30.3367 31.6727C30.8708 31.6727 31.3037 31.2397 31.3037 30.7057C31.3037 30.1716 30.8708 29.7386 30.3367 29.7386C29.8027 29.7386 29.3697 30.1716 29.3697 30.7057C29.3697 31.2397 29.8027 31.6727 30.3367 31.6727Z" fill="#E6E6E6"/>
<path d="M35.2317 31.6727C35.7658 31.6727 36.1987 31.2397 36.1987 30.7057C36.1987 30.1716 35.7658 29.7386 35.2317 29.7386C34.6977 29.7386 34.2647 30.1716 34.2647 30.7057C34.2647 31.2397 34.6977 31.6727 35.2317 31.6727Z" fill="#E6E6E6"/>
<path d="M40.1267 31.6727C40.6608 31.6727 41.0937 31.2397 41.0937 30.7057C41.0937 30.1716 40.6608 29.7386 40.1267 29.7386C39.5926 29.7386 39.1597 30.1716 39.1597 30.7057C39.1597 31.2397 39.5926 31.6727 40.1267 31.6727Z" fill="#E6E6E6"/>
<path d="M45.0217 31.6727C45.5558 31.6727 45.9887 31.2397 45.9887 30.7057C45.9887 30.1716 45.5558 29.7386 45.0217 29.7386C44.4876 29.7386 44.0547 30.1716 44.0547 30.7057C44.0547 31.2397 44.4876 31.6727 45.0217 31.6727Z" fill="#E6E6E6"/>
<path d="M0.966945 36.6291C1.50101 36.6291 1.93395 36.1961 1.93395 35.6621C1.93395 35.128 1.50101 34.6951 0.966945 34.6951C0.432882 34.6951 -6.10352e-05 35.128 -6.10352e-05 35.6621C-6.10352e-05 36.1961 0.432882 36.6291 0.966945 36.6291Z" fill="#E6E6E6"/>
<path d="M5.86193 36.6291C6.396 36.6291 6.82894 36.1961 6.82894 35.6621C6.82894 35.128 6.396 34.6951 5.86193 34.6951C5.32787 34.6951 4.89493 35.128 4.89493 35.6621C4.89493 36.1961 5.32787 36.6291 5.86193 36.6291Z" fill="#E6E6E6"/>
<path d="M10.7569 36.6291C11.291 36.6291 11.7239 36.1961 11.7239 35.6621C11.7239 35.128 11.291 34.6951 10.7569 34.6951C10.2229 34.6951 9.78992 35.128 9.78992 35.6621C9.78992 36.1961 10.2229 36.6291 10.7569 36.6291Z" fill="#E6E6E6"/>
<path d="M15.6519 36.6291C16.186 36.6291 16.6189 36.1961 16.6189 35.6621C16.6189 35.128 16.186 34.6951 15.6519 34.6951C15.1179 34.6951 14.6849 35.128 14.6849 35.6621C14.6849 36.1961 15.1179 36.6291 15.6519 36.6291Z" fill="#E6E6E6"/>
<path d="M20.5467 36.6291C21.0808 36.6291 21.5137 36.1961 21.5137 35.6621C21.5137 35.128 21.0808 34.6951 20.5467 34.6951C20.0127 34.6951 19.5797 35.128 19.5797 35.6621C19.5797 36.1961 20.0127 36.6291 20.5467 36.6291Z" fill="#E6E6E6"/>
<path d="M25.4417 36.6291C25.9758 36.6291 26.4087 36.1961 26.4087 35.6621C26.4087 35.128 25.9758 34.6951 25.4417 34.6951C24.9076 34.6951 24.4747 35.128 24.4747 35.6621C24.4747 36.1961 24.9076 36.6291 25.4417 36.6291Z" fill="#E6E6E6"/>
<path d="M30.3367 36.6291C30.8708 36.6291 31.3037 36.1961 31.3037 35.6621C31.3037 35.128 30.8708 34.6951 30.3367 34.6951C29.8027 34.6951 29.3697 35.128 29.3697 35.6621C29.3697 36.1961 29.8027 36.6291 30.3367 36.6291Z" fill="#E6E6E6"/>
<path d="M35.2317 36.6291C35.7658 36.6291 36.1987 36.1961 36.1987 35.6621C36.1987 35.128 35.7658 34.6951 35.2317 34.6951C34.6977 34.6951 34.2647 35.128 34.2647 35.6621C34.2647 36.1961 34.6977 36.6291 35.2317 36.6291Z" fill="#E6E6E6"/>
<path d="M40.1267 36.6291C40.6608 36.6291 41.0937 36.1961 41.0937 35.6621C41.0937 35.128 40.6608 34.6951 40.1267 34.6951C39.5926 34.6951 39.1597 35.128 39.1597 35.6621C39.1597 36.1961 39.5926 36.6291 40.1267 36.6291Z" fill="#E6E6E6"/>
<path d="M45.0217 36.6291C45.5558 36.6291 45.9887 36.1961 45.9887 35.6621C45.9887 35.128 45.5558 34.6951 45.0217 34.6951C44.4876 34.6951 44.0547 35.128 44.0547 35.6621C44.0547 36.1961 44.4876 36.6291 45.0217 36.6291Z" fill="#E6E6E6"/>
<path d="M0.966945 41.5855C1.50101 41.5855 1.93395 41.1526 1.93395 40.6185C1.93395 40.0844 1.50101 39.6515 0.966945 39.6515C0.432882 39.6515 -6.10352e-05 40.0844 -6.10352e-05 40.6185C-6.10352e-05 41.1526 0.432882 41.5855 0.966945 41.5855Z" fill="#E6E6E6"/>
<path d="M5.86193 41.5855C6.396 41.5855 6.82894 41.1526 6.82894 40.6185C6.82894 40.0844 6.396 39.6515 5.86193 39.6515C5.32787 39.6515 4.89493 40.0844 4.89493 40.6185C4.89493 41.1526 5.32787 41.5855 5.86193 41.5855Z" fill="#E6E6E6"/>
<path d="M10.7569 41.5855C11.291 41.5855 11.7239 41.1526 11.7239 40.6185C11.7239 40.0844 11.291 39.6515 10.7569 39.6515C10.2229 39.6515 9.78992 40.0844 9.78992 40.6185C9.78992 41.1526 10.2229 41.5855 10.7569 41.5855Z" fill="#E6E6E6"/>
<path d="M15.6519 41.5855C16.186 41.5855 16.6189 41.1526 16.6189 40.6185C16.6189 40.0844 16.186 39.6515 15.6519 39.6515C15.1179 39.6515 14.6849 40.0844 14.6849 40.6185C14.6849 41.1526 15.1179 41.5855 15.6519 41.5855Z" fill="#E6E6E6"/>
<path d="M20.5467 41.5855C21.0808 41.5855 21.5137 41.1526 21.5137 40.6185C21.5137 40.0844 21.0808 39.6515 20.5467 39.6515C20.0127 39.6515 19.5797 40.0844 19.5797 40.6185C19.5797 41.1526 20.0127 41.5855 20.5467 41.5855Z" fill="#E6E6E6"/>
<path d="M25.4417 41.5855C25.9758 41.5855 26.4087 41.1526 26.4087 40.6185C26.4087 40.0844 25.9758 39.6515 25.4417 39.6515C24.9076 39.6515 24.4747 40.0844 24.4747 40.6185C24.4747 41.1526 24.9076 41.5855 25.4417 41.5855Z" fill="#E6E6E6"/>
<path d="M30.3367 41.5855C30.8708 41.5855 31.3037 41.1526 31.3037 40.6185C31.3037 40.0844 30.8708 39.6515 30.3367 39.6515C29.8027 39.6515 29.3697 40.0844 29.3697 40.6185C29.3697 41.1526 29.8027 41.5855 30.3367 41.5855Z" fill="#E6E6E6"/>
<path d="M35.2317 41.5855C35.7658 41.5855 36.1987 41.1526 36.1987 40.6185C36.1987 40.0844 35.7658 39.6515 35.2317 39.6515C34.6977 39.6515 34.2647 40.0844 34.2647 40.6185C34.2647 41.1526 34.6977 41.5855 35.2317 41.5855Z" fill="#E6E6E6"/>
<path d="M40.1267 41.5855C40.6608 41.5855 41.0937 41.1526 41.0937 40.6185C41.0937 40.0844 40.6608 39.6515 40.1267 39.6515C39.5926 39.6515 39.1597 40.0844 39.1597 40.6185C39.1597 41.1526 39.5926 41.5855 40.1267 41.5855Z" fill="#E6E6E6"/>
<path d="M45.0217 41.5855C45.5558 41.5855 45.9887 41.1526 45.9887 40.6185C45.9887 40.0844 45.5558 39.6515 45.0217 39.6515C44.4876 39.6515 44.0547 40.0844 44.0547 40.6185C44.0547 41.1526 44.4876 41.5855 45.0217 41.5855Z" fill="#E6E6E6"/>
<path d="M0.966945 46.5418C1.50101 46.5418 1.93395 46.1089 1.93395 45.5748C1.93395 45.0407 1.50101 44.6078 0.966945 44.6078C0.432882 44.6078 -6.10352e-05 45.0407 -6.10352e-05 45.5748C-6.10352e-05 46.1089 0.432882 46.5418 0.966945 46.5418Z" fill="#E6E6E6"/>
<path d="M5.86193 46.5418C6.396 46.5418 6.82894 46.1089 6.82894 45.5748C6.82894 45.0407 6.396 44.6078 5.86193 44.6078C5.32787 44.6078 4.89493 45.0407 4.89493 45.5748C4.89493 46.1089 5.32787 46.5418 5.86193 46.5418Z" fill="#E6E6E6"/>
<path d="M10.7569 46.5418C11.291 46.5418 11.7239 46.1089 11.7239 45.5748C11.7239 45.0407 11.291 44.6078 10.7569 44.6078C10.2229 44.6078 9.78992 45.0407 9.78992 45.5748C9.78992 46.1089 10.2229 46.5418 10.7569 46.5418Z" fill="#E6E6E6"/>
<path d="M15.6519 46.5418C16.186 46.5418 16.6189 46.1089 16.6189 45.5748C16.6189 45.0407 16.186 44.6078 15.6519 44.6078C15.1179 44.6078 14.6849 45.0407 14.6849 45.5748C14.6849 46.1089 15.1179 46.5418 15.6519 46.5418Z" fill="#E6E6E6"/>
<path d="M20.5467 46.5418C21.0808 46.5418 21.5137 46.1089 21.5137 45.5748C21.5137 45.0407 21.0808 44.6078 20.5467 44.6078C20.0127 44.6078 19.5797 45.0407 19.5797 45.5748C19.5797 46.1089 20.0127 46.5418 20.5467 46.5418Z" fill="#E6E6E6"/>
<path d="M25.4417 46.5418C25.9758 46.5418 26.4087 46.1089 26.4087 45.5748C26.4087 45.0407 25.9758 44.6078 25.4417 44.6078C24.9076 44.6078 24.4747 45.0407 24.4747 45.5748C24.4747 46.1089 24.9076 46.5418 25.4417 46.5418Z" fill="#E6E6E6"/>
<path d="M30.3367 46.5418C30.8708 46.5418 31.3037 46.1089 31.3037 45.5748C31.3037 45.0407 30.8708 44.6078 30.3367 44.6078C29.8027 44.6078 29.3697 45.0407 29.3697 45.5748C29.3697 46.1089 29.8027 46.5418 30.3367 46.5418Z" fill="#E6E6E6"/>
<path d="M35.2317 46.5418C35.7658 46.5418 36.1987 46.1089 36.1987 45.5748C36.1987 45.0407 35.7658 44.6078 35.2317 44.6078C34.6977 44.6078 34.2647 45.0407 34.2647 45.5748C34.2647 46.1089 34.6977 46.5418 35.2317 46.5418Z" fill="#E6E6E6"/>
<path d="M40.1267 46.5418C40.6608 46.5418 41.0937 46.1089 41.0937 45.5748C41.0937 45.0407 40.6608 44.6078 40.1267 44.6078C39.5926 44.6078 39.1597 45.0407 39.1597 45.5748C39.1597 46.1089 39.5926 46.5418 40.1267 46.5418Z" fill="#E6E6E6"/>
<path d="M45.0217 46.5418C45.5558 46.5418 45.9887 46.1089 45.9887 45.5748C45.9887 45.0407 45.5558 44.6078 45.0217 44.6078C44.4876 44.6078 44.0547 45.0407 44.0547 45.5748C44.0547 46.1089 44.4876 46.5418 45.0217 46.5418Z" fill="#E6E6E6"/>
<path d="M56.8288 8.64234C57.153 8.64234 57.464 8.77114 57.6933 9.00042C57.9225 9.2297 58.0513 9.54066 58.0513 9.86491V58.7677C58.0513 58.9282 58.0197 59.0872 57.9583 59.2355C57.8968 59.3839 57.8068 59.5186 57.6933 59.6322C57.5797 59.7457 57.445 59.8357 57.2966 59.8972C57.1483 59.9586 56.9893 59.9902 56.8288 59.9902H21.741C21.5805 59.9902 21.4215 59.9586 21.2732 59.8972C21.1248 59.8357 20.9901 59.7457 20.8765 59.6322C20.763 59.5186 20.673 59.3839 20.6115 59.2355C20.5501 59.0872 20.5185 58.9282 20.5185 58.7677V9.86491C20.5185 9.54066 20.6473 9.22969 20.8765 9.00042C21.1058 8.77114 21.4168 8.64233 21.741 8.64233H56.8288" fill="#E6E6E6"/>
<path d="M21.8834 58.6253H56.6864V10.0072H21.8834V58.6253Z" fill="white"/>
<path d="M48.9431 17.6991C48.9752 17.6991 49.007 17.7054 49.0367 17.7177C49.0664 17.73 49.0933 17.748 49.116 17.7707C49.1387 17.7934 49.1567 17.8204 49.169 17.85C49.1813 17.8797 49.1876 17.9115 49.1876 17.9436V18.4326C49.1876 18.4975 49.1619 18.5597 49.116 18.6055C49.0702 18.6514 49.008 18.6772 48.9431 18.6772H29.6265C29.5944 18.6772 29.5626 18.6708 29.533 18.6585C29.5033 18.6463 29.4763 18.6282 29.4536 18.6055C29.4309 18.5828 29.4129 18.5559 29.4006 18.5262C29.3883 18.4965 29.382 18.4648 29.382 18.4326V17.9436C29.382 17.9115 29.3883 17.8797 29.4006 17.85C29.4129 17.8204 29.4309 17.7934 29.4536 17.7707C29.4763 17.748 29.5033 17.73 29.533 17.7177C29.5626 17.7054 29.5944 17.6991 29.6265 17.6991H48.9431" fill="#E6E6E6"/>
<path d="M48.9431 20.022C49.008 20.022 49.0702 20.0477 49.116 20.0936C49.1619 20.1394 49.1876 20.2016 49.1876 20.2665V20.7555C49.1876 20.8204 49.1619 20.8826 49.116 20.9284C49.0702 20.9743 49.008 21 48.9431 21H29.6265C29.5944 21 29.5626 20.9937 29.533 20.9814C29.5033 20.9691 29.4763 20.9511 29.4536 20.9284C29.4309 20.9057 29.4129 20.8788 29.4006 20.8491C29.3883 20.8194 29.382 20.7876 29.382 20.7555V20.2665C29.382 20.2344 29.3883 20.2026 29.4006 20.1729C29.4129 20.1432 29.4309 20.1163 29.4536 20.0936C29.4763 20.0709 29.5033 20.0529 29.533 20.0406C29.5626 20.0283 29.5944 20.022 29.6265 20.022H48.9431" fill="#E6E6E6"/>
<path d="M48.9431 22.3448C49.008 22.3448 49.0702 22.3706 49.116 22.4165C49.1619 22.4623 49.1876 22.5245 49.1876 22.5894V23.0784C49.1876 23.1432 49.1619 23.2054 49.116 23.2513C49.0702 23.2971 49.008 23.3229 48.9431 23.3229H29.6265C29.5617 23.3229 29.4995 23.2971 29.4536 23.2513C29.4078 23.2054 29.382 23.1432 29.382 23.0784V22.5894C29.382 22.5245 29.4078 22.4623 29.4536 22.4165C29.4995 22.3706 29.5617 22.3448 29.6265 22.3448H48.9431" fill="#46FF9F"/>
<path d="M48.9431 24.7185C49.008 24.7185 49.0702 24.7443 49.116 24.7901C49.1619 24.836 49.1876 24.8982 49.1876 24.963V25.4521C49.1876 25.5169 49.1619 25.5791 49.116 25.625C49.0702 25.6708 49.008 25.6966 48.9431 25.6966H29.6265C29.5944 25.6966 29.5626 25.6902 29.533 25.678C29.5033 25.6657 29.4763 25.6477 29.4536 25.625C29.4309 25.6022 29.4129 25.5753 29.4006 25.5456C29.3883 25.516 29.382 25.4842 29.382 25.4521V24.963C29.382 24.9309 29.3883 24.8991 29.4006 24.8694C29.4129 24.8398 29.4309 24.8128 29.4536 24.7901C29.4763 24.7674 29.5033 24.7494 29.533 24.7371C29.5626 24.7248 29.5944 24.7185 29.6265 24.7185H48.9431" fill="#E6E6E6"/>
<path d="M48.9431 27.0414C49.008 27.0414 49.0702 27.0671 49.116 27.113C49.1619 27.1589 49.1876 27.221 49.1876 27.2859V27.7749C49.1876 27.807 49.1813 27.8388 49.169 27.8685C49.1567 27.8982 49.1387 27.9251 49.116 27.9478C49.0933 27.9705 49.0664 27.9885 49.0367 28.0008C49.007 28.0131 48.9752 28.0194 48.9431 28.0194H29.6265C29.5944 28.0194 29.5626 28.0131 29.533 28.0008C29.5033 27.9885 29.4763 27.9705 29.4536 27.9478C29.4309 27.9251 29.4129 27.8982 29.4006 27.8685C29.3883 27.8388 29.382 27.807 29.382 27.7749V27.2859C29.382 27.2538 29.3883 27.222 29.4006 27.1923C29.4129 27.1627 29.4309 27.1357 29.4536 27.113C29.4763 27.0903 29.5033 27.0723 29.533 27.06C29.5626 27.0477 29.5944 27.0414 29.6265 27.0414H48.9431" fill="#E6E6E6"/>
<path d="M48.9431 29.3643C49.008 29.3643 49.0702 29.39 49.116 29.4359C49.1619 29.4817 49.1876 29.5439 49.1876 29.6088V30.0978C49.1876 30.1626 49.1619 30.2248 49.116 30.2707C49.0702 30.3165 49.008 30.3423 48.9431 30.3423H29.6265C29.5617 30.3423 29.4995 30.3165 29.4536 30.2707C29.4078 30.2248 29.382 30.1626 29.382 30.0978V29.6088C29.382 29.5439 29.4078 29.4817 29.4536 29.4359C29.4995 29.39 29.5617 29.3643 29.6265 29.3643H48.9431" fill="#E6E6E6"/>
<path d="M29.7499 37.1783C29.6747 37.1784 29.6025 37.2083 29.5493 37.2616C29.4961 37.3148 29.4661 37.3869 29.4661 37.4622V50.6495C29.4662 50.7248 29.4961 50.797 29.5493 50.8502C29.6025 50.9034 29.6747 50.9333 29.7499 50.9334H48.7869C48.8622 50.9333 48.9343 50.9034 48.9875 50.8502C49.0407 50.797 49.0707 50.7248 49.0708 50.6495V37.4622C49.0707 37.3869 49.0408 37.3148 48.9875 37.2616C48.9343 37.2083 48.8622 37.1784 48.7869 37.1783H29.7499Z" fill="#46FF9F"/>
<path d="M39.3484 22.8764L39.1485 22.8233L43.5096 6.41821H68.8047V6.625H43.6684L39.3484 22.8764Z" fill="#3F3D56"/>
<path d="M70.8716 8.69175C70.4424 8.69175 70.0228 8.56447 69.6659 8.326C69.309 8.08754 69.0309 7.74859 68.8666 7.35204C68.7024 6.95549 68.6594 6.51913 68.7431 6.09815C68.8269 5.67717 69.0335 5.29047 69.3371 4.98696C69.6406 4.68345 70.0273 4.47676 70.4482 4.39302C70.8692 4.30928 71.3056 4.35226 71.7021 4.51652C72.0987 4.68078 72.4376 4.95894 72.6761 5.31583C72.9146 5.67272 73.0418 6.09231 73.0418 6.52153C73.0412 7.09691 72.8123 7.64853 72.4055 8.05538C71.9986 8.46224 71.447 8.69109 70.8716 8.69175V8.69175ZM70.8716 4.55801C70.4833 4.55801 70.1037 4.67317 69.7808 4.88892C69.4579 5.10468 69.2062 5.41134 69.0576 5.77012C68.909 6.12891 68.8701 6.52371 68.9458 6.9046C69.0216 7.28549 69.2086 7.63535 69.4832 7.90996C69.7578 8.18456 70.1077 8.37157 70.4886 8.44733C70.8694 8.52309 71.2642 8.48421 71.623 8.3356C71.9818 8.18698 72.2885 7.93531 72.5042 7.61241C72.72 7.28951 72.8351 6.90988 72.8351 6.52153C72.8346 6.00096 72.6275 5.50187 72.2594 5.13376C71.8913 4.76566 71.3922 4.5586 70.8716 4.55801Z" fill="#3F3D56"/>
<path d="M70.8717 7.34832C71.3283 7.34832 71.6984 6.97817 71.6984 6.52157C71.6984 6.06497 71.3283 5.69482 70.8717 5.69482C70.4151 5.69482 70.0449 6.06497 70.0449 6.52157C70.0449 6.97817 70.4151 7.34832 70.8717 7.34832Z" fill="#46FF9F"/>
<path d="M38.6723 50.66L38.872 50.7134L34.4797 67.1101L9.18454 67.0617L9.18497 66.8549L34.3212 66.9031L38.6723 50.66Z" fill="#3F3D56"/>
<path d="M7.12182 64.7842C7.55105 64.785 7.97039 64.9131 8.32682 65.1522C8.68325 65.3914 8.96077 65.7309 9.12426 66.1277C9.28776 66.5246 9.3299 66.961 9.24536 67.3819C9.16081 67.8027 8.95338 68.189 8.64929 68.4919C8.3452 68.7948 7.95811 69.0008 7.53697 69.0837C7.11583 69.1667 6.67955 69.1228 6.28332 68.9578C5.88708 68.7928 5.54867 68.514 5.31089 68.1566C5.07311 67.7993 4.94663 67.3795 4.94745 66.9502C4.94921 66.3749 5.17912 65.8237 5.58675 65.4176C5.99439 65.0115 6.54645 64.7837 7.12182 64.7842V64.7842ZM7.1139 68.9179C7.50225 68.9187 7.88209 68.8042 8.20541 68.5891C8.52872 68.374 8.78098 68.0678 8.93028 67.7093C9.07958 67.3508 9.11922 66.9561 9.04419 66.575C8.96916 66.194 8.78282 65.8438 8.50874 65.5686C8.23466 65.2935 7.88516 65.1058 7.50442 65.0293C7.12367 64.9528 6.7288 64.991 6.36973 65.1389C6.01066 65.2868 5.70352 65.5379 5.48714 65.8604C5.27077 66.1829 5.15488 66.5623 5.15414 66.9506C5.15373 67.4712 5.35984 67.9707 5.72723 68.3395C6.09463 68.7083 6.59332 68.9163 7.1139 68.9179V68.9179Z" fill="#3F3D56"/>
<path d="M7.11786 67.7811C7.57446 67.7811 7.9446 67.4109 7.9446 66.9543C7.9446 66.4977 7.57446 66.1276 7.11786 66.1276C6.66126 66.1276 6.29111 66.4977 6.29111 66.9543C6.29111 67.4109 6.66126 67.7811 7.11786 67.7811Z" fill="#46FF9F"/>
<path d="M89.7721 84H88L88.3164 74L93 74.258L89.7721 84Z" fill="#FFB8B8"/>
<path d="M89.878 89.9792C89.2913 90.2212 88.8 88.2605 88.3051 88.7001C86.921 89.9295 85.4908 90.1973 83.6433 89.6605L83.6005 89.654C83.489 89.6216 83.3859 89.5691 83.2976 89.4996C83.2092 89.4302 83.1373 89.3452 83.0863 89.2499C83.0353 89.1546 83.0063 89.051 83.0009 88.9453C82.9955 88.8395 83.014 88.7339 83.0551 88.6348C83.1043 88.5162 83.1846 88.4102 83.2892 88.3259C83.3938 88.2415 83.5194 88.1814 83.6554 88.1507L85.1274 87.818L87.4388 84.1441L89.7983 84C90.3243 84.6061 90.6914 85.3122 90.872 86.0651C91.0526 86.8179 91.042 87.598 90.8409 88.3467C90.6268 89.1366 90.2962 89.8067 89.878 89.9792Z" fill="#2F2E41"/>
<path d="M107 82.3315L105.339 83L102 73.5252L106.483 72L107 82.3315Z" fill="#FFB8B8"/>
<path d="M109.711 88.0479C109.276 88.507 108.054 86.6928 107.78 87.3193C107.014 89.0718 105.825 89.8635 103.939 89.9893L103.898 89.9982C103.784 90.0057 103.67 89.9898 103.562 89.9514C103.455 89.9129 103.356 89.8527 103.272 89.7744C103.188 89.696 103.121 89.6013 103.074 89.4957C103.027 89.3902 103.002 89.2762 103 89.1605C102.998 89.0221 103.028 88.8852 103.09 88.7615C103.151 88.6378 103.241 88.531 103.352 88.4504L104.553 87.5775L105.19 83.0037L107.27 82C107.986 82.4249 108.599 83.0091 109.06 83.7087C109.522 84.4082 109.822 85.2049 109.936 86.0388C110.056 86.9194 110.022 87.7206 109.711 88.0479Z" fill="#2F2E41"/>
<path d="M101.611 33.2108L98.8227 33.9524C98.6117 34.0086 98.3913 34.0151 98.1775 33.9716C97.9637 33.9281 97.7621 33.8356 97.5874 33.701C97.4127 33.5663 97.2694 33.393 97.1679 33.1935C97.0665 32.9941 97.0095 32.7737 97.0011 32.5486C96.9934 32.3415 97.027 32.135 97.0998 31.942C97.1726 31.749 97.283 31.5735 97.4242 31.4265C97.5654 31.2796 97.7344 31.1642 97.9206 31.0877C98.1067 31.0113 98.3061 30.9752 98.5063 30.9819L100.962 31.0639L105.695 29.2813L101.222 25.8306L101.741 21L110.458 28.2393C110.614 28.3683 110.742 28.5292 110.834 28.7119C110.927 28.8945 110.982 29.0949 110.996 29.3006V29.3006C111.02 29.6463 110.927 29.9899 110.734 30.2728C110.54 30.5557 110.258 30.7604 109.935 30.852C107.892 32.5763 104.916 33.1044 101.611 33.2108Z" fill="#FFB8B8"/>
<path d="M95 15C97.7614 15 100 12.9853 100 10.5C100 8.01472 97.7614 6 95 6C92.2386 6 90 8.01472 90 10.5C90 12.9853 92.2386 15 95 15Z" fill="#FFB8B8"/>
<path d="M101 16.3922L94.5173 19C94.7076 16.9607 94.1705 14.9199 93 13.2353L98.3793 12C98.3094 13.6349 99.1978 15.0962 101 16.3922Z" fill="#FFB8B8"/>
<path d="M101.849 27.8829C96.8884 28.3146 94.1752 27.5984 90 24.9647L91.5711 20.9788C91.4922 20.3787 91.5671 19.7665 91.7875 19.2096C92.0078 18.6527 92.3652 18.1727 92.8202 17.8222L94.4515 16.5659L99.4267 15L99.6498 15.0121C100.312 15.0481 100.939 15.3452 101.414 15.8478C101.888 16.3504 102.178 17.024 102.229 17.7423C103.31 21.2543 103.317 24.6491 101.849 27.8829Z" fill="#46FF9F"/>
<path d="M100.305 35L89.7471 33.8132L88.965 30.3846C87.2314 27.7372 87.9881 25.3122 90.0078 23C93.6893 25.3902 97.1066 26.4231 102 25.6374C100.699 28.8391 99.4968 31.9857 100.305 35Z" fill="#2F2E41"/>
<path d="M109 76L100.352 75.5348L97.5363 53.3386L95.257 75.4019L85 74.9367C88.1288 60.4321 90.3024 46.6624 89.6927 34L100.419 34.9304C104.054 38.73 105.859 44.7953 106.922 52.0095C107.984 59.2237 108.841 67.5869 109 76Z" fill="#2F2E41"/>
<path d="M100 6C101.105 6 102 5.32843 102 4.5C102 3.67157 101.105 3 100 3C98.8954 3 98 3.67157 98 4.5C98 5.32843 98.8954 6 100 6Z" fill="#2F2E41"/>
<path d="M98.2252 4.41659C98.2543 4.03581 98.4541 3.67874 98.7839 3.41812C99.1137 3.1575 99.5485 3.01292 100 3.01384C99.9633 3.00991 99.927 3.00513 99.8896 3.00309C99.4197 2.97756 98.9569 3.11087 98.6032 3.37369C98.2495 3.63651 98.0339 4.00733 98.0037 4.40456C97.9734 4.80179 98.1312 5.19289 98.4421 5.49183C98.7531 5.79077 99.1918 5.97306 99.6618 5.9986C99.6991 6.00063 99.7359 5.99983 99.7729 5.9999C99.325 5.95195 98.9156 5.76149 98.628 5.46732C98.3405 5.17315 98.1964 4.7974 98.2252 4.41659V4.41659Z" fill="#2F2E41"/>
<path d="M98.4501 4.44523C96.9803 3.2418 92.7645 4.77131 92.4924 5.58039C90.5048 5.84773 89 6.99228 89 9.02737V9.02738C90.1817 9.50518 91.5256 9.44629 92.9784 9.02738C95.2943 10.8901 95.453 13.2318 94.0446 15.9214L95.7774 15.9556L97.9251 12.8574L98.0278 16L102 15.9214V11.4178C102.012 9.9204 101.663 8.44158 100.981 7.10407C100.362 5.91727 99.4016 5.22431 98.4501 4.44523Z" fill="#2F2E41"/>
<path d="M95 13C95.5523 13 96 12.3284 96 11.5C96 10.6716 95.5523 10 95 10C94.4477 10 94 10.6716 94 11.5C94 12.3284 94.4477 13 95 13Z" fill="#FFB8B8"/>
<path d="M88.7394 53C88.8085 53 88.8748 53.0276 88.9237 53.0767C88.9725 53.1258 89 53.1925 89 53.2619V63.7381C89 63.8076 88.9725 63.8742 88.9237 63.9233C88.8748 63.9724 88.8085 64 88.7394 64H81.2606C81.1915 64 81.1252 63.9724 81.0763 63.9233C81.0274 63.8742 81 63.8076 81 63.7381V53.2619C81 53.1925 81.0274 53.1258 81.0763 53.0767C81.1252 53.0276 81.1915 53 81.2606 53H88.7394" fill="#46FF9F"/>
<path d="M90.0403 48.3612L90.3022 52.9106C90.3191 53.2035 90.2707 53.4964 90.1604 53.7682C90.0502 54.0399 89.881 54.2837 89.665 54.4817C89.449 54.6798 89.1918 54.8271 88.9119 54.9132C88.6319 54.9992 88.3364 55.0217 88.0468 54.979C86.8932 54.809 86.8669 53.6786 87.1497 52.5452L88.2272 48.2272C90.8704 38.7319 91.584 29.412 91.4502 20.3225C91.4448 20.0143 91.5018 19.7081 91.6177 19.4225C91.7336 19.1369 91.906 18.8778 92.1246 18.6609C92.3432 18.4439 92.6034 18.2736 92.8895 18.1601C93.1757 18.0467 93.4817 17.9925 93.7893 18.0008C94.0894 18.0096 94.3848 18.0776 94.6585 18.2012C94.9322 18.3247 95.1788 18.5013 95.3841 18.7207C95.5894 18.9401 95.7494 19.198 95.8549 19.4796C95.9604 19.7612 96.0092 20.0609 95.9986 20.3614C95.6244 31.0349 94.0706 40.7276 90.0403 48.3612Z" fill="#FFB8B8"/>
</g>
<defs>
<clipPath id="clip0">
<rect width="111.043" height="90" fill="white"/>
</clipPath>
</defs>
</svg>
