<svg width="758" height="537" viewBox="0 0 758 537" fill="none" xmlns="http://www.w3.org/2000/svg">
<g clip-path="url(#clip0)">
<path opacity="0.1" d="M252.004 536.698C288.918 536.698 318.842 531.891 318.842 525.961C318.842 520.032 288.918 515.225 252.004 515.225C215.09 515.225 185.165 520.032 185.165 525.961C185.165 531.891 215.09 536.698 252.004 536.698Z" fill="#737373"/>
<path opacity="0.1" d="M615.33 537C661.393 537 698.734 532.193 698.734 526.263C698.734 520.334 661.393 515.526 615.33 515.526C569.267 515.526 531.925 520.334 531.925 526.263C531.925 532.193 569.267 537 615.33 537Z" fill="#737373"/>
<path opacity="0.1" d="M9.49342 232.023H79.1103V326.924H14.59C14.4185 327.898 14.2539 328.879 14.0756 329.86H79.1103V406.396C78.9937 406.362 78.8908 406.321 78.781 406.28C76.9427 405.553 75.118 404.784 73.2934 403.961L72.1273 403.433C70.2981 402.568 68.4689 401.653 66.6397 400.688C66.0018 400.352 65.3639 400.002 64.7328 399.646C54.5779 393.956 45.3527 386.747 37.3772 378.268C37.144 378.042 36.9245 377.802 36.6913 377.582C35.58 376.375 34.4894 375.154 33.433 373.905L32.2669 372.533C31.0185 371.003 29.8112 369.432 28.6382 367.84C28.4667 367.607 28.3021 367.374 28.1238 367.154C23.3533 360.539 19.3923 353.376 16.3255 345.818C16.2294 345.592 16.1471 345.345 16.0579 345.132C15.1159 342.708 14.2813 340.261 13.5542 337.791C13.2387 336.755 12.9369 335.733 12.6762 334.656C12.5802 334.34 12.4979 334.032 12.4224 333.723C8.52623 318.513 8.06665 302.713 8.06665 287.023C8.06665 285.192 8.06665 283.353 8.06665 281.535C8.06665 275.189 8.1421 268.802 8.25186 262.422C8.25186 260.768 8.32045 259.122 8.35475 257.461C8.45078 253.249 8.58797 249.037 8.76632 244.824C8.80747 243.651 8.86235 242.485 8.92409 241.319C8.92409 240.646 8.95838 239.974 9.02698 239.302C9.19161 236.859 9.3288 234.437 9.49342 232.023Z" fill="#CCCCCC"/>
<path opacity="0.1" d="M79.1103 126.357H40.9236C47.131 116.64 53.9134 107.302 61.2345 98.3936C66.9073 91.4233 72.8956 84.6314 79.1103 78.0864V126.357Z" fill="#CCCCCC"/>
<path opacity="0.1" d="M79.1105 129.293V229.086H9.71313C9.71313 228.798 9.76115 228.503 9.78173 228.215C9.84346 227.426 9.9052 226.637 9.97379 225.855C10.0492 224.936 10.1316 224.009 10.2207 223.111C10.3099 222.212 10.4059 221.114 10.5088 220.12C10.6117 219.125 10.7078 218.116 10.8244 217.122C10.941 216.127 11.0439 215.132 11.1673 214.144C11.2908 213.156 11.4006 212.155 11.5309 211.167C11.6338 210.343 11.7435 209.527 11.8533 208.704C12.0111 207.544 12.1757 206.378 12.354 205.225C12.354 205.054 12.402 204.876 12.4295 204.711C13.6815 196.274 15.3874 187.91 17.5398 179.656C19.7929 170.998 22.6699 162.515 26.1484 154.272C29.8455 145.65 34.1741 137.312 39.0991 129.328L79.1105 129.293Z" fill="#CCCCCC"/>
<path opacity="0.1" d="M95.731 232.016V326.924H244.424V232.016H95.731ZM95.731 329.854V411.356C96.5815 411.535 97.4253 411.706 98.2621 411.85C99.4008 412.07 100.533 412.269 101.692 412.44C101.911 412.475 102.138 412.509 102.378 412.53C102.831 412.605 103.297 412.667 103.75 412.729C104.895 412.886 106.034 413.017 107.179 413.12C107.721 413.175 108.27 413.223 108.819 413.264L110.143 413.367C110.863 413.421 111.576 413.463 112.283 413.483C112.722 413.483 113.161 413.524 113.614 413.538C113.957 413.538 114.3 413.538 114.656 413.538C115.013 413.538 115.521 413.538 115.953 413.538C116.543 413.538 117.133 413.538 117.716 413.538H118.504C119.094 413.538 119.684 413.538 120.267 413.483H120.308C120.713 413.483 121.125 413.483 121.536 413.428C121.651 413.435 121.765 413.435 121.879 413.428C122.222 413.428 122.565 413.428 122.894 413.38H123.135L125.433 413.202C126.187 413.133 126.948 413.044 127.717 412.962L129.281 412.777C135.643 411.885 141.935 410.546 148.11 408.77C161.98 404.901 175.548 399.488 189.411 395.522C207.335 390.411 227.138 387.9 244.458 394.15V329.854H95.731ZM244.424 126.357V0.00682505C228.145 -0.169575 211.909 1.73477 196.113 5.67361C158.461 15.1343 124.678 35.6541 95.731 61.8612V126.35H103.194V129.28H95.731V229.086H244.424V129.286H133.835V126.357H244.424ZM435.412 83.6777C426.097 83.3484 416.837 80.3984 408.462 75.843C392.445 67.1301 379.652 53.6766 365.357 42.3225C335.655 18.6743 298.82 4.40442 261.031 0.86439V126.357H473.297L473.826 125.801L435.412 83.6777ZM454.749 80.2474L475.252 102.75V74.3474C468.386 75.1981 462.37 77.2219 454.777 80.22L454.749 80.2474ZM475.252 431.595V329.854H431.564C431.448 329.421 431.331 328.982 431.194 328.543C431.324 328.982 431.434 329.421 431.557 329.854H261.058V403.433C262.677 404.633 264.275 405.896 265.86 407.178C267.568 408.551 269.255 409.998 270.95 411.418L272.658 412.832C273.474 413.518 274.297 414.204 275.127 414.849C276.773 416.184 278.435 417.501 280.114 418.8C280.944 419.486 281.794 420.104 282.638 420.749C296.033 430.991 310.162 440.234 324.913 448.403C328.219 450.233 331.555 452.019 334.921 453.761C337.164 454.907 339.421 456.046 341.684 457.15C345.087 458.811 348.517 460.411 351.974 461.953C383.847 476.263 417.551 486.082 452.122 491.131C459.8 492.265 467.508 493.157 475.245 493.806V431.588H475.931L475.252 431.595ZM261.058 129.286V229.086H475.28V129.286H261.058ZM261.058 232.016V326.924H475.28V232.016H261.058ZM491.907 74.2239V105.906L518.076 77.1876C509.406 75.7881 500.683 74.7887 491.907 74.1896V74.2239ZM491.907 232.05V326.924H700.264V232.016L491.907 232.05ZM699.502 439.128L700.236 329.854H491.907V494.897C505.328 495.461 518.769 495.301 532.172 494.417V494.417H532.405C538.808 494.014 545.18 493.429 551.523 492.66H551.667C585.505 488.722 618.593 479.892 649.895 466.446L699.502 439.128ZM740.44 247.644C739.658 245.799 738.842 243.967 738.012 242.156C736.461 238.725 734.822 235.391 733.134 232.057H716.877V326.924H757.979C757.959 300.058 751.161 272.616 740.46 247.61L740.44 247.644ZM716.877 329.888V423.877C728.456 412.777 738.238 400.078 745.283 385.561C753.754 368.08 757.63 349.152 757.945 329.874L716.877 329.888ZM716.877 204.395V229.093H731.612C727.154 220.591 722.243 212.335 716.898 204.361L716.877 204.395ZM575.572 92.8433C574.488 92.4317 573.405 92.0132 572.314 91.6084C560.811 87.3599 549.057 83.8269 537.118 81.0295L497.072 124.985L496.304 125.801L496.819 126.364H639.345C619.495 112.698 598.095 101.434 575.593 92.809L575.572 92.8433ZM643.522 129.321H494.829L491.907 131.996V229.086H517.52H517.562H700.291V182.057C683.761 162.063 664.683 144.322 643.543 129.286L643.522 129.321Z" fill="#CCCCCC"/>
<path opacity="0.1" d="M79.1105 179.629V229.086H9.71313C9.71313 228.798 9.76115 228.503 9.78173 228.215C9.84346 227.426 9.9052 226.637 9.97379 225.855C10.0492 224.936 10.1316 224.01 10.2207 223.111C10.3099 222.212 10.4059 221.114 10.5088 220.12C10.6117 219.125 10.7078 218.116 10.8244 217.122C10.941 216.127 11.0439 215.132 11.1673 214.144C11.2908 213.156 11.4006 212.155 11.5309 211.167C11.6338 210.343 11.7435 209.527 11.8533 208.704C12.0111 207.544 12.1757 206.378 12.354 205.225C12.354 205.054 12.402 204.876 12.4295 204.711C13.6815 196.274 15.3874 187.91 17.5398 179.656L79.1105 179.629Z" fill="#CCCCCC"/>
<path opacity="0.1" d="M9.49342 232.023H79.1103V326.924H14.59C14.4185 327.898 14.2539 328.879 14.0756 329.86H79.1103V406.396C78.9937 406.362 78.8908 406.321 78.781 406.28C76.9427 405.553 75.118 404.784 73.2934 403.961L72.1273 403.433C70.2981 402.568 68.4689 401.653 66.6397 400.688C66.0018 400.352 65.3639 400.002 64.7328 399.646C54.5779 393.956 45.3527 386.747 37.3772 378.268C37.144 378.042 36.9245 377.802 36.6913 377.582C35.58 376.375 34.4894 375.154 33.433 373.905L32.2669 372.533C31.0185 371.003 29.8112 369.432 28.6382 367.84C28.4667 367.607 28.3021 367.374 28.1238 367.154C23.3533 360.539 19.3923 353.376 16.3255 345.818C16.2294 345.592 16.1471 345.345 16.0579 345.132C15.1159 342.708 14.2813 340.261 13.5542 337.791C13.2387 336.755 12.9369 335.733 12.6762 334.656C12.5802 334.34 12.4979 334.032 12.4224 333.723C8.52623 318.513 8.06665 302.713 8.06665 287.023C8.06665 285.192 8.06665 283.353 8.06665 281.535C8.06665 275.189 8.1421 268.802 8.25186 262.422C8.25186 260.768 8.32045 259.122 8.35475 257.461C8.45078 253.249 8.58797 249.037 8.76632 244.824C8.80747 243.651 8.86235 242.485 8.92409 241.319C8.92409 240.646 8.95838 239.974 9.02698 239.302C9.19161 236.859 9.3288 234.437 9.49342 232.023Z" fill="#CCCCCC"/>
<path opacity="0.1" d="M148.076 143.577V229.086H95.731V143.577H103.194V114.625H133.829V143.577H148.076Z" fill="#CCCCCC"/>
<path opacity="0.1" d="M148.076 232.016H95.7378V326.917H148.076V232.016Z" fill="#CCCCCC"/>
<path opacity="0.1" d="M95.731 329.86H148.076V408.756C141.901 410.531 135.609 411.867 129.246 412.756L127.682 412.948C126.914 413.037 126.153 413.113 125.398 413.188C124.644 413.264 123.862 413.319 123.1 413.367H122.86C122.531 413.367 122.174 413.408 121.852 413.415H121.502C121.09 413.415 120.679 413.456 120.267 413.47C119.684 413.504 119.101 413.511 118.504 413.518C118.251 413.518 118.011 413.518 117.757 413.518C117.167 413.518 116.584 413.518 115.994 413.518H114.697C114.348 413.518 114.011 413.518 113.648 413.518L112.324 413.47C111.638 413.47 110.897 413.394 110.184 413.346L108.867 413.25L107.227 413.099C106.075 412.996 104.93 412.866 103.798 412.708L102.426 412.516L101.74 412.42C100.594 412.242 99.4625 412.049 98.3101 411.83C97.4664 411.686 96.6295 411.507 95.779 411.336L95.731 329.86Z" fill="#CCCCCC"/>
<path opacity="0.1" d="M475.28 133.478H432.12V229.079H475.28V133.478Z" fill="#CCCCCC"/>
<path opacity="0.1" d="M475.286 232.016V326.924H261.058V285.987H375.166V310.136H432.12V232.016H475.286Z" fill="#CCCCCC"/>
<path opacity="0.1" d="M475.966 431.616H475.28V493.875C467.551 493.221 459.846 492.331 452.163 491.206C417.575 486.141 383.857 476.301 351.974 461.966C342.768 457.823 333.75 453.299 324.92 448.396C310.169 440.223 296.038 430.98 282.638 420.742C279.272 418.162 275.95 415.523 272.671 412.825C270.401 410.952 268.144 409.031 265.86 407.165C264.275 405.882 262.677 404.619 261.058 403.412V329.86H431.55C431.434 329.421 431.317 328.982 431.194 328.55C431.324 328.982 431.448 329.421 431.564 329.86H475.28V431.574C475.513 431.581 475.739 431.602 475.966 431.616Z" fill="#CCCCCC"/>
<path opacity="0.1" d="M587.844 126.357H559.72V117.617H572.327V91.5811C573.42 91.979 574.509 92.3883 575.593 92.8091V117.617H587.844V126.357Z" fill="#CCCCCC"/>
<path opacity="0.1" d="M655.602 229.086H517.534C517.534 229.086 517.534 229.086 517.582 229.121L517.52 229.086H491.907V133.485H499.164V204.148H532.33V162.299H559.727V129.293H587.851V162.327H615.247V204.176H655.602V229.086Z" fill="#CCCCCC"/>
<path opacity="0.1" d="M491.907 232.016V326.924H655.602V232.016H491.907ZM700.037 438.641L700.264 363.518H655.602V329.902H491.907V494.897C505.328 495.461 518.769 495.301 532.172 494.417V494.417H532.405C538.808 494.014 545.18 493.429 551.523 492.66H551.667C585.505 488.722 618.593 479.892 649.895 466.446" fill="#CCCCCC"/>
<path opacity="0.1" d="M719.786 329.86H757.972C757.636 349.132 753.768 368.06 745.303 385.54C738.258 400.064 728.47 412.763 716.905 423.856V363.484H719.786V329.86Z" fill="#CCCCCC"/>
<path opacity="0.1" d="M757.993 326.924H719.786V247.61H740.46C751.161 272.616 757.959 300.058 757.993 326.924Z" fill="#CCCCCC"/>
<path opacity="0.1" d="M475.286 160.056H452.163V190.029H475.286V160.056Z" fill="#CCCCCC"/>
<path opacity="0.1" d="M475.286 222.185H452.163V229.086H475.286V222.185Z" fill="#CCCCCC"/>
<path opacity="0.1" d="M475.286 232.016H452.163V252.151H475.286V232.016Z" fill="#CCCCCC"/>
<path opacity="0.1" d="M475.286 284.313H452.163V314.287H475.286V284.313Z" fill="#CCCCCC"/>
<path opacity="0.1" d="M475.286 346.442H452.163V376.416H475.286V346.442Z" fill="#CCCCCC"/>
<path opacity="0.1" d="M475.28 431.574C475.513 431.574 475.739 431.574 475.965 431.616H475.28V438.579H452.163V408.571H475.28V431.574Z" fill="#CCCCCC"/>
<path opacity="0.1" d="M475.28 470.686V493.841C467.551 493.186 459.846 492.297 452.163 491.172V470.686H475.28Z" fill="#CCCCCC"/>
<path opacity="0.1" d="M360.157 324.722H261.058V326.924H360.157V324.722Z" fill="#CCCCCC"/>
<path opacity="0.1" d="M360.157 329.854H261.058V338.292H360.157V329.854Z" fill="#CCCCCC"/>
<path opacity="0.1" d="M360.157 365.954H261.058V379.524H360.157V365.954Z" fill="#CCCCCC"/>
<path opacity="0.1" d="M360.15 407.185V420.755H282.638C279.272 418.185 275.948 415.546 272.664 412.838C270.394 410.965 268.144 409.045 265.853 407.185H360.15Z" fill="#CCCCCC"/>
<path opacity="0.1" d="M360.15 448.41V461.966H351.967C342.771 457.818 333.755 453.293 324.92 448.39L360.15 448.41Z" fill="#CCCCCC"/>
<path opacity="0.1" d="M551.687 241.216H532.179V260.727H551.687V241.216Z" fill="#CCCCCC"/>
<path opacity="0.1" d="M129.294 150.307H109.786V169.818H129.294V150.307Z" fill="#CCCCCC"/>
<path opacity="0.1" d="M129.294 195.628H109.786V215.139H129.294V195.628Z" fill="#CCCCCC"/>
<path opacity="0.1" d="M129.294 240.948H109.786V260.459H129.294V240.948Z" fill="#CCCCCC"/>
<path opacity="0.1" d="M129.294 286.262H109.786V305.773H129.294V286.262Z" fill="#CCCCCC"/>
<path opacity="0.1" d="M129.294 331.582H109.786V351.094H129.294V331.582Z" fill="#CCCCCC"/>
<path opacity="0.1" d="M129.294 376.903H109.786V396.414H129.294V376.903Z" fill="#CCCCCC"/>
<path opacity="0.1" d="M626.161 241.216H606.652V260.727H626.161V241.216Z" fill="#CCCCCC"/>
<path opacity="0.1" d="M551.687 289.342H532.179V308.854H551.687V289.342Z" fill="#CCCCCC"/>
<path opacity="0.1" d="M626.161 289.342H606.652V308.854H626.161V289.342Z" fill="#CCCCCC"/>
<path opacity="0.1" d="M551.687 337.462H532.179V356.973H551.687V337.462Z" fill="#CCCCCC"/>
<path opacity="0.1" d="M626.161 337.462H606.652V356.973H626.161V337.462Z" fill="#CCCCCC"/>
<path opacity="0.1" d="M551.687 385.588H532.179V405.1H551.687V385.588Z" fill="#CCCCCC"/>
<path opacity="0.1" d="M626.161 385.588H606.652V405.1H626.161V385.588Z" fill="#CCCCCC"/>
<path opacity="0.1" d="M551.687 433.715H532.179V453.226H551.687V433.715Z" fill="#CCCCCC"/>
<path opacity="0.1" d="M626.161 433.715H606.652V453.226H626.161V433.715Z" fill="#CCCCCC"/>
<path opacity="0.1" d="M532.179 494.417V481.835H551.681V492.626L532.179 494.417Z" fill="#CCCCCC"/>
<path opacity="0.1" d="M12.3472 204.697V215.859H79.1105V204.697H12.3472ZM19.0009 215.159H13.5544V205.383H19.042L19.0009 215.159ZM25.6477 215.159H20.1601V205.383H25.6477V215.159ZM32.2808 215.159H26.7932V205.383H32.2808V215.159ZM38.9277 215.159H33.4469V205.383H38.9345L38.9277 215.159ZM45.5676 215.159H40.08V205.383H45.5676V215.159ZM52.2145 215.159H46.7269V205.383H52.2145V215.159ZM58.8613 215.159H53.3737V205.383H58.8613V215.159ZM65.5013 215.159H60.0137V205.383H65.5013V215.159ZM72.1413 215.159H66.6537V205.383H72.1413V215.159ZM78.7812 215.159H73.2936V205.383H78.7812V215.159Z" fill="#CCCCCC"/>
<path opacity="0.1" d="M12.3472 237.175V248.337H79.1105V237.175H12.3472ZM19.0009 247.63H13.5544V237.881H19.042L19.0009 247.63ZM25.6477 247.63H20.1601V237.881H25.6477V247.63ZM32.2808 247.63H26.7932V237.881H32.2808V247.63ZM38.9277 247.63H33.4469V237.881H38.9345L38.9277 247.63ZM45.5676 247.63H40.08V237.881H45.5676V247.63ZM52.2145 247.63H46.7269V237.881H52.2145V247.63ZM58.8613 247.63H53.3737V237.881H58.8613V247.63ZM65.5013 247.63H60.0137V237.881H65.5013V247.63ZM72.1413 247.63H66.6537V237.881H72.1413V247.63ZM78.7812 247.63H73.2936V237.881H78.7812V247.63Z" fill="#CCCCCC"/>
<path opacity="0.1" d="M12.3472 269.666V280.849H79.1105V269.666H12.3472ZM19.0009 280.122H13.5544V270.366H19.042L19.0009 280.122ZM25.6477 280.122H20.1601V270.366H25.6477V280.122ZM32.2808 280.122H26.7932V270.366H32.2808V280.122ZM38.9277 280.122H33.4469V270.366H38.9345L38.9277 280.122ZM45.5676 280.122H40.08V270.366H45.5676V280.122ZM52.2145 280.122H46.7269V270.366H52.2145V280.122ZM58.8613 280.122H53.3737V270.366H58.8613V280.122ZM65.5013 280.122H60.0137V270.366H65.5013V280.122ZM72.1413 280.122H66.6537V270.366H72.1413V280.122ZM78.7812 280.122H73.2936V270.366H78.7812V280.122Z" fill="#CCCCCC"/>
<path opacity="0.1" d="M12.3472 302.158V313.306H79.1105V302.158H12.3472ZM19.0009 312.613H13.5544V302.851H19.042L19.0009 312.613ZM25.6477 312.613H20.1601V302.851H25.6477V312.613ZM32.2808 312.613H26.7932V302.851H32.2808V312.613ZM38.9277 312.613H33.4469V302.851H38.9345L38.9277 312.613ZM45.5676 312.613H40.08V302.851H45.5676V312.613ZM52.2145 312.613H46.7269V302.851H52.2145V312.613ZM58.8613 312.613H53.3737V302.851H58.8613V312.613ZM65.5013 312.613H60.0137V302.851H65.5013V312.613ZM72.1413 312.613H66.6537V302.851H72.1413V312.613ZM78.7812 312.613H73.2936V302.851H78.7812V312.613Z" fill="#CCCCCC"/>
<path opacity="0.1" d="M12.6353 334.642C12.9028 335.692 13.2046 336.742 13.5201 337.777V335.342H19.0077V345.098H16.0718C16.161 345.324 16.2502 345.571 16.3394 345.784H79.1105V334.642H12.6353ZM25.6683 345.098H20.1807V335.342H25.6683V345.098ZM32.3014 345.098H26.8138V335.342H32.3014V345.098ZM38.9482 345.098H33.4469V335.342H38.9345L38.9482 345.098ZM45.5882 345.098H40.1006V335.342H45.5882V345.098ZM52.235 345.098H46.7474V335.342H52.235V345.098ZM58.8819 345.098H53.3943V335.342H58.8819V345.098ZM65.5218 345.098H60.0342V335.342H65.5218V345.098ZM72.1618 345.098H66.6742V335.342H72.1618V345.098ZM78.8018 345.098H73.3142V335.342H78.8018V345.098Z" fill="#CCCCCC"/>
<path opacity="0.1" d="M28.1377 367.134C28.3092 367.353 28.4738 367.6 28.6522 367.82H32.2808V372.505C32.6718 372.972 33.0559 373.438 33.4538 373.878V367.792H38.9414V377.582H36.7189C36.9384 377.809 37.151 378.049 37.4048 378.268H79.1311V367.134H28.1377ZM45.5676 377.582H40.08V367.833H45.5676V377.582ZM52.2145 377.582H46.7269V367.833H52.2145V377.582ZM58.8613 377.582H53.3737V367.833H58.8613V377.582ZM65.5013 377.582H60.0137V367.833H65.5013V377.582ZM72.1413 377.582H66.6537V367.833H72.1413V377.582ZM78.7812 377.582H73.2936V367.833H78.7812V377.582Z" fill="#CCCCCC"/>
<path opacity="0.1" d="M64.7603 399.618C65.3845 399.975 66.0224 400.304 66.6672 400.661V400.318H72.1548V403.405L73.3209 403.947V400.318H78.8085V406.252C78.9137 406.305 79.024 406.346 79.1377 406.376V399.618H64.7603Z" fill="#CCCCCC"/>
<path opacity="0.1" d="M517.534 229.086H517.575H517.534ZM475.28 431.568H475.966H475.28ZM431.194 328.543C431.324 328.982 431.434 329.421 431.557 329.854C431.448 329.421 431.331 328.982 431.194 328.543ZM517.534 229.066H517.575H517.534ZM103.221 126.336V129.266H133.863V126.336H103.221ZM475.28 431.568H475.966H475.28ZM431.194 328.543C431.324 328.982 431.434 329.421 431.557 329.854C431.448 329.421 431.331 328.982 431.194 328.543ZM517.534 229.066H517.575H517.534ZM475.28 431.547H475.966H475.28ZM431.194 328.543C431.324 328.982 431.434 329.421 431.557 329.854C431.448 329.421 431.331 328.982 431.194 328.543Z" fill="#46FF9F"/>
<path d="M316.634 260.473C316.634 260.473 313.931 260.096 313.931 256.158C313.931 252.22 311.997 244.866 311.997 244.866C311.997 244.831 310.323 232.057 308.011 230.026C305.7 227.996 302.729 216.072 302.729 216.072C302.729 216.072 302.222 209.602 301.186 208.21C300.15 206.817 298.751 203.407 296.686 198.543C294.622 193.679 286.013 190.311 286.013 190.311C286.013 190.311 270.449 181.282 266.038 178.339C265.637 178.097 265.262 177.815 264.92 177.495C264.152 176.487 260.804 176.466 260.804 176.466C260.454 174.257 260.118 171.719 260.009 169.42C260.009 169.173 260.009 168.926 259.974 168.68C264.892 165.772 268.597 161.188 270.408 155.768C270.49 155.507 270.558 155.233 270.634 154.972C270.929 154.875 271.2 154.718 271.43 154.51C271.66 154.302 271.845 154.048 271.972 153.765C272.369 152.88 272.376 151.844 272.87 151.021C273.446 150.046 274.544 149.525 275.408 148.791C277.589 146.939 278.152 143.817 278.049 140.977C277.98 138.678 277.61 136.36 277.754 134.075L277.795 133.499C277.836 133.156 277.884 132.813 277.946 132.483C278.282 130.782 279.016 129.177 279.428 127.489C279.839 125.801 279.881 123.901 278.92 122.447C277.514 120.313 274.585 119.888 272.013 119.668C269.097 119.421 266.491 119.743 264.625 117.322C263.752 116.056 262.769 114.869 261.689 113.775C261.305 113.418 257.573 111.14 257.573 110.989C253.931 109.302 249.803 108.986 245.947 110.098C244.012 110.66 242.188 111.579 240.226 112.039C235.994 113.041 231.123 111.957 227.529 114.379C225.526 115.751 224.326 117.932 223.201 120.059C222.286 121.811 221.358 123.56 220.416 125.307C218.9 128.182 217.356 131.104 216.718 134.288C216.584 134.98 216.502 135.682 216.472 136.387V136.421C216.472 136.675 216.472 136.929 216.472 137.183V137.505C216.472 137.745 216.471 137.979 216.513 138.191C216.554 138.404 216.547 138.473 216.568 138.617C216.588 138.761 216.622 139.083 216.664 139.303C216.705 139.522 216.787 139.907 216.869 140.208C216.904 140.339 216.952 140.462 216.993 140.586C217.061 140.819 217.144 141.045 217.233 141.272C217.281 141.388 217.329 141.512 217.384 141.629C217.487 141.869 217.61 142.102 217.734 142.315C217.789 142.411 217.83 142.5 217.885 142.589C218.076 142.908 218.287 143.215 218.516 143.508C219.984 145.34 222.144 146.506 223.743 148.221C223.743 148.29 223.743 148.359 223.743 148.42C223.743 148.613 223.743 148.798 223.743 148.99C223.827 152.815 224.845 156.561 226.708 159.903C228.57 163.245 231.221 166.081 234.43 168.165C234.43 168.426 234.464 168.693 234.478 168.954C234.611 170.99 234.586 173.034 234.402 175.067C234.123 174.738 233.773 174.476 233.379 174.3C232.985 174.124 232.556 174.039 232.125 174.051C231.83 174.037 231.535 174.062 231.247 174.127L231.185 174.079V174.14C229.676 174.511 227.817 176.082 226.04 180.548C226.04 180.548 220.635 186.64 216.52 186.387C212.404 186.133 201.984 192.726 201.984 192.726C201.984 192.726 191.819 199.325 189.637 206.049C188.418 209.861 186.956 213.592 185.261 217.218L172.694 243.116L170.376 263.663C170.376 263.663 171.659 272.802 171.405 274.194C171.151 275.587 176.68 288.149 176.68 288.149C176.68 288.149 194.946 320.249 202.41 321.895L202.945 321.518C203.264 321.685 203.603 321.812 203.953 321.895L205.489 320.811C205.582 322.02 205.543 323.234 205.373 324.434C204.344 327.603 205.757 348.288 207.554 352.342C209.351 356.397 208.713 409.559 208.713 409.559L208.46 414.252C208.46 414.252 208.46 414.403 208.521 414.663L208.46 415.775L208.645 415.871C208.837 417.359 208.775 418.87 208.46 420.337C207.815 422.395 207.554 428.213 207.554 428.213C207.554 428.213 202.416 461.061 204.852 467.661C207.287 474.261 209.358 481.492 209.358 481.492C209.358 481.492 211.931 489.724 209.482 491.131C207.033 492.537 200.07 494.897 201.504 498.327C202.807 501.497 207.753 509.99 208.487 511.232L208.425 511.884L207.417 522.812C207.58 524.255 207.972 525.663 208.576 526.984C209.681 529.364 211.828 531.834 215.909 531.567C216.595 531.518 217.391 531.436 218.159 531.333C225.629 530.332 234.827 526.997 234.827 526.997C234.35 526.694 233.912 526.332 233.524 525.92V525.92C233.157 525.565 232.866 525.138 232.669 524.666C232.472 524.194 232.373 523.687 232.379 523.176C232.488 521.187 228.764 511.705 227.838 509.373C227.694 509.037 227.618 508.844 227.618 508.844C227.618 508.844 236.11 499.967 234.697 492.098C234.697 492.098 225.3 486.61 228.393 483.598C231.487 480.586 237.016 471.935 237.016 471.935C237.016 471.935 237.269 439.588 237.016 434.758C236.751 431.406 236.91 428.033 237.489 424.721C237.592 424.22 237.715 423.733 237.846 423.253C242.124 423.891 246.443 424.219 250.769 424.234C252.347 424.234 253.952 424.234 255.571 424.138C255.571 424.595 255.591 425.089 255.632 425.62C255.989 433.633 256.654 447.683 257.196 452.904C257.964 460.389 262.211 480.559 262.211 480.559C262.211 480.559 254.109 485.759 263.624 498.574C263.624 498.574 263.624 503.219 262.992 503.891C262.319 506.089 261.776 508.325 261.367 510.587C260.969 513.002 260.804 515.444 261.449 516.713C262.992 519.746 272.253 519.499 272.253 519.499L272.479 519.458C274.227 519.277 275.994 519.445 277.677 519.953C279.359 520.46 280.925 521.297 282.281 522.415C285.8 525.241 299.156 523.999 306.386 523.101C309.219 522.744 311.112 522.415 311.112 522.415C311.204 522.094 311.236 521.759 311.208 521.427C311.132 519.65 309.74 515.753 300.301 512.275C300.301 512.275 291.425 506.306 291.548 501.106H291.363H290.334C291.082 501.065 291.562 501.106 291.562 501.106C291.562 501.106 288.084 488.414 289.504 487.385C290.924 486.356 286.671 472.292 286.671 472.292C286.671 472.292 284.236 448.691 284.106 447.038C284.111 445.619 284.326 444.209 284.744 442.853L284.106 429.914C284.106 429.914 283.982 425.613 284.106 424.213C284.085 422.998 283.987 421.786 283.811 420.584C283.749 420.104 283.688 419.603 283.619 419.109C286.946 418.265 289.107 417.483 289.107 417.483L288.722 372.444C291.548 366.955 292.07 354.915 292.056 346.374C292.056 340.885 291.809 336.824 291.809 336.824L295.671 330.519C295.671 330.519 296.563 322.972 295.15 321.319C294.525 320.571 294.807 319.796 295.321 319.158C295.588 318.946 295.87 318.754 296.165 318.582C296.165 318.582 296.124 318.52 296.076 318.431C296.345 318.206 296.632 318.001 296.933 317.82C296.933 317.82 295.561 315.693 296.789 314.795C297.942 315.577 298.97 316.167 299.752 316.647C299.698 317.148 299.643 317.436 299.643 317.436L299.972 316.75C300.726 317.175 301.186 317.436 301.186 317.436C301.186 317.436 307.236 305.382 307.106 303.605C306.975 301.828 311.221 294.344 311.221 294.344C311.221 294.344 311.736 290.413 314.054 288.766C316.373 287.119 315.852 275.189 315.852 275.189C315.852 275.189 316.496 268.973 318.04 266.435C319.583 263.897 316.634 260.473 316.634 260.473ZM200.873 255.184L200.99 258.058C200.304 256.954 199.81 256.158 199.81 256.158L200.873 255.184Z" fill="url(#paint0_linear)"/>
<path d="M301.515 312.229L300.034 318.541C300.034 318.541 288.167 312.483 286.027 304.785C283.886 297.088 289.607 294.165 289.607 294.165L300.665 298.851L301.515 312.229Z" fill="white"/>
<path opacity="0.1" d="M301.515 312.229L300.034 318.541C300.034 318.541 288.167 312.483 286.027 304.785C283.886 297.088 289.607 294.165 289.607 294.165L300.665 298.851L301.515 312.229Z" fill="black"/>
<path d="M234.917 527.039C234.917 527.039 223.941 531.072 216.396 531.58C212.39 531.848 210.284 529.392 209.2 527.025C208.608 525.709 208.226 524.308 208.069 522.874L209.05 512L209.571 506.21L225.601 502.046L227.872 508.989L228.085 509.517C228.997 511.836 232.653 521.269 232.543 523.238C232.539 523.742 232.636 524.242 232.829 524.708C233.023 525.173 233.308 525.595 233.668 525.948C234.036 526.363 234.456 526.729 234.917 527.039V527.039Z" fill="white"/>
<path d="M309.884 521.509C309.911 521.839 309.879 522.171 309.788 522.49C309.788 522.49 286.315 526.407 281.513 522.49C280.159 521.346 278.581 520.497 276.88 519.998C275.179 519.5 273.393 519.362 271.635 519.595C271.635 519.595 262.553 519.842 261.038 516.851C260.406 515.595 260.571 513.16 260.962 510.759C261.361 508.509 261.892 506.284 262.553 504.097L262.917 503.809L265.078 502.073L290.375 501.325H290.568C290.444 506.498 299.156 512.432 299.156 512.432C308.409 515.863 309.774 519.739 309.884 521.509Z" fill="white"/>
<path opacity="0.1" d="M309.884 521.509C309.908 521.839 309.873 522.172 309.781 522.49C309.781 522.49 286.315 526.407 281.513 522.49C280.16 521.346 278.583 520.498 276.883 520C275.184 519.501 273.398 519.363 271.642 519.595C271.642 519.595 262.553 519.842 261.044 516.851C260.413 515.588 260.571 513.16 260.962 510.758C264.46 511.108 269.982 511.98 272.15 514.058C275.429 517.221 280.985 520.377 284.394 520.624C287.062 520.795 303.024 521.303 309.884 521.509Z" fill="black"/>
<path opacity="0.1" d="M234.917 527.038C234.917 527.038 223.941 531.072 216.396 531.58C212.39 531.848 210.284 529.392 209.207 527.018C211.999 527.958 215.875 528.946 217.912 528.04C220.326 526.97 228.887 526.277 233.689 525.982C234.054 526.382 234.466 526.737 234.917 527.038V527.038Z" fill="black"/>
<path d="M251.201 201.953C242.147 198.434 230.499 186.805 233.408 181.371C234.053 180 234.437 178.52 234.539 177.008C234.726 174.955 234.754 172.891 234.622 170.834C234.418 167.465 234.012 164.111 233.408 160.79C233.408 160.79 261.675 161.428 260.029 165.592C259.549 166.813 259.474 168.933 259.604 171.307C259.734 173.681 260.077 176.363 260.434 178.634C260.928 181.749 261.422 184.123 261.422 184.123C261.422 184.123 259.693 186.544 258.678 186.675C257.663 186.805 264.193 206.968 251.201 201.953Z" fill="#E1A976"/>
<path opacity="0.1" d="M228.064 509.517L227.851 509.75C219.4 499.528 209.18 512.268 209.18 512.268L209.029 512L209.55 506.21L225.581 502.046L227.851 508.989L228.064 509.517Z" fill="black"/>
<path opacity="0.1" d="M290.574 502.046C290.574 502.046 284.401 501.915 281.108 504.824C277.816 507.733 261.902 505.455 262.588 504.824C262.791 504.511 262.914 504.153 262.945 503.781L265.105 502.046L290.403 501.298C290.499 501.758 290.574 502.046 290.574 502.046Z" fill="black"/>
<path d="M238.58 421.771C238.12 422.908 237.771 424.086 237.537 425.29C236.965 428.587 236.806 431.943 237.064 435.279C237.317 440.081 237.064 472.264 237.064 472.264C237.064 472.264 231.638 480.847 228.613 483.872C225.588 486.898 234.786 492.331 234.786 492.331C236.158 500.152 227.844 508.989 227.844 508.989C219.394 498.766 209.173 511.513 209.173 511.513C209.173 511.513 203.617 501.908 202.231 498.478C200.846 495.048 207.657 492.674 210.051 491.282C212.445 489.889 209.934 481.677 209.934 481.677C209.934 481.677 207.911 474.48 205.51 467.915C203.109 461.349 208.158 428.666 208.158 428.666C208.158 428.666 208.418 422.862 209.043 420.838C209.358 419.377 209.42 417.874 209.228 416.392C209.187 415.891 209.139 415.473 209.104 415.192C209.07 414.91 209.043 414.78 209.043 414.78L209.139 414.615L212.568 408.221C212.568 408.221 240.226 417.744 238.58 421.771Z" fill="#565656"/>
<path d="M290.574 501.291C290.574 501.291 284.401 501.161 281.108 504.035C277.816 506.91 261.902 504.666 262.588 504.035C263.274 503.404 263.219 498.732 263.219 498.732C253.883 485.985 261.847 480.812 261.847 480.812C261.847 480.812 257.676 460.745 256.922 453.302C256.394 448.101 255.742 434.127 255.392 426.148C255.241 422.718 255.152 420.358 255.152 420.358L262.78 418.821L263.761 418.622L282.158 414.931C282.158 414.931 282.665 418.361 283.008 421.167C283.179 422.365 283.276 423.573 283.297 424.783C283.173 426.155 283.297 430.449 283.297 430.449L283.921 443.327C283.513 444.677 283.303 446.08 283.297 447.491C283.42 449.131 285.814 472.607 285.814 472.607C285.814 472.607 289.978 486.616 288.558 487.625C287.138 488.633 290.574 501.291 290.574 501.291Z" fill="#565656"/>
<path opacity="0.1" d="M260.029 165.592C259.549 166.813 259.474 168.933 259.604 171.307C255.817 173.588 251.465 174.753 247.046 174.671C242.626 174.588 238.32 173.261 234.622 170.841C234.418 167.469 234.013 164.113 233.408 160.79C233.408 160.79 261.675 161.414 260.029 165.592Z" fill="black"/>
<path d="M270.956 150.43C270.962 152.903 270.573 155.36 269.804 157.709C268.085 162.974 264.561 167.461 259.855 170.379C255.148 173.296 249.562 174.455 244.083 173.651C238.605 172.847 233.587 170.132 229.916 165.986C226.245 161.84 224.158 156.529 224.024 150.993C224.024 150.801 224.024 150.623 224.024 150.43C223.97 147.314 224.538 144.218 225.694 141.324C226.849 138.429 228.57 135.794 230.754 133.571C232.939 131.348 235.544 129.583 238.418 128.378C241.292 127.173 244.377 126.552 247.493 126.552C250.61 126.552 253.695 127.173 256.569 128.378C259.443 129.583 262.048 131.348 264.233 133.571C266.417 135.794 268.138 138.429 269.293 141.324C270.449 144.218 271.016 147.314 270.963 150.43H270.956Z" fill="#E1A976"/>
<path opacity="0.1" d="M251.201 201.953C242.147 198.434 230.499 186.805 233.408 181.371C234.053 180 234.437 178.52 234.539 177.008L246.934 187.196L254.603 193.487L260.434 178.641C260.928 181.756 261.422 184.129 261.422 184.129C261.422 184.129 259.693 186.551 258.678 186.681C257.663 186.812 264.193 206.968 251.201 201.953Z" fill="black"/>
<path d="M283.255 246.979L272.904 420.893L259.405 421.778L224.449 320.935L230.184 201.212L231.391 175.917L246.934 188.685L254.61 194.976L260.612 179.697L271.773 189.426L283.255 246.979Z" fill="#46FF9F"/>
<path opacity="0.1" d="M238.58 421.771C238.12 422.908 237.771 424.086 237.537 425.29C227.714 423.773 218.174 420.793 209.235 416.447L209.05 416.351L209.111 415.246L209.146 414.67L212.575 408.276C212.575 408.276 240.226 417.744 238.58 421.771Z" fill="black"/>
<path opacity="0.1" d="M262.938 425.318C260.426 425.745 257.894 426.033 255.351 426.182C255.2 422.752 255.111 420.392 255.111 420.392L262.739 418.855L262.938 425.318Z" fill="black"/>
<path opacity="0.1" d="M282.967 421.201C278.09 422.471 270.558 423.898 263.816 423.006L263.72 418.656L282.117 414.965C282.117 414.965 282.624 418.361 282.967 421.201Z" fill="black"/>
<path opacity="0.1" d="M263.692 423.802C235.568 428.604 209.811 414.835 209.811 414.835L210.058 410.17C210.058 410.17 210.696 357.282 208.926 353.227C207.156 349.173 205.777 328.612 206.779 325.456C207.78 322.3 203.123 274.976 203.123 274.976L202.368 255.767L174.752 244.577L187.099 218.837C188.767 215.228 190.201 211.515 191.393 207.723C193.54 201.041 203.507 194.475 203.507 194.475C203.507 194.475 213.728 187.916 217.768 188.163C221.808 188.41 227.104 182.359 227.104 182.359C231.014 172.391 234.553 176.905 234.553 176.905C234.553 177.379 234.553 176.905 234.361 178.38C232.989 189.323 256.545 223.9 256.881 224.51L259.124 279.161L261.394 348.322L263.692 423.802Z" fill="black"/>
<path d="M262.938 423.801C234.814 428.604 209.049 414.835 209.049 414.835L209.303 410.17C209.303 410.17 209.941 357.282 208.165 353.227C206.388 349.173 205.016 328.612 206.024 325.456C207.033 322.3 202.368 274.976 202.368 274.976L201.607 255.767L173.977 244.536L186.324 218.796C187.988 215.185 189.422 211.473 190.618 207.682C192.758 200.999 202.732 194.434 202.732 194.434C202.732 194.434 212.953 187.875 216.986 188.122C221.019 188.369 226.322 182.318 226.322 182.318C230.238 172.35 234.553 176.864 234.553 176.864C234.553 177.337 234.141 177.55 234.361 178.339C237.379 188.952 255.79 223.859 256.126 224.469L258.397 279.12L260.667 348.281L262.938 423.801Z" fill="white"/>
<path opacity="0.1" d="M255.358 226.027C252.333 224.764 236.309 206.467 236.309 206.467V202.303C235.726 200.931 232.262 201.768 229.45 202.728L230.657 177.434L232.029 178.572C235.033 189.179 255.008 225.416 255.358 226.027Z" fill="black"/>
<path d="M256.119 224.51C253.087 223.248 237.064 204.951 237.064 204.951V200.787C236.481 199.415 233.016 200.252 230.204 201.212L231.418 175.917L232.79 177.056C235.801 187.663 255.783 223.907 256.119 224.51Z" fill="white"/>
<path opacity="0.1" d="M209.811 315.762C210.188 315.762 229.367 313.745 229.367 313.745C229.367 313.745 240.98 336.584 240.219 342.141C239.458 347.698 238.079 352.617 233.408 351.746C228.736 350.874 208.268 352.432 208.268 352.432L209.811 315.762Z" fill="black"/>
<path d="M209.05 314.246C209.427 314.246 228.606 312.229 228.606 312.229C228.606 312.229 240.212 335.074 239.458 340.625C238.703 346.175 237.311 351.101 232.646 350.229C227.982 349.358 207.506 350.915 207.506 350.915L209.05 314.246Z" fill="white"/>
<path d="M223.502 303.523C223.502 303.523 241.104 312.984 241.481 315.872C241.858 318.76 232.523 314.61 230.506 314.109C229.179 313.789 227.827 313.578 226.466 313.478L213.014 313.841L223.502 303.523Z" fill="#E1A976"/>
<path opacity="0.1" d="M250.447 227.207C251.469 227.207 252.299 226.377 252.299 225.354C252.299 224.331 251.469 223.502 250.447 223.502C249.424 223.502 248.594 224.331 248.594 225.354C248.594 226.377 249.424 227.207 250.447 227.207Z" fill="black"/>
<path d="M250.447 226.452C251.469 226.452 252.299 225.623 252.299 224.6C252.299 223.577 251.469 222.747 250.447 222.747C249.424 222.747 248.594 223.577 248.594 224.6C248.594 225.623 249.424 226.452 250.447 226.452Z" fill="#3F3D56"/>
<path opacity="0.1" d="M253.856 307.392C254.879 307.392 255.708 306.563 255.708 305.54C255.708 304.517 254.879 303.688 253.856 303.688C252.833 303.688 252.004 304.517 252.004 305.54C252.004 306.563 252.833 307.392 253.856 307.392Z" fill="black"/>
<path d="M253.856 306.631C254.879 306.631 255.708 305.801 255.708 304.778C255.708 303.755 254.879 302.926 253.856 302.926C252.833 302.926 252.004 303.755 252.004 304.778C252.004 305.801 252.833 306.631 253.856 306.631Z" fill="#3F3D56"/>
<path opacity="0.1" d="M252.292 267.299C253.314 267.299 254.144 266.47 254.144 265.447C254.144 264.424 253.314 263.595 252.292 263.595C251.269 263.595 250.44 264.424 250.44 265.447C250.44 266.47 251.269 267.299 252.292 267.299Z" fill="black"/>
<path d="M252.292 266.545C253.314 266.545 254.144 265.715 254.144 264.692C254.144 263.669 253.314 262.84 252.292 262.84C251.269 262.84 250.44 263.669 250.44 264.692C250.44 265.715 251.269 266.545 252.292 266.545Z" fill="#3F3D56"/>
<path d="M294.985 313.093C294.985 313.093 296.247 314.987 294.985 315.872C293.723 316.757 295.109 318.897 295.109 318.897C295.109 318.897 291.96 320.743 293.346 322.403C294.731 324.063 293.853 331.562 293.853 331.562L290.067 337.832C290.067 337.832 290.293 341.873 290.307 347.334C290.307 355.855 289.806 367.833 287.035 373.294L287.419 418.1C287.419 418.1 274.16 422.944 263.061 421.469L261.415 349.571C261.415 349.571 263.816 308.799 264.7 300.978C265.218 296.917 265.429 292.824 265.332 288.732C265.332 288.732 264.954 276.492 263.685 270.812C263.685 270.812 262.313 246.203 262.176 239.391C262.114 236.132 262.286 226.623 262.478 217.581C262.691 207.695 262.931 198.372 262.931 198.372L260.427 178.559C260.427 178.559 262.931 178.305 263.685 179.313C264.023 179.629 264.391 179.912 264.783 180.157V180.157C269.104 183.08 284.373 192.067 284.373 192.067C284.373 192.067 292.824 195.429 294.848 200.245C296.871 205.061 298.278 208.477 299.259 209.849C300.239 211.222 300.774 217.67 300.774 217.67C300.774 217.67 303.683 229.539 305.953 231.549C308.224 233.559 309.884 246.347 309.884 246.347L289.82 262.127C289.82 262.127 288.057 288.375 287.68 289.39C287.302 290.406 294.985 313.093 294.985 313.093Z" fill="white"/>
<path d="M295.747 313.093C295.747 313.093 297.002 314.987 295.747 315.872C294.491 316.757 295.863 318.897 295.863 318.897C295.863 318.897 292.735 320.763 294.107 322.424C295.479 324.084 294.615 331.582 294.615 331.582L290.828 337.853C290.828 337.853 291.055 341.894 291.075 347.355C291.075 355.876 290.574 367.854 287.803 373.315L288.18 418.121C288.18 418.121 274.901 422.965 263.816 421.489L262.176 349.591C262.176 349.591 264.577 308.819 265.462 300.998C265.98 296.938 266.189 292.844 266.086 288.752C266.086 288.752 265.709 276.513 264.447 270.833C264.447 270.833 263.075 246.224 262.931 239.411C262.869 236.153 263.047 226.644 263.233 217.602C263.445 207.716 263.685 198.392 263.685 198.392L260.379 178.312C260.379 178.312 263.685 178.312 264.447 179.334C264.782 179.653 265.149 179.936 265.544 180.178C269.866 183.1 285.142 192.088 285.142 192.088C285.142 192.088 293.586 195.449 295.609 200.265C297.633 205.081 299.039 208.498 300.027 209.87C301.015 211.242 301.536 217.691 301.536 217.691C301.536 217.691 304.444 229.56 306.715 231.57C308.985 233.58 310.625 246.341 310.625 246.341L290.561 262.12C290.561 262.12 288.798 288.368 288.414 289.383C288.03 290.399 295.747 313.093 295.747 313.093Z" fill="white"/>
<path opacity="0.1" d="M271.718 204.217L273.529 209.5L263.994 219.104C264.207 209.225 264.447 199.895 264.447 199.895L261.14 179.814C261.14 179.814 264.447 179.814 265.208 180.836C265.542 181.155 265.91 181.436 266.306 181.673L274.413 205.068L271.718 204.217Z" fill="black"/>
<path d="M270.956 202.701L272.774 207.983L263.239 217.588C263.452 207.702 263.692 198.379 263.692 198.379L260.379 178.298C260.379 178.298 263.692 178.298 264.447 179.32C264.783 179.638 265.151 179.92 265.544 180.164L273.659 203.551L270.956 202.701Z" fill="white"/>
<path opacity="0.1" d="M270.956 150.43C270.962 152.903 270.573 155.36 269.804 157.71C269.674 157.73 269.542 157.724 269.415 157.692C269.288 157.66 269.168 157.603 269.063 157.524C268.885 151.35 265.846 145.553 262.108 140.62C261.058 139.131 259.786 137.812 258.335 136.709C256.868 135.608 255.044 135.092 253.218 135.262C251.16 135.543 249.342 136.943 247.264 137.121C244.52 137.347 242.064 135.447 239.341 135.351C238.234 135.362 237.142 135.608 236.138 136.074C235.133 136.54 234.24 137.215 233.517 138.054C232.087 139.747 231.024 141.719 230.396 143.844C229.318 147.068 228.73 150.435 228.654 153.833C228.62 155.754 228.434 158.162 226.651 158.862C226.785 157.449 226.625 156.024 226.18 154.677C225.734 153.329 225.014 152.089 224.065 151.034L224.024 150.993C224.024 150.801 224.024 150.623 224.024 150.43C223.97 147.314 224.538 144.218 225.694 141.324C226.849 138.429 228.57 135.794 230.754 133.571C232.939 131.348 235.544 129.583 238.418 128.378C241.292 127.173 244.377 126.552 247.493 126.552C250.61 126.552 253.695 127.173 256.569 128.378C259.443 129.583 262.048 131.348 264.233 133.571C266.417 135.794 268.138 138.429 269.293 141.324C270.449 144.218 271.016 147.314 270.963 150.43H270.956Z" fill="black"/>
<path d="M257.21 113.157C253.645 111.48 249.591 111.163 245.809 112.266C243.909 112.828 242.119 113.741 240.192 114.2C236.076 115.195 231.274 114.118 227.742 116.526C225.78 117.898 224.6 120.066 223.502 122.172L220.759 127.4C219.263 130.261 217.754 133.169 217.13 136.318C216.506 139.467 216.883 142.994 218.879 145.525C220.333 147.371 222.48 148.53 224.058 150.266C225.003 151.322 225.72 152.561 226.164 153.907C226.608 155.253 226.769 156.676 226.637 158.087C228.428 157.401 228.599 154.986 228.64 153.065C228.717 149.667 229.304 146.299 230.383 143.076C231.009 140.95 232.072 138.978 233.504 137.286C234.227 136.448 235.12 135.773 236.124 135.307C237.129 134.841 238.22 134.594 239.327 134.583C242.071 134.679 244.534 136.572 247.25 136.346C249.308 136.174 251.132 134.768 253.204 134.494C255.031 134.321 256.856 134.837 258.321 135.941C259.771 137.042 261.042 138.361 262.087 139.852C265.832 144.784 268.871 150.568 269.049 156.756C269.825 157.325 270.943 156.584 271.327 155.706C271.711 154.828 271.725 153.799 272.212 152.962C272.774 151.995 273.851 151.48 274.695 150.753C276.835 148.908 277.37 145.8 277.288 142.98C277.205 140.16 276.657 137.3 277.192 134.528C277.514 132.826 278.241 131.235 278.639 129.554C279.037 127.873 279.085 125.987 278.145 124.539C276.773 122.412 273.885 121.994 271.368 121.795C268.508 121.548 265.949 121.863 264.124 119.455C263.268 118.199 262.304 117.019 261.243 115.929C260.88 115.572 257.21 113.308 257.21 113.157Z" fill="#512E4E"/>
<path opacity="0.1" d="M182.654 257.832L175.486 244.577L173.216 265.029C173.216 265.029 174.478 274.112 174.224 275.505C173.97 276.897 179.396 289.383 179.396 289.383C179.396 289.383 197.32 321.312 204.639 322.959L229.367 305.286L222.81 296.957C222.81 296.957 220.539 296.072 219.97 296.957C219.97 296.957 207.794 276.005 206.532 274.489C205.27 272.973 205.517 269.948 205.517 269.948C205.517 269.948 203.624 267.931 204.255 266.037C204.886 264.144 200.599 257.578 200.599 257.578L204.509 253.921L182.654 257.832Z" fill="black"/>
<path d="M175.863 243.068L173.97 244.577L171.7 265.029C171.7 265.029 172.962 274.112 172.708 275.505C172.454 276.897 177.887 289.383 177.887 289.383C177.887 289.383 195.804 321.312 203.123 322.959L227.858 305.286L221.294 296.957C221.294 296.957 219.023 296.072 218.454 296.957C218.454 296.957 206.278 276.005 205.016 274.489C203.754 272.973 204.008 269.948 204.008 269.948C204.008 269.948 202.115 267.931 202.746 266.037C203.377 264.144 199.083 257.578 199.083 257.578L202.993 253.921L175.863 243.068Z" fill="white"/>
<path opacity="0.1" d="M293.346 323.185C294.718 324.852 293.853 332.337 293.853 332.337L290.067 338.608C290.067 338.608 290.293 342.655 290.307 348.109L283.941 350.099C283.366 350.279 282.756 350.318 282.162 350.214C281.569 350.11 281.009 349.866 280.529 349.501C280.049 349.137 279.663 348.662 279.403 348.118C279.144 347.574 279.018 346.976 279.037 346.374L280.134 310.967L294.985 316.647C293.723 317.525 295.109 319.679 295.109 319.679C295.109 319.679 291.96 321.518 293.346 323.185Z" fill="black"/>
<path d="M294.107 322.424C295.479 324.091 294.615 331.582 294.615 331.582L290.828 337.853C290.828 337.853 291.055 341.894 291.075 347.355L284.593 349.379C284.03 349.554 283.433 349.592 282.851 349.489C282.27 349.387 281.722 349.147 281.252 348.79C280.783 348.433 280.405 347.969 280.151 347.437C279.897 346.904 279.774 346.319 279.791 345.729L280.896 310.212L295.753 315.892C294.484 316.771 295.87 318.918 295.87 318.918C295.87 318.918 292.735 320.763 294.107 322.424Z" fill="white"/>
<path d="M299.025 305.547C299.025 305.547 298.017 311.989 295.493 312.366C292.968 312.743 291.837 322.787 289.319 322.431C286.802 322.074 288.469 313.093 288.558 311.351C288.647 309.608 285.814 302.391 287.934 300.751C290.053 299.112 296.762 300.751 296.762 300.751L299.025 305.547Z" fill="#E1A976"/>
<path opacity="0.1" d="M304.396 255.938L309.157 246.334C309.157 246.334 311.05 253.654 311.05 257.564C311.05 261.475 313.698 261.859 313.698 261.859C313.698 261.859 316.599 265.289 315.07 267.787C313.54 270.284 312.923 276.499 312.923 276.499C312.923 276.499 313.423 288.361 311.153 290.001C308.882 291.641 308.409 295.558 308.409 295.558C308.409 295.558 304.238 303.002 304.369 304.772C304.499 306.542 298.566 318.527 298.566 318.527C298.566 318.527 301.467 303.633 284.559 297.198C284.559 297.198 284.428 292.141 285.69 290.756C286.953 289.37 288.921 288.739 287.687 281.734C286.452 274.729 287.33 266.36 287.33 264.679C287.33 262.998 291.116 252.515 291.116 252.515L304.396 255.938Z" fill="black"/>
<path d="M306.454 244.962L310.611 246.334C310.611 246.334 312.511 253.654 312.511 257.564C312.511 261.475 315.159 261.859 315.159 261.859C315.159 261.859 318.06 265.289 316.531 267.786C315.001 270.284 314.391 276.499 314.391 276.499C314.391 276.499 314.891 288.361 312.621 290.001C310.35 291.641 309.843 295.558 309.843 295.558C309.843 295.558 305.679 303.002 305.809 304.772C305.94 306.542 299.999 318.527 299.999 318.527C299.999 318.527 302.908 303.633 285.992 297.198C285.992 297.198 285.869 292.141 287.131 290.756C288.393 289.37 290.362 288.739 289.127 281.734C287.892 274.729 288.77 266.359 288.77 264.679C288.77 262.998 292.557 252.515 292.557 252.515L306.454 244.962Z" fill="white"/>
<path opacity="0.1" d="M214.64 493.909C214.64 493.909 221.266 489.745 225.615 492.77C229.964 495.796 214.64 493.909 214.64 493.909Z" fill="black"/>
<path opacity="0.1" d="M266.127 481.032C266.127 481.032 271.992 480.277 276.917 485.58C281.842 490.883 266.127 481.032 266.127 481.032Z" fill="black"/>
<g opacity="0.1">
<path opacity="0.1" d="M274.708 149.251C273.865 149.978 272.781 150.499 272.218 151.466C271.738 152.297 271.725 153.319 271.34 154.211C270.956 155.103 269.838 155.83 269.063 155.267C268.885 149.093 265.839 143.296 262.101 138.356C261.056 136.865 259.785 135.546 258.335 134.446C256.867 133.342 255.04 132.825 253.211 132.998C251.153 133.279 249.342 134.679 247.264 134.85C244.52 135.084 242.057 133.183 239.334 133.087C238.227 133.098 237.136 133.346 236.133 133.813C235.13 134.28 234.238 134.957 233.517 135.797C232.085 137.486 231.022 139.456 230.396 141.58C229.318 144.804 228.731 148.171 228.654 151.569C228.613 153.483 228.434 155.871 226.665 156.584C226.706 157.091 226.706 157.601 226.665 158.107C228.448 157.421 228.626 155.007 228.668 153.086C228.744 149.687 229.331 146.32 230.41 143.097C231.036 140.97 232.099 138.998 233.531 137.306C234.253 136.468 235.145 135.794 236.148 135.328C237.151 134.862 238.242 134.615 239.348 134.603C242.092 134.699 244.561 136.593 247.277 136.366C249.335 136.195 251.16 134.789 253.225 134.514C255.053 134.342 256.88 134.858 258.349 135.962C259.799 137.062 261.069 138.382 262.114 139.872C265.853 144.805 268.898 150.588 269.077 156.777C269.852 157.346 270.97 156.605 271.354 155.727C271.738 154.849 271.752 153.82 272.232 152.983C272.795 152.015 273.878 151.501 274.722 150.774C276.862 148.928 277.397 145.82 277.315 143.001C277.315 142.911 277.315 142.822 277.315 142.74C277.185 145.182 276.533 147.673 274.708 149.251Z" fill="black"/>
<path opacity="0.1" d="M224.072 148.763C222.494 147.028 220.34 145.868 218.893 144.03C217.674 142.402 216.978 140.443 216.897 138.411C216.681 140.95 217.39 143.481 218.893 145.539C220.34 147.384 222.494 148.544 224.072 150.28C225.587 151.977 226.496 154.129 226.658 156.399C226.763 155.018 226.588 153.63 226.144 152.317C225.699 151.005 224.995 149.797 224.072 148.763V148.763Z" fill="black"/>
<path opacity="0.1" d="M278.653 128.051C278.248 129.732 277.528 131.331 277.198 133.025C277.003 134.158 276.932 135.308 276.986 136.456C277.009 135.802 277.08 135.151 277.198 134.507C277.528 132.806 278.248 131.214 278.653 129.533C278.889 128.606 278.965 127.646 278.879 126.693C278.836 127.151 278.761 127.605 278.653 128.051V128.051Z" fill="black"/>
</g>
<path d="M685.722 323.624C685.722 323.624 674.397 267.272 678.732 260.261C678.732 260.261 678.89 253.743 678.629 245.435C678.629 245.119 678.629 244.804 678.629 244.481C679.392 244.99 680.187 245.448 681.009 245.853C685.003 247.906 689.589 248.498 693.974 247.527L690.544 243.706C689.721 242.794 688.863 241.806 688.685 240.598C688.507 239.391 689.001 238.314 689.426 237.237C692.684 229.004 692.856 218.651 686.579 212.367C681.277 207.085 679.987 200.265 674.232 195.442C670.027 191.909 667.715 186.73 665.534 181.721C663.689 177.488 661.83 173.221 660.774 168.734C659.951 165.229 659.621 161.599 658.49 158.176C657.358 154.753 655.238 151.425 651.925 149.895C650.745 149.353 649.435 149.045 648.358 148.324C646.945 147.371 646.094 145.82 645.072 144.462C639.88 137.601 622.491 141.642 614.26 144.428C612.022 145.129 609.95 146.277 608.168 147.803L608.244 147.679C608.306 147.577 608.381 147.474 608.45 147.371C607.549 148.099 606.77 148.968 606.145 149.943C604.944 151.844 604.444 154.06 603.442 156.118C602.235 158.553 595.519 165.352 598.407 168.09C598.61 168.273 598.842 168.422 599.093 168.529C600.177 168.98 601.371 169.099 602.523 168.872L602.4 169.167C601.413 171.582 600.908 174.166 600.911 176.775C600.911 188.047 610.206 197.185 621.682 197.185C623.839 197.187 625.984 196.856 628.04 196.204C628.088 196.465 628.129 196.725 628.177 196.986C628.177 197.089 628.212 197.192 628.225 197.295L627.862 197.802C627.844 197.771 627.823 197.741 627.8 197.713L617.031 212.765C615.385 213.925 605.905 220.785 605.37 225.931C604.807 231.563 604.245 238.156 604.245 238.156L604.169 239.569C603.699 239.963 603.148 240.249 602.556 240.409C601.964 240.569 601.344 240.598 600.74 240.495C597.378 239.947 597.378 252.844 597.378 252.844C597.378 252.844 595.142 254.902 593.606 253.119C592.069 251.335 588.008 257.379 588.008 257.379L562.56 258.477L561.977 258.511L560.605 254.264C560.457 253.816 560.139 253.445 559.719 253.23C559.299 253.016 558.811 252.976 558.362 253.119C558.255 253.154 558.152 253.197 558.053 253.249L557.957 253.304L557.779 253.427L557.689 253.51C557.64 253.554 557.594 253.603 557.552 253.654L557.47 253.75L557.429 253.791C557.27 254.01 557.165 254.263 557.123 254.53C557.08 254.797 557.1 255.07 557.182 255.328L558.362 258.971C553.45 259.959 548.429 262.744 552.524 270.414L531.767 266.579L538.483 272.218L573.151 279.374C572.691 280.197 572.993 281.391 574.427 283.072C580.6 290.323 591.85 292.292 596.377 292.8C597.572 295.475 599.066 298.006 600.829 300.347L600.438 307.571C600.438 307.571 588.976 362.633 586.877 365.425C587.936 364.225 588.906 362.947 589.778 361.604C586.451 372.917 581.8 388.401 580.58 390.72C578.618 394.425 576.8 409.415 579.036 410.375C579.722 410.67 581.684 410.526 584.483 410.314V411.555L584.359 458.612C584.359 458.612 584.922 487.474 583.378 490.225C581.835 492.976 581.423 498.746 581.423 498.746C581.423 498.746 575.25 510.127 570.359 514.703C570.326 514.739 570.289 514.771 570.249 514.799L570.098 513.729C570.098 513.729 564.22 521.152 551.214 520.734C551.214 520.734 543.387 525.824 554.994 526.099C566.6 526.373 581.423 525.687 581.423 525.687C581.423 525.687 591.774 509.908 600.445 511.966V523.924H603.099V511.774C604.33 510.963 605.384 509.911 606.196 508.681C607.009 507.451 607.563 506.069 607.825 504.618C608.053 503.123 607.886 501.595 607.342 500.183C606.799 498.772 605.897 497.527 604.725 496.571C604.199 496.095 603.776 495.515 603.485 494.868C603.193 494.221 603.038 493.521 603.031 492.811L602.935 492.894C602.935 492.654 602.873 492.407 602.845 492.153C602.084 485.978 601.131 473.238 604.499 463.812C609.115 450.887 610.514 432.885 607.153 422.169C606.069 418.743 605.178 415.259 604.485 411.734C604.402 411.288 604.327 410.863 604.258 410.465C606.556 410.776 608.831 411.234 611.07 411.837C618.855 413.984 635.888 414.382 650.43 414.265C650.464 414.663 650.505 415.082 650.553 415.5C650.812 418.409 651.355 421.286 652.172 424.09C653.997 429.578 654.833 453.775 654.833 453.775C654.833 453.775 657.186 473.671 655.903 481.766C655.218 486.266 654.532 490.788 654.141 495.329V495.418C654.141 495.418 650.286 506.395 647.466 512.357C647.398 512.508 647.322 512.659 647.254 512.803C646.502 512.871 645.762 513.035 645.052 513.29C645.052 513.29 641.272 520.837 637.506 522.085C633.74 523.334 634.989 527.443 643.515 525.934C652.042 524.425 664.917 523.19 664.917 523.19L665.472 515.492L668.093 512.213L667.407 519.89L670.199 519.341L669.828 510.004L674.115 504.639C674.115 504.639 679.294 500.029 671.598 490.959V491.158C671.516 491.028 671.44 490.89 671.351 490.76V490.719C670.075 488.743 669.06 485.059 670.919 478.521C674.28 466.707 676.235 455.984 676.235 455.984C676.235 455.984 683.739 427.259 674.719 413.669H675.117C674.192 411.756 673.539 409.724 673.176 407.631C673.13 407.384 673.089 407.13 673.052 406.87C679.726 406.486 686.277 405.278 691.621 402.671C691.6 402.644 688.383 334.478 685.722 323.624ZM600.986 276.081V276.218L599.615 276.287L600.986 276.081ZM596.281 276.733C596.055 276.783 595.844 276.884 595.663 277.028C595.074 277.862 594.703 278.832 594.587 279.847L592.446 279.367C592.446 279.367 590.944 279.045 588.783 278.681L587.761 277.652C590.574 277.419 593.496 277.076 596.281 276.733V276.733Z" fill="url(#paint1_linear)"/>
<path d="M667.091 510.1L666.275 519.821L669.012 519.272L668.6 508.728L667.091 510.1Z" fill="#1D2366"/>
<path d="M604.649 463.942C601.35 473.341 602.283 486.026 603.024 492.187C603.298 494.465 603.552 495.851 603.552 495.851C603.552 495.851 598.62 507.088 598.208 507.514C597.797 507.939 583.694 516.549 583.694 516.549L573.837 522.305C573.837 522.305 563.836 517.921 568.63 516.412C569.61 516.018 570.492 515.417 571.216 514.648C576.018 510.086 582.047 498.746 582.047 498.746C582.047 498.746 582.459 492.99 583.968 490.252C585.477 487.515 584.928 458.749 584.928 458.749L585.045 411.857V405.745L603.806 405.882C603.924 407.957 604.195 410.021 604.615 412.056C605.289 415.57 606.161 419.042 607.229 422.457C610.535 433.152 609.163 451.065 604.649 463.942Z" fill="#FFD7D7"/>
<path opacity="0.1" d="M603.552 495.851C603.552 495.851 598.62 507.088 598.208 507.514C597.797 507.939 583.694 516.549 583.694 516.549L573.837 522.305C573.837 522.305 563.836 517.921 568.63 516.412C569.61 516.018 570.492 515.417 571.216 514.648L571.642 517.647L574.927 517.509L603.051 492.201C603.298 494.465 603.552 495.851 603.552 495.851Z" fill="black"/>
<path d="M603.209 492.839L574.927 518.319L571.642 518.456L570.956 513.654C570.956 513.654 565.207 521.049 552.435 520.638C552.435 520.638 544.766 525.708 556.132 525.982C567.498 526.256 582.013 525.57 582.013 525.57C582.013 525.57 592.151 509.791 600.637 511.849V523.766H603.243V511.74C604.455 510.924 605.489 509.871 606.284 508.645C607.079 507.419 607.617 506.044 607.866 504.605C608.092 503.122 607.932 501.605 607.403 500.202C606.873 498.799 605.991 497.555 604.841 496.592C604.328 496.11 603.919 495.529 603.638 494.884C603.357 494.238 603.211 493.543 603.209 492.839V492.839Z" fill="#1D2366"/>
<path d="M669.698 478.596C667.873 485.114 668.868 488.784 670.116 490.753V490.794C671.718 493.226 672.831 495.945 673.395 498.801L673.505 499.418L660.637 518.182L653.654 520.926C653.654 520.926 642.425 517.091 644.476 515.993C644.99 515.726 645.793 514.299 646.712 512.33C649.456 506.395 653.242 495.446 653.242 495.446V495.357C653.64 490.836 654.271 486.328 654.971 481.841C656.226 473.767 653.921 453.947 653.921 453.947C653.921 453.947 653.098 429.846 651.315 424.364C650.509 421.577 649.974 418.719 649.716 415.83C649.346 412.399 649.264 409.573 649.264 409.573C649.264 409.573 656.658 399.282 670.212 410.396C671.296 411.282 672.25 412.317 673.045 413.47C682.409 426.793 674.87 456.142 674.87 456.142C674.87 456.142 672.984 466.817 669.698 478.596Z" fill="#FFD7D7"/>
<path opacity="0.1" d="M673.526 499.418L660.657 518.182L653.674 520.926C653.674 520.926 642.445 517.091 644.496 515.993C645.011 515.726 645.813 514.299 646.732 512.33C651.486 512.288 653.949 516.816 653.949 516.816L659.971 515.856C659.971 515.856 667.914 500.241 669.698 499.288C671.481 498.334 669.972 492.16 669.972 492.16V490.589C670.02 490.644 670.061 490.705 670.116 490.76V490.801C671.718 493.232 672.831 495.952 673.395 498.808L673.526 499.418Z" fill="black"/>
<path d="M654.36 517.221C654.36 517.221 650.93 510.923 644.359 513.249C644.359 513.249 640.662 520.795 636.964 522.017C633.267 523.238 634.502 527.354 642.857 525.852C651.212 524.349 663.806 523.107 663.806 523.107L664.354 515.43L672.846 504.611C672.846 504.611 677.909 500.022 670.377 490.986V492.558C670.377 492.558 671.886 498.732 670.103 499.686C668.319 500.639 660.403 516.261 660.403 516.261L654.36 517.221Z" fill="#1D2366"/>
<path opacity="0.1" d="M603.826 405.868C603.945 407.943 604.215 410.007 604.636 412.043C596.912 410.911 589.744 411.473 585.045 411.844V405.731L603.826 405.868Z" fill="black"/>
<path opacity="0.1" d="M673.807 415.178C673.807 415.178 662.832 415.713 649.744 415.823C649.373 412.392 649.291 409.566 649.291 409.566C649.291 409.566 656.685 399.275 670.24 410.389C671.324 411.276 672.277 412.31 673.073 413.463C673.285 414.048 673.53 414.62 673.807 415.178V415.178Z" fill="black"/>
<path d="M673.807 413.943C673.807 413.943 625.735 416.269 611.084 412.159C596.432 408.05 581.91 411.61 579.722 410.657C577.534 409.703 579.311 394.768 581.231 391.07C583.152 387.372 593.688 349.976 593.688 349.976L603.826 297.108L614.507 294.165L615.261 293.953L633.871 288.821L647.507 285.054C647.507 285.054 674.623 390.933 672.298 398.74C671.453 401.73 671.317 404.875 671.9 407.926C672.255 410.01 672.897 412.035 673.807 413.943V413.943Z" fill="#1D2366"/>
<path d="M568.486 260.953C568.486 260.953 558.883 271.244 566.154 276.98C573.425 282.715 578.206 277.528 578.206 277.528L568.486 260.953Z" fill="#C7DAF5"/>
<path opacity="0.1" d="M568.486 260.953C568.486 260.953 558.883 271.244 566.154 276.98C573.425 282.715 578.206 277.528 578.206 277.528L568.486 260.953Z" fill="black"/>
<path d="M646.074 193.295C646.074 193.295 644.949 194.365 643.255 195.943C640.84 198.2 637.266 201.5 634.097 204.265C629.707 208.086 626.085 210.892 627.382 208.498C628.678 206.104 628.431 201.932 627.786 198.029C627.738 197.768 627.697 197.507 627.649 197.254C627.115 194.387 626.407 191.555 625.53 188.774C625.53 188.774 632.622 179.608 636.546 175.993C638.007 174.621 639.029 174.058 639.091 175.012C639.159 176.295 640.12 179.128 641.313 182.133C641.348 182.229 641.382 182.318 641.423 182.414C642.219 184.472 643.117 186.585 643.906 188.41C645.114 191.209 646.074 193.295 646.074 193.295Z" fill="#FFD7D7"/>
<path opacity="0.1" d="M641.423 182.414C640.757 186 639.139 189.341 636.741 192.087C634.342 194.834 631.249 196.886 627.786 198.029C627.241 194.897 626.487 191.805 625.53 188.774C625.53 188.774 638.885 171.52 639.091 175.012C639.139 176.336 640.182 179.272 641.423 182.414Z" fill="black"/>
<path opacity="0.1" d="M626.456 202.639L628.184 200.204C628.184 200.204 629.33 207.188 633.542 204.107C637.753 201.027 637.959 227.289 637.959 227.289L633.439 294.886L600.774 292.93L601.7 260.267L605.397 243.802L614.541 219.866L619.98 211.956L626.456 202.639Z" fill="black"/>
<path d="M637.959 227.707L633.843 288.828L633.411 295.304L615.199 294.213L614.513 294.172L600.794 293.349L601.72 260.679L605.418 244.214L614.561 220.277L620.001 212.367L626.476 203.016L628.205 200.588C628.205 200.588 629.35 207.572 633.562 204.491L633.651 204.43C637.767 201.823 637.959 227.707 637.959 227.707Z" fill="#1D2366"/>
<path d="M605.877 238.492C605.877 238.492 604.238 241.922 600.945 241.367C597.653 240.811 597.66 253.716 597.66 253.716C597.66 253.716 595.471 255.774 593.962 253.99C592.453 252.206 588.475 258.237 588.475 258.237L563.547 259.334C563.547 259.334 574.639 264.404 572.465 279.744C572.465 279.744 610.123 277.412 611.358 273.851C612.593 270.291 605.877 238.492 605.877 238.492Z" fill="white"/>
<path opacity="0.03" d="M605.877 238.492C605.877 238.492 604.238 241.922 600.945 241.367C597.653 240.811 597.66 253.716 597.66 253.716C597.66 253.716 595.471 255.774 593.962 253.99C592.453 252.206 588.475 258.237 588.475 258.237L563.547 259.334C563.547 259.334 574.639 264.404 572.465 279.744C572.465 279.744 610.123 277.412 611.358 273.851C612.593 270.291 605.877 238.492 605.877 238.492Z" fill="black"/>
<path d="M533.434 267.396L540.006 273.007L594.099 284.375L587.391 277.528L533.434 267.396Z" fill="white"/>
<path d="M626.559 204.8C625.66 206.172 623.088 213.197 620.941 219.331C619.15 224.442 617.655 228.935 617.655 228.935C617.655 228.935 614.163 251.671 612.38 255.781C610.597 259.89 611.564 275.916 611.564 275.916L604.917 315.495C604.917 315.495 601.906 335.905 597.255 348.096C592.666 360.095 587.556 365.72 587.398 365.899C589.456 363.113 600.671 308.27 600.671 308.27L604.375 239.103C604.375 239.103 604.917 232.53 605.466 226.912C606.014 221.293 617.127 213.623 617.127 213.623L627.841 198.385C628.918 199.826 628.198 202.337 626.559 204.8Z" fill="white"/>
<path d="M598.62 293.692C598.62 293.692 582.843 293.006 575.202 283.826C567.56 274.647 592.865 280.163 592.865 280.163L599.443 281.672L598.62 293.692Z" fill="#FFD7D7"/>
<path opacity="0.1" d="M672.298 398.747C671.453 401.736 671.317 404.882 671.9 407.933C654.689 409.154 636.279 404.503 636.279 404.503C632.849 407.659 623.815 412.31 623.815 412.31L618.89 351.252C615.741 343.019 614.507 299.887 614.507 299.887C614.507 299.887 614.788 297.63 615.192 294.248C615.192 294.165 615.192 294.076 615.227 293.994C616.455 284.547 618.89 266.812 620.083 264.418C621.73 261.125 615.021 252.364 615.021 252.364L618.073 226.328L618.444 223.186C624.878 220.312 629.81 211.132 629.81 211.132L633.596 204.498C637.712 201.857 637.925 227.742 637.925 227.742L633.809 288.862L647.446 285.096C647.446 285.096 674.623 390.94 672.298 398.747Z" fill="black"/>
<path d="M689.961 402.966C671.2 412.283 637.102 403.652 637.102 403.652C633.672 406.808 624.638 411.459 624.638 411.459L619.706 350.401C616.564 342.168 615.33 299.036 615.33 299.036C615.33 299.036 619.294 266.853 620.941 263.567C621.421 262.607 621.188 261.18 620.618 259.643C617.819 252.329 616.79 244.456 617.614 236.667L618.931 225.478L619.294 222.342C625.736 219.461 630.667 210.282 630.667 210.282L634.097 204.272L640.408 193.199L643.399 187.958L643.906 188.417L647.782 191.93C647.782 191.93 649.428 193.302 651.898 195.36C657.269 199.888 666.549 207.86 671.337 212.738C675.549 217.032 676.88 233.738 677.264 246.313C677.518 254.594 677.367 261.084 677.367 261.084C673.121 268.075 684.226 324.2 684.226 324.2C686.812 335.047 689.961 402.966 689.961 402.966Z" fill="white"/>
<path opacity="0.03" d="M653.949 210.144C653.949 210.144 641.073 234.657 642.569 243.974C644.064 253.29 648.317 263.835 646.266 266.298C645.561 267.231 644.65 267.988 643.604 268.511C642.558 269.033 641.406 269.307 640.236 269.31C638.179 269.447 632.691 273.282 632.691 273.693C632.691 274.105 627.622 274.105 623.088 276.026C618.554 277.947 611.859 279.038 611.859 279.038C611.859 279.038 598.826 278.626 597.612 279.861C596.398 281.096 595.149 288.485 597.749 294.378C600.349 300.271 603.236 304.669 605.418 305.471C607.599 306.274 621.441 301.636 632.67 300.539C643.899 299.441 656.089 290.543 656.089 290.543C656.089 290.543 669.513 285.74 671.866 277.666C674.218 269.591 668.991 225.21 668.991 225.21C668.991 225.21 665.04 204.526 653.949 210.144Z" fill="black"/>
<path opacity="0.03" d="M652.302 208.086C652.302 208.086 639.427 232.606 640.936 241.915C642.445 251.225 646.684 261.777 644.627 264.246C643.924 265.181 643.015 265.939 641.97 266.462C640.925 266.984 639.772 267.257 638.604 267.258C636.546 267.395 631.058 271.23 631.058 271.642C631.058 272.054 625.989 272.054 621.455 273.968C616.921 275.882 610.226 276.98 610.226 276.98C610.226 276.98 597.193 276.568 595.986 277.803C594.779 279.038 593.516 286.433 596.123 292.32C598.73 298.206 601.611 302.61 603.792 303.413C605.973 304.216 619.816 299.578 631.045 298.487C642.274 297.396 654.463 288.485 654.463 288.485C654.463 288.485 667.88 283.682 670.206 275.614C672.531 267.546 667.331 223.152 667.331 223.152C667.331 223.152 663.394 202.474 652.302 208.086Z" fill="black"/>
<path d="M653.544 208.91C653.544 208.91 640.669 233.429 642.178 242.739C643.687 252.048 647.926 262.6 645.875 265.063C645.173 265.999 644.263 266.759 643.216 267.283C642.17 267.807 641.016 268.08 639.845 268.082C637.788 268.219 632.3 272.054 632.3 272.458C632.3 272.863 627.238 272.87 622.697 274.791C618.156 276.712 611.468 277.803 611.468 277.803C611.468 277.803 598.435 277.391 597.221 278.626C596.006 279.861 594.758 287.257 597.358 293.143C599.958 299.029 602.845 303.434 605.027 304.236C607.208 305.039 621.05 300.401 632.279 299.304C643.508 298.206 655.698 289.308 655.698 289.308C655.698 289.308 669.122 284.506 671.475 276.431C673.827 268.356 668.635 223.975 668.635 223.975C668.635 223.975 664.629 203.325 653.544 208.91Z" fill="white"/>
<path opacity="0.1" d="M653.263 274.674C653.263 274.674 642.973 272.616 646.554 276.047C650.135 279.477 650.114 282.482 654.497 282.345C658.88 282.207 653.263 274.674 653.263 274.674Z" fill="black"/>
<path opacity="0.1" d="M670.651 348.48C670.651 348.48 666.001 351.629 674.897 358.887C683.794 366.146 670.651 348.48 670.651 348.48Z" fill="black"/>
<path opacity="0.1" d="M661.775 374.365C661.775 374.776 660.129 389.458 666.289 393.128C672.449 396.798 661.775 374.365 661.775 374.365Z" fill="black"/>
<path d="M563.973 259.3C559.007 259.472 548.278 260.988 553.841 271.368C558.76 280.554 567.025 274.414 571.676 269.755C570.541 265.412 567.784 261.67 563.973 259.3V259.3Z" fill="#FFD7D7"/>
<path d="M571.738 269.673L571.943 269.46L571.738 269.673Z" fill="#FFB0B1"/>
<path opacity="0.1" d="M651.898 195.779C646.629 199.38 642.212 202.419 641.348 203.051C638.988 204.8 634.488 215.07 631.587 220.312C629.275 224.531 621.764 225.615 618.931 225.882L619.294 222.747C625.735 219.866 630.667 210.686 630.667 210.686L643.399 188.362L647.782 192.348C647.782 192.348 649.428 193.72 651.898 195.779Z" fill="black"/>
<path d="M651.898 195.367C646.629 198.969 642.212 202.008 641.348 202.646C638.988 204.388 634.488 214.659 631.587 219.9C629.275 224.119 621.764 225.203 618.931 225.471L619.294 222.336C625.735 219.454 630.667 210.275 630.667 210.275L643.399 187.951L647.782 191.923C647.782 191.923 649.428 193.281 651.898 195.367Z" fill="#DCE7FF"/>
<path d="M641.759 177.886C641.762 182.005 640.513 186.027 638.179 189.419C635.421 193.43 631.317 196.319 626.612 197.563C621.907 198.806 616.912 198.322 612.533 196.197C608.154 194.072 604.682 190.448 602.747 185.982C600.811 181.516 600.541 176.504 601.984 171.855C603.427 167.207 606.489 163.23 610.613 160.646C614.738 158.062 619.652 157.042 624.464 157.771C629.275 158.501 633.666 160.932 636.84 164.622C640.013 168.313 641.758 173.019 641.759 177.886V177.886Z" fill="#FFD7D7"/>
<path opacity="0.1" d="M677.264 246.32C674.478 244.606 672.209 242.169 670.699 239.267C669.554 237.003 668.792 234.39 666.837 232.784C665.075 231.343 662.722 230.994 660.527 230.349C653.311 228.215 647.26 221.629 647.034 214.11C646.924 210.57 648.029 207.037 647.528 203.531C647.243 201.547 646.454 199.669 645.237 198.077C644.632 197.315 643.97 196.602 643.255 195.943C642.294 195.038 641.286 194.159 640.408 193.199C639.855 192.604 639.371 191.948 638.967 191.244C638.641 190.667 638.377 190.058 638.179 189.426C636.807 185.227 638.055 180.246 636.546 176L636.464 175.766C635.894 174.257 634.735 172.748 633.123 172.631C631.511 172.515 630.132 173.852 628.596 174.449C625.379 175.698 621.908 173.571 619.226 171.403C616.544 169.235 613.519 166.759 610.11 167.239C607.853 167.561 606.069 169.098 603.991 169.894C603.522 170.076 603.037 170.216 602.544 170.312C604.303 165.925 607.534 162.288 611.683 160.024C615.833 157.761 620.64 157.014 625.28 157.911C629.921 158.808 634.104 161.293 637.111 164.94C640.118 168.586 641.762 173.166 641.759 177.893C641.761 179.321 641.612 180.744 641.313 182.14C641.348 182.236 641.382 182.325 641.423 182.421C642.219 184.479 643.117 186.592 643.906 188.417L647.782 191.93C647.782 191.93 649.428 193.302 651.897 195.36C657.268 199.888 666.549 207.86 671.337 212.738C675.549 217.046 676.866 233.745 677.264 246.32Z" fill="black"/>
<path d="M603.751 157.36C604.732 155.363 605.219 153.127 606.392 151.233C608.114 148.489 611.118 146.733 614.205 145.669C622.265 142.891 639.297 138.857 644.386 145.669C645.388 147.041 646.218 148.565 647.604 149.511C648.66 150.232 649.936 150.54 651.095 151.082C654.34 152.605 656.411 155.926 657.515 159.315C658.62 162.704 658.949 166.34 659.759 169.832C660.794 174.312 662.612 178.559 664.423 182.778C666.556 187.759 668.82 192.925 672.936 196.444C678.554 201.246 679.795 208.045 685.008 213.314C691.182 219.571 690.983 229.896 687.8 238.094C687.382 239.171 686.908 240.297 687.073 241.442C687.238 242.588 688.088 243.631 688.891 244.543L692.266 248.351C684.281 250.279 675.247 246.107 671.529 238.787C670.384 236.523 669.622 233.916 667.661 232.304C665.905 230.863 663.545 230.52 661.357 229.875C654.141 227.735 648.091 221.142 647.864 213.623C647.754 210.09 648.859 206.556 648.358 203.058C648.079 201.06 647.288 199.169 646.06 197.569C644.174 195.106 641.327 193.453 639.791 190.709C637.191 186.119 639.166 180.157 637.294 175.231C636.718 173.722 635.565 172.213 633.953 172.096C632.341 171.979 630.962 173.317 629.419 173.914C626.209 175.163 622.738 173.043 620.056 170.868C617.374 168.693 614.349 166.224 610.933 166.711C608.676 167.026 606.899 168.563 604.821 169.366C603.284 169.956 600.17 170.484 598.826 169.187C595.986 166.573 602.564 159.802 603.751 157.36Z" fill="#591D4B"/>
<path opacity="0.1" d="M673.436 236.523C672.284 234.259 671.529 231.652 669.568 230.047C667.812 228.606 665.452 228.256 663.257 227.611C656.048 225.478 649.997 218.885 649.764 211.366C649.655 207.832 650.759 204.292 650.265 200.794C649.978 198.809 649.187 196.931 647.967 195.339C646.074 192.877 643.227 191.223 641.698 188.479C639.098 183.896 641.073 177.934 639.194 173.002C638.624 171.499 637.465 169.99 635.86 169.866C634.255 169.743 632.863 171.094 631.326 171.691C628.116 172.94 624.638 170.813 621.963 168.645C619.288 166.477 616.249 164.001 612.84 164.481C610.583 164.803 608.799 166.34 606.728 167.136C605.191 167.726 602.07 168.261 600.726 166.964C597.9 164.22 604.478 157.463 605.658 155.034C606.639 153.031 607.126 150.801 608.306 148.907C608.367 148.805 608.436 148.702 608.505 148.599C607.622 149.33 606.86 150.196 606.248 151.165C605.075 153.058 604.588 155.281 603.607 157.291C602.42 159.72 595.842 166.498 598.675 169.221C600.047 170.525 603.134 169.99 604.67 169.4C606.728 168.597 608.525 167.06 610.782 166.745C614.212 166.258 617.23 168.734 619.905 170.902C622.58 173.07 626.078 175.197 629.275 173.948C630.812 173.351 632.156 172.007 633.802 172.13C635.449 172.254 636.546 173.756 637.143 175.266C639.015 180.191 637.04 186.153 639.64 190.743C641.176 193.439 644.023 195.127 645.909 197.603C647.137 199.203 647.929 201.094 648.207 203.092C648.708 206.591 647.604 210.124 647.713 213.657C647.94 221.204 653.99 227.769 661.206 229.91C663.38 230.554 665.754 230.898 667.51 232.338C669.478 233.95 670.254 236.557 671.378 238.821C675.096 246.142 684.13 250.313 692.115 248.385L690.523 246.588C683.602 246.69 676.599 242.752 673.436 236.523Z" fill="black"/>
<path opacity="0.1" d="M626.147 205.212C625.248 206.584 622.676 213.609 620.529 219.742C618.519 218.96 616.695 213.973 616.695 213.973L627.409 198.729C628.507 200.238 627.786 202.742 626.147 205.212Z" fill="black"/>
<path d="M626.559 204.8C625.66 206.172 623.088 213.197 620.941 219.331C618.931 218.555 617.106 213.561 617.106 213.561L627.821 198.324C628.918 199.826 628.198 202.337 626.559 204.8Z" fill="#DCE7FF"/>
<path d="M564.261 274.887L558.321 256.151C558.25 255.932 558.224 255.701 558.243 255.471C558.262 255.241 558.327 255.018 558.432 254.813C558.538 254.609 558.683 254.427 558.86 254.279C559.036 254.13 559.24 254.018 559.459 253.949V253.949C559.901 253.811 560.38 253.853 560.791 254.066C561.202 254.28 561.512 254.647 561.654 255.088L567.595 273.803L567.005 277.721L564.261 274.887Z" fill="#BE8B87"/>
<path opacity="0.1" d="M558.883 254.505C559.326 254.364 559.806 254.406 560.219 254.619C560.632 254.832 560.943 255.201 561.085 255.643L567.025 274.359L566.579 277.295L567.011 277.748L567.601 273.831L561.627 255.115C561.485 254.674 561.175 254.307 560.764 254.094C560.353 253.88 559.874 253.838 559.432 253.976V253.976C559.06 254.097 558.739 254.338 558.519 254.662C558.636 254.6 558.758 254.547 558.883 254.505V254.505Z" fill="white"/>
<path d="M564.261 274.887L567.595 273.831L567.108 277.041L567.005 277.748L566.031 276.733L564.261 274.887Z" fill="#EFC8C4"/>
<path d="M566.031 276.733C566.089 276.659 566.161 276.599 566.243 276.554C566.291 276.524 566.347 276.508 566.404 276.508C566.461 276.508 566.517 276.524 566.566 276.554C566.612 276.611 566.651 276.673 566.682 276.739C566.728 276.815 566.789 276.88 566.863 276.928C566.937 276.977 567.02 277.009 567.107 277.021L567.005 277.707L566.031 276.733Z" fill="#727A9C"/>
<path d="M558.286 262.806C558.286 262.806 570.201 262.737 567.396 267.807C564.59 272.877 560.207 273.488 560.207 273.488L558.286 262.806Z" fill="#FFD7D7"/>
<path d="M484.183 35.2767H483.669C463.2 35.2767 445.098 46.1095 434.685 62.0945C424.273 46.1095 406.17 35.2767 385.702 35.2767H385.187C369.826 35.4231 355.143 41.6268 344.33 52.5397C333.516 63.4525 327.446 78.1926 327.437 93.5568C327.437 112.636 335.792 139.708 352.083 161.984C383.123 204.43 434.685 241.566 434.685 241.566C434.685 241.566 486.248 204.436 517.28 161.984C533.578 139.708 541.926 112.636 541.926 93.5568C541.918 78.1938 535.848 63.4547 525.036 52.5421C514.224 41.6294 499.543 35.4249 484.183 35.2767ZM476.823 165.249C474.492 165.24 472.218 164.527 470.3 163.202C468.381 161.877 466.908 160.003 466.074 157.826H453.837C453.031 157.821 452.247 157.565 451.594 157.092C450.941 156.62 450.452 155.956 450.195 155.192L446.436 143.865L434.541 185.433C434.31 186.233 433.825 186.936 433.159 187.438C432.494 187.939 431.684 188.21 430.851 188.211H430.611C429.742 188.169 428.913 187.83 428.264 187.251C427.615 186.672 427.184 185.887 427.044 185.028L414.786 111.291L405.827 154.924C405.622 155.753 405.145 156.489 404.472 157.015C403.8 157.541 402.97 157.827 402.116 157.826H384.879C384.362 157.848 383.846 157.765 383.362 157.582C382.878 157.4 382.436 157.121 382.063 156.763C381.69 156.405 381.393 155.975 381.19 155.5C380.987 155.024 380.882 154.512 380.882 153.995C380.882 153.477 380.987 152.965 381.19 152.49C381.393 152.014 381.69 151.584 382.063 151.226C382.436 150.868 382.878 150.589 383.362 150.407C383.846 150.224 384.362 150.141 384.879 150.163H399.098L411.788 91.4987C411.997 90.6313 412.5 89.8633 413.212 89.3259C413.923 88.7884 414.8 88.515 415.691 88.5522C416.582 88.5895 417.432 88.9352 418.097 89.5302C418.761 90.1252 419.199 90.9326 419.334 91.8143L431.852 167.033L442.512 129.842C442.734 129.059 443.203 128.368 443.85 127.874C444.496 127.379 445.285 127.107 446.099 127.098H446.175C446.981 127.098 447.767 127.353 448.419 127.826C449.072 128.299 449.559 128.966 449.81 129.732L456.608 150.184H465.923C466.586 148.171 467.791 146.381 469.406 145.01C471.022 143.64 472.984 142.742 475.078 142.417C477.171 142.091 479.313 142.351 481.268 143.166C483.223 143.981 484.915 145.321 486.157 147.038C487.399 148.754 488.143 150.78 488.306 152.893C488.469 155.005 488.045 157.121 487.082 159.008C486.118 160.895 484.652 162.479 482.846 163.585C481.039 164.691 478.962 165.277 476.844 165.277L476.823 165.249Z" fill="#46FF9F"/>
<path d="M476.941 164.7C474.61 164.691 472.336 163.978 470.418 162.653C468.499 161.328 467.026 159.454 466.192 157.277H453.955C453.149 157.272 452.365 157.016 451.712 156.543C451.059 156.071 450.57 155.407 450.313 154.643L446.554 143.316L434.659 184.884C434.428 185.684 433.943 186.388 433.277 186.889C432.612 187.39 431.802 187.661 430.969 187.662H430.729C429.86 187.62 429.031 187.281 428.382 186.702C427.733 186.123 427.302 185.338 427.162 184.479L414.904 110.742L405.945 154.375C405.74 155.204 405.263 155.94 404.59 156.466C403.918 156.992 403.088 157.278 402.234 157.277H384.997C384.48 157.299 383.964 157.216 383.48 157.034C382.996 156.851 382.554 156.572 382.181 156.214C381.808 155.856 381.511 155.426 381.308 154.951C381.105 154.475 381 153.963 381 153.446C381 152.928 381.105 152.416 381.308 151.941C381.511 151.465 381.808 151.035 382.181 150.677C382.554 150.319 382.996 150.04 383.48 149.858C383.964 149.675 384.48 149.592 384.997 149.614H399.216L411.906 90.9498C412.115 90.0825 412.618 89.3144 413.33 88.777C414.041 88.2396 414.918 87.9661 415.809 88.0034C416.7 88.0406 417.55 88.3863 418.215 88.9813C418.879 89.5763 419.317 90.3837 419.452 91.2654L431.97 166.484L442.63 129.293C442.852 128.51 443.321 127.819 443.968 127.325C444.614 126.83 445.404 126.558 446.217 126.549H446.293C447.099 126.549 447.885 126.804 448.537 127.277C449.19 127.75 449.677 128.417 449.928 129.183L456.726 149.635H466.041C466.704 147.622 467.909 145.832 469.524 144.461C471.14 143.091 473.102 142.193 475.196 141.868C477.289 141.542 479.431 141.802 481.386 142.617C483.341 143.433 485.033 144.772 486.275 146.489C487.517 148.205 488.261 150.231 488.424 152.344C488.587 154.456 488.163 156.573 487.2 158.459C486.237 160.346 484.771 161.93 482.964 163.036C481.157 164.142 479.08 164.728 476.962 164.728L476.941 164.7Z" fill="white"/>
</g>
<defs>
<linearGradient id="paint0_linear" x1="244.424" y1="531.601" x2="244.424" y2="109.446" gradientUnits="userSpaceOnUse">
<stop stop-color="#808080" stop-opacity="0.25"/>
<stop offset="0.54" stop-color="#808080" stop-opacity="0.12"/>
<stop offset="1" stop-color="#808080" stop-opacity="0.1"/>
</linearGradient>
<linearGradient id="paint1_linear" x1="153114" y1="318521" x2="153114" y2="101826" gradientUnits="userSpaceOnUse">
<stop stop-color="#808080" stop-opacity="0.25"/>
<stop offset="0.54" stop-color="#808080" stop-opacity="0.12"/>
<stop offset="1" stop-color="#808080" stop-opacity="0.1"/>
</linearGradient>
<clipPath id="clip0">
<rect width="758" height="537" fill="white"/>
</clipPath>
</defs>
</svg>
