<svg width="172" height="90" viewBox="0 0 172 90" fill="none" xmlns="http://www.w3.org/2000/svg">
<g clip-path="url(#clip0)">
<path d="M168.871 29.6537C168.779 29.7631 168.66 29.8472 168.527 29.8983L164.472 31.452C164.269 31.5301 164.043 31.5268 163.842 31.4428C163.64 31.3589 163.479 31.2006 163.39 31.0007L159.799 22.8962C159.454 22.1445 159.395 21.2919 159.634 20.4997C159.81 19.9342 160.135 19.427 160.575 19.0315C161.014 18.6359 161.551 18.3667 162.13 18.2522C162.576 18.1602 163.036 18.1667 163.478 18.2714C164.008 18.3901 164.501 18.6397 164.911 18.9975C165.321 19.3554 165.636 19.8103 165.826 20.3211L169.02 28.7973C169.073 28.9403 169.088 29.0952 169.062 29.2458C169.036 29.3964 168.97 29.5372 168.871 29.6537V29.6537Z" fill="#CCCCCC"/>
<path d="M142.935 86.2598H148.344V89.6801H139.528C139.528 88.7729 139.887 87.903 140.526 87.2615C141.164 86.6201 142.031 86.2598 142.934 86.2598H142.935Z" fill="#2F2E41"/>
<path d="M155.977 86.2598H161.386V89.6801H152.57C152.57 88.7729 152.929 87.903 153.568 87.2615C154.206 86.6201 155.073 86.2598 155.976 86.2598H155.977Z" fill="#2F2E41"/>
<path d="M166.455 48.2665C166.192 48.1139 165.966 47.9053 165.792 47.6554C165.618 47.4055 165.5 47.1203 165.448 46.82C165.396 46.5196 165.41 46.2114 165.489 45.9171C165.568 45.6227 165.71 45.3494 165.906 45.1163L163.74 29.2206L168.252 29.443L168.96 44.9476C169.329 45.3037 169.554 45.7831 169.594 46.295C169.634 46.8068 169.485 47.3156 169.176 47.7247C168.867 48.1339 168.42 48.4151 167.918 48.5149C167.416 48.6148 166.896 48.5263 166.455 48.2665V48.2665Z" fill="#F5C39F"/>
<path d="M147.744 87.0643H144.938L143.921 76.1488L147.744 76.2002V87.0643Z" fill="#F5C39F"/>
<path d="M160.786 87.0645H157.981L156.646 76.2002H160.786L160.786 87.0645Z" fill="#F5C39F"/>
<path d="M157.284 12.7153C160.388 12.7153 162.904 10.189 162.904 7.07251C162.904 3.95607 160.388 1.42969 157.284 1.42969C154.18 1.42969 151.664 3.95607 151.664 7.07251C151.664 10.189 154.18 12.7153 157.284 12.7153Z" fill="#F5C39F"/>
<path d="M161.139 83.1991L156.733 82.8715C156.483 82.8529 156.247 82.7429 156.072 82.5623C155.896 82.3816 155.792 82.1428 155.78 81.8906L154.797 61.505C154.788 61.3094 154.708 61.124 154.572 60.9835C154.436 60.8431 154.254 60.7572 154.059 60.7421C153.865 60.7269 153.672 60.7835 153.516 60.9012C153.36 61.019 153.252 61.1898 153.213 61.3816L149.115 81.4633C149.064 81.7104 148.926 81.9303 148.725 82.0819C148.524 82.2334 148.275 82.3061 148.024 82.2862L144.042 81.9663C143.907 81.9555 143.775 81.9181 143.655 81.8564C143.535 81.7946 143.428 81.7096 143.34 81.6063C143.252 81.5029 143.186 81.3832 143.144 81.2541C143.102 81.1249 143.086 80.9888 143.097 80.8535C143.098 80.8467 143.098 80.8399 143.099 80.8331L146.794 43.7342C146.808 43.5892 146.853 43.4489 146.925 43.3226C146.998 43.1962 147.096 43.0865 147.213 43.0009C147.33 42.9152 147.465 42.8554 147.607 42.8254C147.749 42.7955 147.895 42.796 148.037 42.827L162.087 45.8938C162.32 45.9451 162.528 46.0755 162.675 46.263C162.823 46.4504 162.902 46.6834 162.898 46.9225L162.244 82.1875C162.239 82.4578 162.128 82.7154 161.936 82.9051C161.744 83.0947 161.486 83.2014 161.217 83.2021C161.191 83.2019 161.165 83.2009 161.139 83.1991Z" fill="#2F2E41"/>
<path d="M148.565 46.5956C148.024 46.109 147.595 45.5107 147.307 44.8418C147.019 44.1729 146.879 43.4492 146.896 42.7206C146.896 34.6102 153.887 16.4897 154.106 15.9254C154.127 15.7892 154.311 15.7304 155.28 15.0739C156.249 14.4174 157.645 14.316 159.431 14.7739C159.612 14.8206 159.777 14.9163 159.909 15.0508C160.04 15.1852 160.132 15.3532 160.174 15.5364L160.506 16.0182C160.535 16.1405 160.592 16.2542 160.673 16.3502C160.754 16.4463 160.856 16.5219 160.971 16.571C162.411 17.1802 166.989 19.9892 165.429 30.5608C163.98 40.381 163.392 46.1553 163.207 48.1836C163.185 48.4242 163.08 48.6495 162.909 48.8201C162.739 48.9908 162.515 49.0961 162.275 49.1177C161.569 49.181 160.357 49.2656 158.915 49.2656C155.568 49.2646 150.979 48.8119 148.565 46.5956Z" fill="#CCCCCC"/>
<path d="M141.85 43.5909C141.716 43.3171 141.644 43.0172 141.638 42.7123C141.632 42.4075 141.693 42.1051 141.816 41.8264C141.939 41.5477 142.122 41.2996 142.351 41.0994C142.58 40.8993 142.85 40.752 143.142 40.668L150.165 26.2571L153.788 28.966L145.772 42.2367C145.88 42.7385 145.802 43.2628 145.551 43.7102C145.3 44.1576 144.894 44.4969 144.41 44.6638C143.927 44.8308 143.399 44.8138 142.927 44.616C142.455 44.4182 142.072 44.0535 141.85 43.5909H141.85Z" fill="#F5C39F"/>
<path d="M154.184 29.4882C154.047 29.5273 153.902 29.5309 153.763 29.4987L149.534 28.5204C149.321 28.4713 149.136 28.3424 149.015 28.16C148.895 27.9777 148.848 27.7559 148.886 27.5403L150.402 18.8012C150.533 17.984 150.957 17.2433 151.595 16.7188C152.055 16.348 152.606 16.1086 153.191 16.0261C153.775 15.9435 154.371 16.0207 154.915 16.2495C155.336 16.4222 155.714 16.6849 156.023 17.0194C156.398 17.4146 156.668 17.8974 156.81 18.424C156.952 18.9505 156.961 19.5043 156.836 20.0352L154.783 28.8595C154.749 29.0084 154.675 29.1453 154.569 29.2559C154.464 29.3664 154.331 29.4466 154.184 29.4882H154.184Z" fill="#CCCCCC"/>
<path d="M155.968 12.171C155.695 11.8909 155.493 11.5484 155.38 11.1729C155.267 10.7974 155.246 10.4 155.319 10.0145C155.515 8.98587 155.63 8.31211 155.652 8.06708C155.726 7.22913 154.882 6.55062 154.048 6.44179C154.015 6.43747 153.988 6.43479 153.966 6.43294C153.986 6.45351 154.01 6.47533 154.03 6.49466C154.188 6.64423 154.386 6.83042 154.339 7.02257C154.311 7.13819 154.205 7.22028 154.017 7.27316C152.711 7.63998 151.706 7.30319 150.852 6.21261C150.612 5.90269 150.448 5.54103 150.371 5.15617C150.065 3.65021 150.879 2.36644 151.617 1.55482C152.225 0.885576 153.21 0.0735484 154.453 0.00359938C155.419 -0.0505082 156.568 0.507849 156.911 1.51409C157.073 1.27296 157.289 1.07306 157.542 0.930227C157.794 0.787393 158.077 0.705543 158.366 0.691156C159.026 0.676792 159.675 0.858135 160.233 1.21248C162.958 2.77975 164.129 6.51338 162.79 9.36566C161.948 11.1598 160.123 12.4955 158.029 12.8514C157.897 12.8737 157.765 12.885 157.632 12.8851C157.321 12.8846 157.013 12.8211 156.727 12.6986C156.441 12.5761 156.182 12.3969 155.967 12.1719L155.968 12.171Z" fill="#2F2E41"/>
<path d="M74.5108 40.235C74.3926 39.9532 74.1947 39.7124 73.9416 39.5423C73.6885 39.3723 73.3913 39.2805 73.0868 39.2783H44.6632C44.2546 39.2785 43.8629 39.4416 43.574 39.7317C43.2851 40.0218 43.1227 40.4152 43.1224 40.8254V76.9315C43.1227 77.3417 43.2851 77.7351 43.574 78.0252C43.8629 78.3153 44.2546 78.4783 44.6632 78.4786H73.0878C73.4963 78.478 73.8879 78.3148 74.1767 78.0248C74.4656 77.7348 74.6281 77.3416 74.6286 76.9315V40.8254C74.6293 40.6228 74.5896 40.422 74.5118 40.235H74.5108ZM74.2854 76.9315C74.2851 77.2505 74.1587 77.5564 73.934 77.7821C73.7093 78.0077 73.4046 78.1346 73.0868 78.135H44.6632C44.3454 78.1349 44.0406 78.0081 43.8158 77.7825C43.591 77.5568 43.4647 77.2508 43.4646 76.9317V40.8256C43.465 40.5066 43.5915 40.2007 43.8161 39.9751C44.0408 39.7495 44.3455 39.6225 44.6632 39.6221H73.0878C73.3272 39.623 73.5609 39.6955 73.7591 39.8304C73.9572 39.9652 74.1109 40.1563 74.2004 40.3792C74.2178 40.4236 74.2329 40.4689 74.2455 40.515C74.2727 40.6163 74.2865 40.7207 74.2865 40.8256L74.2854 76.9315Z" fill="#3F3D56"/>
<path d="M68.5791 47.8028H60.0175C59.8358 47.8028 59.6616 47.7303 59.5331 47.6013C59.4047 47.4724 59.3325 47.2974 59.3325 47.115C59.3325 46.9326 59.4047 46.7577 59.5331 46.6287C59.6616 46.4997 59.8358 46.4272 60.0175 46.4272H68.5791C68.7607 46.4272 68.935 46.4997 69.0634 46.6287C69.1919 46.7577 69.264 46.9326 69.264 47.115C69.264 47.2974 69.1919 47.4724 69.0634 47.6013C68.935 47.7303 68.7607 47.8028 68.5791 47.8028V47.8028Z" fill="#3F3D56"/>
<path d="M68.5791 51.4135H60.0175C59.8358 51.4135 59.6616 51.341 59.5331 51.2121C59.4047 51.0831 59.3325 50.9081 59.3325 50.7257C59.3325 50.5433 59.4047 50.3684 59.5331 50.2394C59.6616 50.1104 59.8358 50.038 60.0175 50.038H68.5791C68.7607 50.038 68.935 50.1104 69.0634 50.2394C69.1919 50.3684 69.264 50.5433 69.264 50.7257C69.264 50.9081 69.1919 51.0831 69.0634 51.2121C68.935 51.341 68.7607 51.4135 68.5791 51.4135V51.4135Z" fill="#3F3D56"/>
<path d="M55.6247 53.4693H49.3679C49.1636 53.4691 48.9677 53.3875 48.8232 53.2425C48.6788 53.0974 48.5975 52.9007 48.5973 52.6956V45.2818C48.5975 45.0767 48.6788 44.88 48.8232 44.7349C48.9677 44.5899 49.1636 44.5083 49.3679 44.5081H55.6247C55.829 44.5083 56.0248 44.5899 56.1693 44.7349C56.3138 44.88 56.395 45.0767 56.3953 45.2818V52.6956C56.395 52.9007 56.3138 53.0974 56.1693 53.2425C56.0248 53.3875 55.829 53.4691 55.6247 53.4693Z" fill="#46FF9F"/>
<path d="M68.5198 58.8067H49.1707C48.989 58.8067 48.8148 58.7342 48.6863 58.6052C48.5579 58.4763 48.4857 58.3013 48.4857 58.1189C48.4857 57.9365 48.5579 57.7616 48.6863 57.6326C48.8148 57.5036 48.989 57.4312 49.1707 57.4312H68.5198C68.6098 57.4312 68.6988 57.4489 68.7819 57.4835C68.865 57.5181 68.9405 57.5687 69.0042 57.6326C69.0678 57.6965 69.1182 57.7723 69.1526 57.8557C69.1871 57.9392 69.2048 58.0286 69.2048 58.1189C69.2048 58.2092 69.1871 58.2987 69.1526 58.3821C69.1182 58.4656 69.0678 58.5414 69.0042 58.6052C68.9405 58.6691 68.865 58.7198 68.7819 58.7543C68.6988 58.7889 68.6098 58.8067 68.5198 58.8067V58.8067Z" fill="#CCCCCC"/>
<path d="M68.5198 62.4173H49.1707C48.989 62.4173 48.8148 62.3448 48.6863 62.2158C48.5579 62.0869 48.4857 61.9119 48.4857 61.7295C48.4857 61.5471 48.5579 61.3722 48.6863 61.2432C48.8148 61.1142 48.989 61.0417 49.1707 61.0417H68.5198C68.7015 61.0417 68.8757 61.1142 69.0042 61.2432C69.1326 61.3722 69.2048 61.5471 69.2048 61.7295C69.2048 61.9119 69.1326 62.0869 69.0042 62.2158C68.8757 62.3448 68.7015 62.4173 68.5198 62.4173V62.4173Z" fill="#CCCCCC"/>
<path d="M68.5198 66.0279H49.1707C48.989 66.0279 48.8148 65.9554 48.6863 65.8264C48.5579 65.6975 48.4857 65.5225 48.4857 65.3401C48.4857 65.1577 48.5579 64.9828 48.6863 64.8538C48.8148 64.7248 48.989 64.6523 49.1707 64.6523H68.5198C68.7015 64.6523 68.8757 64.7248 69.0042 64.8538C69.1326 64.9828 69.2048 65.1577 69.2048 65.3401C69.2048 65.5225 69.1326 65.6975 69.0042 65.8264C68.8757 65.9554 68.7015 66.0279 68.5198 66.0279V66.0279Z" fill="#CCCCCC"/>
<path d="M68.5198 69.6385H49.1707C48.989 69.6385 48.8148 69.566 48.6863 69.437C48.5579 69.3081 48.4857 69.1331 48.4857 68.9507C48.4857 68.7683 48.5579 68.5934 48.6863 68.4644C48.8148 68.3354 48.989 68.2629 49.1707 68.2629H68.5198C68.7015 68.2629 68.8757 68.3354 69.0042 68.4644C69.1326 68.5934 69.2048 68.7683 69.2048 68.9507C69.2048 69.1331 69.1326 69.3081 69.0042 69.437C68.8757 69.566 68.7015 69.6385 68.5198 69.6385V69.6385Z" fill="#CCCCCC"/>
<path d="M68.5198 73.2491H49.1707C48.989 73.2491 48.8148 73.1766 48.6863 73.0476C48.5579 72.9186 48.4857 72.7437 48.4857 72.5613C48.4857 72.3789 48.5579 72.204 48.6863 72.075C48.8148 71.946 48.989 71.8735 49.1707 71.8735H68.5198C68.7015 71.8735 68.8757 71.946 69.0042 72.075C69.1326 72.204 69.2048 72.3789 69.2048 72.5613C69.2048 72.7437 69.1326 72.9186 69.0042 73.0476C68.8757 73.1766 68.7015 73.2491 68.5198 73.2491V73.2491Z" fill="#CCCCCC"/>
<path d="M131.132 89.9999H171.086C171.14 89.9999 171.192 89.9783 171.23 89.9397C171.269 89.9011 171.29 89.8488 171.29 89.7942C171.29 89.7397 171.269 89.6873 171.23 89.6488C171.192 89.6102 171.14 89.5885 171.086 89.5885H131.132C131.077 89.5885 131.025 89.6102 130.987 89.6488C130.948 89.6873 130.927 89.7397 130.927 89.7942C130.927 89.8488 130.948 89.9011 130.987 89.9397C131.025 89.9783 131.077 89.9999 131.132 89.9999Z" fill="#3F3D56"/>
<path d="M59.3563 30.5789C63.007 30.5789 65.9665 27.6072 65.9665 23.9415C65.9665 20.2758 63.007 17.3042 59.3563 17.3042C55.7056 17.3042 52.7461 20.2758 52.7461 23.9415C52.7461 27.6072 55.7056 30.5789 59.3563 30.5789Z" fill="#46FF9F"/>
<path d="M58.7013 26.4736C58.5526 26.4738 58.4078 26.4255 58.2888 26.3359L58.2814 26.3304L56.7279 25.1371C56.6559 25.0818 56.5954 25.0127 56.55 24.9339C56.5045 24.855 56.475 24.768 56.463 24.6777C56.4511 24.5874 56.457 24.4956 56.4804 24.4076C56.5039 24.3196 56.5443 24.2371 56.5995 24.1648C56.6547 24.0925 56.7236 24.0318 56.8021 23.9863C56.8807 23.9407 56.9674 23.9111 57.0574 23.8993C57.1473 23.8874 57.2387 23.8934 57.3263 23.917C57.4139 23.9406 57.4961 23.9814 57.568 24.0369L58.5742 24.8116L60.952 21.6969C61.0633 21.551 61.2278 21.4556 61.4093 21.4315C61.5907 21.4074 61.7742 21.4567 61.9195 21.5685L61.9197 21.5687L61.9049 21.5893L61.9201 21.5687C62.0652 21.6807 62.1601 21.8459 62.1841 22.028C62.208 22.2102 62.159 22.3945 62.0477 22.5404L59.251 26.2024C59.1863 26.2868 59.1031 26.3551 59.0079 26.4019C58.9126 26.4488 58.8079 26.473 58.7019 26.4727L58.7013 26.4736Z" fill="black"/>
<path d="M15.8374 20.9095C18.3112 20.9095 20.3167 18.8958 20.3167 16.4118C20.3167 13.9278 18.3112 11.9141 15.8374 11.9141C13.3635 11.9141 11.358 13.9278 11.358 16.4118C11.358 18.8958 13.3635 20.9095 15.8374 20.9095Z" fill="#CCCCCC"/>
<path d="M15.3935 18.1274C15.2927 18.1276 15.1946 18.0949 15.114 18.0342L15.1091 18.0305L14.0564 17.2211C13.9608 17.1444 13.8989 17.0331 13.8841 16.9111C13.8692 16.7891 13.9026 16.6662 13.977 16.5686C14.0515 16.471 14.161 16.4067 14.2822 16.3893C14.4033 16.3719 14.5265 16.4029 14.6251 16.4756L15.307 17.0006L16.9183 14.8906C16.9937 14.7918 17.1052 14.7271 17.2281 14.7108C17.3511 14.6945 17.4754 14.7279 17.5738 14.8037L17.5739 14.8038L17.5639 14.8174L17.5742 14.804C17.6724 14.8799 17.7367 14.9918 17.753 15.1152C17.7692 15.2386 17.736 15.3635 17.6606 15.4623L15.7654 17.9443C15.7215 18.0015 15.6652 18.0478 15.6006 18.0796C15.5361 18.1114 15.4652 18.1278 15.3933 18.1276L15.3935 18.1274Z" fill="white"/>
<path d="M28.4249 26.9576C28.3319 26.7359 28.1762 26.5465 27.9771 26.4127C27.778 26.2789 27.5442 26.2066 27.3046 26.2048H4.93842C4.61694 26.205 4.30867 26.3333 4.08134 26.5616C3.85402 26.7898 3.72624 27.0993 3.72607 27.4222V55.8324C3.72624 56.1552 3.85402 56.4647 4.08134 56.6929C4.30867 56.9212 4.61694 57.0495 4.93842 57.0497H27.3046C27.626 57.0492 27.9341 56.9208 28.1614 56.6926C28.3886 56.4644 28.5165 56.1551 28.5169 55.8324V27.4222C28.5174 27.2627 28.4862 27.1047 28.4249 26.9576ZM28.2477 55.8326C28.2472 56.0834 28.1478 56.3238 27.9711 56.5012C27.7945 56.6786 27.555 56.7784 27.3052 56.7789H4.93842C4.68845 56.7789 4.44872 56.6792 4.27197 56.5017C4.09522 56.3243 3.99592 56.0836 3.99592 55.8326V27.4222C3.9964 27.1713 4.09586 26.9309 4.27251 26.7535C4.44916 26.5761 4.6886 26.4763 4.93842 26.4758H27.3046C27.4931 26.4766 27.677 26.5337 27.833 26.64C27.9889 26.7463 28.1098 26.8968 28.1801 27.0724C28.1938 27.1073 28.2056 27.143 28.2155 27.1792C28.237 27.2589 28.2479 27.341 28.2479 27.4236L28.2477 55.8326Z" fill="#CCCCCC"/>
<path d="M23.7569 32.9126H17.0201C16.8771 32.9126 16.74 32.8556 16.6389 32.7541C16.5379 32.6526 16.4811 32.5149 16.4811 32.3714C16.4811 32.2279 16.5379 32.0902 16.6389 31.9887C16.74 31.8872 16.8771 31.8302 17.0201 31.8302H23.7567C23.8996 31.8302 24.0367 31.8872 24.1378 31.9887C24.2389 32.0902 24.2956 32.2279 24.2956 32.3714C24.2956 32.5149 24.2389 32.6526 24.1378 32.7541C24.0367 32.8556 23.8996 32.9126 23.7567 32.9126H23.7569Z" fill="#CCCCCC"/>
<path d="M23.7569 35.7537H17.0201C16.8771 35.7537 16.74 35.6967 16.6389 35.5952C16.5379 35.4937 16.4811 35.3561 16.4811 35.2126C16.4811 35.069 16.5379 34.9314 16.6389 34.8299C16.74 34.7284 16.8771 34.6714 17.0201 34.6714H23.7567C23.8996 34.6714 24.0367 34.7284 24.1378 34.8299C24.2389 34.9314 24.2956 35.069 24.2956 35.2126C24.2956 35.3561 24.2389 35.4937 24.1378 35.5952C24.0367 35.6967 23.8996 35.7537 23.7567 35.7537H23.7569Z" fill="#CCCCCC"/>
<path d="M13.5633 37.3714H8.64021C8.47947 37.3712 8.32535 37.307 8.21169 37.1929C8.09802 37.0788 8.0341 36.924 8.03394 36.7626V30.9291C8.0341 30.7677 8.09802 30.6129 8.21169 30.4988C8.32535 30.3847 8.47947 30.3205 8.64021 30.3203H13.5633C13.7241 30.3205 13.8782 30.3847 13.9918 30.4989C14.1055 30.613 14.1694 30.7677 14.1696 30.9291V36.7626C14.1695 36.924 14.1055 37.0788 13.9919 37.1929C13.8782 37.307 13.7241 37.3712 13.5633 37.3714V37.3714Z" fill="#CCCCCC"/>
<path d="M23.71 41.571H8.48514C8.34219 41.571 8.2051 41.514 8.10403 41.4125C8.00295 41.311 7.94617 41.1734 7.94617 41.0298C7.94617 40.8863 8.00295 40.7487 8.10403 40.6472C8.2051 40.5457 8.34219 40.4886 8.48514 40.4886H23.71C23.853 40.4886 23.99 40.5457 24.0911 40.6472C24.1922 40.7487 24.249 40.8863 24.249 41.0298C24.249 41.1734 24.1922 41.311 24.0911 41.4125C23.99 41.514 23.853 41.571 23.71 41.571V41.571Z" fill="#CCCCCC"/>
<path d="M23.71 44.413H8.48514C8.34219 44.413 8.2051 44.356 8.10403 44.2545C8.00295 44.153 7.94617 44.0154 7.94617 43.8719C7.94617 43.7283 8.00295 43.5907 8.10403 43.4892C8.2051 43.3877 8.34219 43.3307 8.48514 43.3307H23.71C23.853 43.3307 23.99 43.3877 24.0911 43.4892C24.1922 43.5907 24.249 43.7283 24.249 43.8719C24.249 44.0154 24.1922 44.153 24.0911 44.2545C23.99 44.356 23.853 44.413 23.71 44.413Z" fill="#CCCCCC"/>
<path d="M23.71 47.2531H8.48514C8.34219 47.2531 8.2051 47.1961 8.10403 47.0946C8.00295 46.9931 7.94617 46.8555 7.94617 46.712C7.94617 46.5684 8.00295 46.4308 8.10403 46.3293C8.2051 46.2278 8.34219 46.1708 8.48514 46.1708H23.71C23.853 46.1708 23.99 46.2278 24.0911 46.3293C24.1922 46.4308 24.249 46.5684 24.249 46.712C24.249 46.8555 24.1922 46.9931 24.0911 47.0946C23.99 47.1961 23.853 47.2531 23.71 47.2531V47.2531Z" fill="#CCCCCC"/>
<path d="M23.71 50.0949H8.48514C8.34219 50.0949 8.2051 50.0379 8.10403 49.9364C8.00295 49.8349 7.94617 49.6973 7.94617 49.5538C7.94617 49.4102 8.00295 49.2726 8.10403 49.1711C8.2051 49.0696 8.34219 49.0126 8.48514 49.0126H23.71C23.853 49.0126 23.99 49.0696 24.0911 49.1711C24.1922 49.2726 24.249 49.4102 24.249 49.5538C24.249 49.6973 24.1922 49.8349 24.0911 49.9364C23.99 50.0379 23.853 50.0949 23.71 50.0949Z" fill="#CCCCCC"/>
<path d="M23.71 52.9352H8.48514C8.34219 52.9352 8.2051 52.8782 8.10403 52.7767C8.00295 52.6753 7.94617 52.5376 7.94617 52.3941C7.94617 52.2505 8.00295 52.1129 8.10403 52.0114C8.2051 51.9099 8.34219 51.8529 8.48514 51.8529H23.71C23.853 51.8529 23.99 51.9099 24.0911 52.0114C24.1922 52.1129 24.249 52.2505 24.249 52.3941C24.249 52.5376 24.1922 52.6753 24.0911 52.7767C23.99 52.8782 23.853 52.9352 23.71 52.9352Z" fill="#CCCCCC"/>
<path d="M0.162169 57.1684H31.5995C31.6423 57.1684 31.6833 57.1514 31.7135 57.121C31.7438 57.0906 31.7608 57.0495 31.7608 57.0065C31.7608 56.9636 31.7438 56.9224 31.7135 56.892C31.6833 56.8617 31.6423 56.8446 31.5995 56.8446H0.162169C0.140993 56.8445 0.120001 56.8486 0.100391 56.8566C0.0807815 56.8646 0.0629387 56.8764 0.0478802 56.8914C0.0328218 56.9063 0.0208448 56.9241 0.0126301 56.9437C0.00441545 56.9633 0.000122874 56.9843 2.60106e-06 57.0056C-0.000117672 57.0269 0.00393424 57.0479 0.0119267 57.0676C0.0199191 57.0873 0.0316975 57.1052 0.0465859 57.1204C0.0614743 57.1355 0.0791821 57.1475 0.0986998 57.1558C0.118218 57.164 0.139161 57.1683 0.160337 57.1684H0.162169Z" fill="#CCCCCC"/>
<path d="M101.892 20.9095C104.366 20.9095 106.371 18.8958 106.371 16.4118C106.371 13.9278 104.366 11.9141 101.892 11.9141C99.4179 11.9141 97.4125 13.9278 97.4125 16.4118C97.4125 18.8958 99.4179 20.9095 101.892 20.9095Z" fill="#CCCCCC"/>
<path d="M101.448 18.1274C101.347 18.1276 101.249 18.0949 101.168 18.0342L101.164 18.0305L100.111 17.2211C100.015 17.1444 99.9533 17.0331 99.9385 16.9111C99.9237 16.7891 99.9571 16.6662 100.031 16.5686C100.106 16.471 100.215 16.4067 100.337 16.3893C100.458 16.3719 100.581 16.4029 100.68 16.4756L101.361 17.0006L102.973 14.8906C103.048 14.7918 103.16 14.7271 103.283 14.7108C103.406 14.6945 103.53 14.7279 103.628 14.8037L103.628 14.8038L103.618 14.8174L103.629 14.804C103.727 14.8799 103.791 14.9918 103.807 15.1152C103.824 15.2386 103.79 15.3635 103.715 15.4623L101.82 17.9443C101.776 18.0015 101.72 18.0478 101.655 18.0796C101.591 18.1114 101.52 18.1278 101.448 18.1276L101.448 18.1274Z" fill="white"/>
<path d="M114.479 26.9576C114.386 26.7359 114.231 26.5465 114.031 26.4127C113.832 26.2789 113.599 26.2066 113.359 26.2048H90.9927C90.6713 26.205 90.363 26.3333 90.1357 26.5616C89.9083 26.7898 89.7806 27.0993 89.7804 27.4222V55.8324C89.7806 56.1552 89.9083 56.4647 90.1357 56.6929C90.363 56.9212 90.6713 57.0495 90.9927 57.0497H113.359C113.68 57.0492 113.988 56.9208 114.216 56.6926C114.443 56.4644 114.571 56.1551 114.571 55.8324V27.4222C114.572 27.2627 114.541 27.1047 114.479 26.9576ZM114.302 55.8326C114.302 56.0834 114.202 56.3238 114.025 56.5012C113.849 56.6786 113.609 56.7784 113.36 56.7789H90.9927C90.869 56.7789 90.7464 56.7545 90.6321 56.7069C90.5177 56.6593 90.4138 56.5896 90.3263 56.5017C90.2388 56.4139 90.1694 56.3095 90.122 56.1947C90.0746 56.0799 90.0502 55.9568 90.0502 55.8326V55.8326V27.4222C90.0507 27.1713 90.1502 26.9309 90.3268 26.7535C90.5035 26.5761 90.7429 26.4763 90.9927 26.4758H113.359C113.547 26.4766 113.731 26.5337 113.887 26.64C114.043 26.7463 114.164 26.8968 114.234 27.0724C114.248 27.1073 114.26 27.143 114.27 27.1792C114.291 27.2589 114.302 27.341 114.302 27.4236L114.302 55.8326Z" fill="#CCCCCC"/>
<path d="M109.811 32.9126H103.074C102.932 32.9126 102.794 32.8556 102.693 32.7541C102.592 32.6526 102.536 32.5149 102.536 32.3714C102.536 32.2279 102.592 32.0902 102.693 31.9887C102.794 31.8872 102.932 31.8302 103.074 31.8302H109.811C109.954 31.8302 110.091 31.8872 110.192 31.9887C110.293 32.0902 110.35 32.2279 110.35 32.3714C110.35 32.5149 110.293 32.6526 110.192 32.7541C110.091 32.8556 109.954 32.9126 109.811 32.9126H109.811Z" fill="#CCCCCC"/>
<path d="M109.811 35.7537H103.074C102.932 35.7537 102.794 35.6967 102.693 35.5952C102.592 35.4937 102.536 35.3561 102.536 35.2126C102.536 35.069 102.592 34.9314 102.693 34.8299C102.794 34.7284 102.932 34.6714 103.074 34.6714H109.811C109.954 34.6714 110.091 34.7284 110.192 34.8299C110.293 34.9314 110.35 35.069 110.35 35.2126C110.35 35.3561 110.293 35.4937 110.192 35.5952C110.091 35.6967 109.954 35.7537 109.811 35.7537H109.811Z" fill="#CCCCCC"/>
<path d="M99.6178 37.3714H94.6946C94.5339 37.3712 94.3798 37.307 94.2661 37.1929C94.1525 37.0788 94.0885 36.924 94.0884 36.7626V30.9291C94.0885 30.7677 94.1525 30.6129 94.2661 30.4988C94.3798 30.3847 94.5339 30.3205 94.6946 30.3203H99.6178C99.7785 30.3205 99.9326 30.3847 100.046 30.4989C100.16 30.613 100.224 30.7677 100.224 30.9291V36.7626C100.224 36.924 100.16 37.0788 100.046 37.1929C99.9326 37.307 99.7785 37.3712 99.6178 37.3714V37.3714Z" fill="#CCCCCC"/>
<path d="M109.764 41.571H94.5396C94.3966 41.571 94.2595 41.514 94.1585 41.4125C94.0574 41.311 94.0006 41.1734 94.0006 41.0298C94.0006 40.8863 94.0574 40.7487 94.1585 40.6472C94.2595 40.5457 94.3966 40.4886 94.5396 40.4886H109.764C109.907 40.4886 110.044 40.5457 110.146 40.6472C110.247 40.7487 110.303 40.8863 110.303 41.0298C110.303 41.1734 110.247 41.311 110.146 41.4125C110.044 41.514 109.907 41.571 109.764 41.571V41.571Z" fill="#CCCCCC"/>
<path d="M109.764 44.413H94.5396C94.3966 44.413 94.2595 44.356 94.1585 44.2545C94.0574 44.153 94.0006 44.0154 94.0006 43.8719C94.0006 43.7283 94.0574 43.5907 94.1585 43.4892C94.2595 43.3877 94.3966 43.3307 94.5396 43.3307H109.764C109.907 43.3307 110.044 43.3877 110.146 43.4892C110.247 43.5907 110.303 43.7283 110.303 43.8719C110.303 44.0154 110.247 44.153 110.146 44.2545C110.044 44.356 109.907 44.413 109.764 44.413Z" fill="#CCCCCC"/>
<path d="M109.764 47.2531H94.5396C94.3966 47.2531 94.2595 47.1961 94.1585 47.0946C94.0574 46.9931 94.0006 46.8555 94.0006 46.712C94.0006 46.5684 94.0574 46.4308 94.1585 46.3293C94.2595 46.2278 94.3966 46.1708 94.5396 46.1708H109.764C109.907 46.1708 110.044 46.2278 110.146 46.3293C110.247 46.4308 110.303 46.5684 110.303 46.712C110.303 46.8555 110.247 46.9931 110.146 47.0946C110.044 47.1961 109.907 47.2531 109.764 47.2531V47.2531Z" fill="#CCCCCC"/>
<path d="M109.764 50.0949H94.5396C94.3966 50.0949 94.2595 50.0379 94.1585 49.9364C94.0574 49.8349 94.0006 49.6973 94.0006 49.5538C94.0006 49.4102 94.0574 49.2726 94.1585 49.1711C94.2595 49.0696 94.3966 49.0126 94.5396 49.0126H109.764C109.907 49.0126 110.044 49.0696 110.146 49.1711C110.247 49.2726 110.303 49.4102 110.303 49.5538C110.303 49.6973 110.247 49.8349 110.146 49.9364C110.044 50.0379 109.907 50.0949 109.764 50.0949Z" fill="#CCCCCC"/>
<path d="M109.764 52.9352H94.5396C94.3966 52.9352 94.2595 52.8782 94.1585 52.7767C94.0574 52.6753 94.0006 52.5376 94.0006 52.3941C94.0006 52.2505 94.0574 52.1129 94.1585 52.0114C94.2595 51.9099 94.3966 51.8529 94.5396 51.8529H109.764C109.907 51.8529 110.044 51.9099 110.146 52.0114C110.247 52.1129 110.303 52.2505 110.303 52.3941C110.303 52.5376 110.247 52.6753 110.146 52.7767C110.044 52.8782 109.907 52.9352 109.764 52.9352Z" fill="#CCCCCC"/>
<path d="M86.2166 57.1684H117.654C117.697 57.1684 117.738 57.1514 117.768 57.121C117.798 57.0906 117.815 57.0495 117.815 57.0065C117.815 56.9636 117.798 56.9224 117.768 56.892C117.738 56.8617 117.697 56.8446 117.654 56.8446H86.2166C86.1954 56.8445 86.1744 56.8486 86.1548 56.8566C86.1352 56.8646 86.1174 56.8764 86.1023 56.8914C86.0873 56.9063 86.0753 56.9241 86.0671 56.9437C86.0588 56.9633 86.0546 56.9843 86.0544 57.0056C86.0543 57.0269 86.0584 57.0479 86.0664 57.0676C86.0744 57.0873 86.0861 57.1052 86.101 57.1204C86.1159 57.1355 86.1336 57.1475 86.1531 57.1558C86.1727 57.164 86.1936 57.1683 86.2148 57.1684H86.2166Z" fill="#CCCCCC"/>
<path d="M38.7255 78.6019H78.6794C78.7337 78.6019 78.7858 78.5802 78.8243 78.5416C78.8627 78.5031 78.8843 78.4507 78.8843 78.3962C78.8843 78.3416 78.8627 78.2893 78.8243 78.2507C78.7858 78.2121 78.7337 78.1904 78.6794 78.1904H38.7255C38.6712 78.1904 38.6191 78.2121 38.5806 78.2507C38.5422 78.2893 38.5206 78.3416 38.5206 78.3962C38.5206 78.4507 38.5422 78.5031 38.5806 78.5416C38.6191 78.5802 38.6712 78.6019 38.7255 78.6019Z" fill="#3F3D56"/>
</g>
<defs>
<clipPath id="clip0">
<rect width="171.29" height="90" fill="white"/>
</clipPath>
</defs>
</svg>
