<svg height="25.4mm" viewBox="0 0 25.4 25.4" width="25.4mm" xmlns="http://www.w3.org/2000/svg"><g transform="translate(97.099025 13.470386)"><path d="m-97.099022-13.470386h25.4v25.4h-25.4z" fill="none"/><path d="m-87.017462-11.882886v7.2727414l.416626.7219554h.0325c-2.970939.7661162-5.023156 3.15889111-5.023156 6.7610693v.442727c0 4.426189 3.098244 7.0265069 7.192471 7.0265069 4.094225 0 7.192469-2.6003179 7.192469-7.0265069v-.442727c0-3.60218619-2.052207-5.9949587-5.023157-6.7610693h.0325l.417117-.7219554v-7.2727414zm2.618444 10.8273627c2.157767 0 3.706793 1.43841441 3.706793 4.0111374v.276766c0 2.572722-1.576691 4.011137-3.706793 4.011137-2.130104 0-3.706795-1.438415-3.706795-4.011137v-.276766c0-2.57272299 1.549026-4.0111374 3.706795-4.0111374z" fill="#00ffa8"/></g></svg>